<svg class="marks" width="895" height="639" viewBox="0 0 895 639" version="1.1" xmlns="http://www.w3.org/2000/svg" xmlns:xlink="http://www.w3.org/1999/xlink"><g transform="translate(45,27)"><g class="mark-group role-frame root"><g transform="translate(0,0)"><path class="background" d="M0.5,0.5h777v575h-777Z" style="fill: none; stroke: #ddd;"></path><g><g class="mark-group role-axis"><g transform="translate(0.5,575.5)"><path class="background" d="M0,0h0v0h0Z" style="pointer-events: none; fill: none;"></path><g><g class="mark-rule role-axis-grid" style="pointer-events: none;"><line transform="translate(0,-575)" x2="0" y2="575" style="fill: none; stroke: #ddd; stroke-width: 1; opacity: 1;"></line><line transform="translate(77,-575)" x2="0" y2="575" style="fill: none; stroke: #ddd; stroke-width: 1; opacity: 1;"></line><line transform="translate(153,-575)" x2="0" y2="575" style="fill: none; stroke: #ddd; stroke-width: 1; opacity: 1;"></line><line transform="translate(229,-575)" x2="0" y2="575" style="fill: none; stroke: #ddd; stroke-width: 1; opacity: 1;"></line><line transform="translate(306,-575)" x2="0" y2="575" style="fill: none; stroke: #ddd; stroke-width: 1; opacity: 1;"></line><line transform="translate(382,-575)" x2="0" y2="575" style="fill: none; stroke: #ddd; stroke-width: 1; opacity: 1;"></line><line transform="translate(459,-575)" x2="0" y2="575" style="fill: none; stroke: #ddd; stroke-width: 1; opacity: 1;"></line><line transform="translate(535,-575)" x2="0" y2="575" style="fill: none; stroke: #ddd; stroke-width: 1; opacity: 1;"></line><line transform="translate(612,-575)" x2="0" y2="575" style="fill: none; stroke: #ddd; stroke-width: 1; opacity: 1;"></line><line transform="translate(688,-575)" x2="0" y2="575" style="fill: none; stroke: #ddd; stroke-width: 1; opacity: 1;"></line><line transform="translate(765,-575)" x2="0" y2="575" style="fill: none; stroke: #ddd; stroke-width: 1; opacity: 1;"></line></g></g></g></g><g class="mark-group role-axis"><g transform="translate(0.5,0.5)"><path class="background" d="M0,0h0v0h0Z" style="pointer-events: none; fill: none;"></path><g><g class="mark-rule role-axis-grid" style="pointer-events: none;"><line transform="translate(0,575)" x2="777" y2="0" style="fill: none; stroke: #ddd; stroke-width: 1; opacity: 1;"></line><line transform="translate(0,539)" x2="777" y2="0" style="fill: none; stroke: #ddd; stroke-width: 1; opacity: 1;"></line><line transform="translate(0,503)" x2="777" y2="0" style="fill: none; stroke: #ddd; stroke-width: 1; opacity: 1;"></line><line transform="translate(0,467)" x2="777" y2="0" style="fill: none; stroke: #ddd; stroke-width: 1; opacity: 1;"></line><line transform="translate(0,431)" x2="777" y2="0" style="fill: none; stroke: #ddd; stroke-width: 1; opacity: 1;"></line><line transform="translate(0,395)" x2="777" y2="0" style="fill: none; stroke: #ddd; stroke-width: 1; opacity: 1;"></line><line transform="translate(0,359)" x2="777" y2="0" style="fill: none; stroke: #ddd; stroke-width: 1; opacity: 1;"></line><line transform="translate(0,323)" x2="777" y2="0" style="fill: none; stroke: #ddd; stroke-width: 1; opacity: 1;"></line><line transform="translate(0,288)" x2="777" y2="0" style="fill: none; stroke: #ddd; stroke-width: 1; opacity: 1;"></line><line transform="translate(0,252)" x2="777" y2="0" style="fill: none; stroke: #ddd; stroke-width: 1; opacity: 1;"></line><line transform="translate(0,216)" x2="777" y2="0" style="fill: none; stroke: #ddd; stroke-width: 1; opacity: 1;"></line><line transform="translate(0,180)" x2="777" y2="0" style="fill: none; stroke: #ddd; stroke-width: 1; opacity: 1;"></line><line transform="translate(0,144)" x2="777" y2="0" style="fill: none; stroke: #ddd; stroke-width: 1; opacity: 1;"></line><line transform="translate(0,108)" x2="777" y2="0" style="fill: none; stroke: #ddd; stroke-width: 1; opacity: 1;"></line><line transform="translate(0,72)" x2="777" y2="0" style="fill: none; stroke: #ddd; stroke-width: 1; opacity: 1;"></line><line transform="translate(0,36)" x2="777" y2="0" style="fill: none; stroke: #ddd; stroke-width: 1; opacity: 1;"></line><line transform="translate(0,0)" x2="777" y2="0" style="fill: none; stroke: #ddd; stroke-width: 1; opacity: 1;"></line></g></g></g></g><g class="mark-group role-scope pathgroup"><g transform="translate(0,0)"><path class="background" d="M0,0h777v575h-777Z" style="fill: none;"></path><g><g class="mark-line role-mark marks"><path d="M777,554.3L771.1390086206897,554.3934375L764.6500538793103,554.8390625L758.161099137931,553.193125L751.8814655172414,553.9621875L745.3837890625,555.24875L739.1041554418103,556.6790625L732.615200700431,557.4409375L726.1262459590517,558.339375L719.8466123383621,558.166875L713.3576575969828,560.2009375L707.0780239762931,560.74L700.5977909482758,562.0696875L694.7367995689656,563.6365625L688.2478448275862,563.0471875L681.7588900862069,561.4084375L675.4792564655173,560.869375L668.9815800107758,559.4965625L662.7019463900863,556.470625L656.212991648707,556.05375L649.7240369073276,557.2109375L643.4444032866379,555.9746875L636.9554485452586,555.4140625L630.675814924569,555.349375L624.1955818965517,555.4428125L618.1252693965517,556.2621875L611.6363146551724,552.6253125L605.1473599137931,550.5625L598.8677262931035,551.9353125L592.3700498383621,549.8221875L586.0904162176724,554.84625L579.6014614762931,555.349375L573.1125067349138,555.234375L566.8328731142241,554.9109375L560.3439183728448,554.0771875L554.0642847521552,554.659375L547.5840517241379,556.0609375L541.7230603448276,555.8596875L535.2341056034483,554.1059375L528.745150862069,554.7815625L522.4655172413793,555.119375L515.9678407866379,555.6225L509.68820716594826,556.5425L503.19925242456895,557.6565625L496.71029768318965,558.8209375L490.43066406250006,559.33125L483.9417093211207,559.7696875L477.662075700431,558.828125L471.1818426724138,556.7725L465.3208512931035,557.0025L458.8318965517242,556.211875L452.3429418103448,557.5415625L446.0633081896552,556.5209375L439.56563173491384,557.89375L433.2859981142241,557.8721875L426.79704337284477,556.7796875L420.30808863146547,558.00875L414.0284550107759,558.5190625L407.5395002693965,557.879375L401.2598666487069,558.2675L394.7796336206896,559.015L388.9186422413793,558.3609375L382.4296875,557.6709375L375.9407327586207,557.37625L369.66109913793105,557.31875L363.16342268318965,558.454375L356.8837890625,558.64125L350.3948343211207,558.8496875L343.9058795797414,558.195625L337.62624595905174,558.1525L331.1372912176724,559.5253125L324.85765759698273,559.5828125L318.3774245689655,560.294375L312.3071120689655,559.3528125L305.8181573275862,558.6915625L299.3292025862069,558.856875L293.0495689655172,559.834375L286.5518925107759,559.5828125L280.2722588900862,558.6915625L273.78330414870686,559.4390625L267.2943494073276,559.50375L261.01471578663796,559.9565625L254.52576104525863,560.5603125L248.24612742456895,559.9996875L241.76589439655174,560.7975L235.90490301724137,561.099375L229.4159482758621,561.1209375L222.92699353448276,559.8846875L216.6473599137931,558.138125L210.14968345905174,559.3671875L203.87004983836206,562.2134375L197.38109509698276,560.6465625L190.89214035560346,560.97L184.6125067349138,559.0078125L178.12355199353448,560.1146875L171.84391837284483,559.719375L165.3636853448276,557.3690625L159.50269396551724,557.9440625L153.01373922413794,556.37L146.5247844827586,555.6296875L140.24515086206895,556.22625L133.7474744073276,558.0015625L127.46784078663792,560.035625L120.97888604525862,558.3178125L114.4899313038793,555.6440625L108.21029768318965,553.653125L101.72134294181035,554.774375L95.44170932112068,555.19125L88.96147629310344,559.0078125L83.10048491379311,557.75L76.6115301724138,557.14625L70.12257543103448,562.3140625L63.84294181034483,558.224375L57.345265355603445,554.860625L51.065631734913794,557.3690625L44.576676993534484,554.5875L38.087722252155174,554.5875L31.808088631465516,551.611875L25.31913389008621,556.7078125L19.03950026939655,554.6090625L12.559267241379311,543.935625L6.48895474137931,548.8734375L0,546.3865625" style="fill: none; stroke: #54a24b; stroke-width: 2;"></path></g></g></g><g transform="translate(0,0)"><path class="background" d="M0,0h777v575h-777Z" style="fill: none;"></path><g><g class="mark-line role-mark marks"><path d="M777,482.410625L771.1390086206897,489.9L764.6500538793103,484.8615625L758.161099137931,478.31374999999997L751.8814655172414,477.3146875L745.3837890625,489.6053125L739.1041554418103,507.89750000000004L732.615200700431,516.6446875L726.1262459590517,513.36L719.8466123383621,514.869375L713.3576575969828,518.9446875L707.0780239762931,517.12625L700.5977909482758,522.215L694.7367995689656,528.4321875L688.2478448275862,532.723125L681.7588900862069,538.1425L675.4792564655173,544.309375L668.9815800107758,533.85875L662.7019463900863,522.70375L656.212991648707,516.9178125L649.7240369073276,520.130625L643.4444032866379,522.2940625L636.9554485452586,516.335625L630.675814924569,518.4846875L624.1955818965517,523.753125L618.1252693965517,528.6621875L611.6363146551724,519.153125L605.1473599137931,508.415L598.8677262931035,509.90999999999997L592.3700498383621,510.9234375L586.0904162176724,508.0484375L579.6014614762931,517.5646875L573.1125067349138,518.5493749999999L566.8328731142241,525.8303125L560.3439183728448,525.305625L554.0642847521552,530.9190625L547.5840517241379,546.4009375L541.7230603448276,546.868125L535.2341056034483,547.9246875L528.745150862069,546.638125L522.4655172413793,546.005625L515.9678407866379,547.6228125L509.68820716594826,551.91375L503.19925242456895,552.8409375L496.71029768318965,555.6728125L490.43066406250006,547.19875L483.9417093211207,550.1240625L477.662075700431,549.6928125L471.1818426724138,548.7440625L465.3208512931035,548.09L458.8318965517242,542.785625L452.3429418103448,541.1109375L446.0633081896552,540.169375L439.56563173491384,546.350625L433.2859981142241,542.440625L426.79704337284477,544.309375L420.30808863146547,542.5484375L414.0284550107759,551.2165625L407.5395002693965,549.4771875L401.2598666487069,551.74125L394.7796336206896,550.3684375L388.9186422413793,549.714375L382.4296875,543.935625L375.9407327586207,543.1665625L369.66109913793105,546.48L363.16342268318965,550.4690625L356.8837890625,545.631875L350.3948343211207,547.586875L343.9058795797414,547.02625L337.62624595905174,535.9L331.1372912176724,540.140625L324.85765759698273,543.6625L318.3774245689655,543.8925L312.3071120689655,544.0865625L305.8181573275862,538.775L299.3292025862069,537.179375L293.0495689655172,536.2090625L286.5518925107759,535.8784375L280.2722588900862,540.1909375L273.78330414870686,541.7075L267.2943494073276,545.07125L261.01471578663796,548.895L254.52576104525863,549.2040625L248.24612742456895,554.3790625L241.76589439655174,556.2909375L235.90490301724137,559.1803125L229.4159482758621,559.2953125L222.92699353448276,561.4228125L216.6473599137931,558.2171875L210.14968345905174,561.085L203.87004983836206,563.5503125L197.38109509698276,564.261875L190.89214035560346,564.6140625L184.6125067349138,563.3203125L178.12355199353448,561.8971875L171.84391837284483,563.0040625L165.3636853448276,564.721875L159.50269396551724,564.865625L153.01373922413794,564.8009375L146.5247844827586,567.223125L140.24515086206895,566.86375L133.7474744073276,569.983125L127.46784078663792,570.7090625L120.97888604525862,568.574375L114.4899313038793,566.0228125L108.21029768318965,564.8296875L101.72134294181035,563.0040625L95.44170932112068,563.658125L88.96147629310344,567.6471875L83.10048491379311,567.6759375L76.6115301724138,562.5584375L70.12257543103448,563.81625L63.84294181034483,557.2540625L57.345265355603445,548.679375L51.065631734913794,547.37125L44.576676993534484,545.171875L38.087722252155174,553.35125L31.808088631465516,548.9021875L25.31913389008621,540.2771875L19.03950026939655,535.3321875L12.559267241379311,526.84375L6.48895474137931,525.4996874999999L0,528.5975" style="fill: none; stroke: #f58518; stroke-width: 2;"></path></g></g></g><g transform="translate(0,0)"><path class="background" d="M0,0h777v575h-777Z" style="fill: none;"></path><g><g class="mark-line role-mark marks"><path d="M777,484.7609375L771.1390086206897,483.60375L764.6500538793103,487.4203125L758.161099137931,481.3325L751.8814655172414,484.5884375L745.3837890625,489.080625L739.1041554418103,489.7921875L732.615200700431,490.90625L726.1262459590517,491.380625L719.8466123383621,500.9615625L713.3576575969828,499.6390625L707.0780239762931,502.1978125L700.5977909482758,506.6540625L694.7367995689656,510.0825L688.2478448275862,510.700625L681.7588900862069,515.9546875L675.4792564655173,517.7515625L668.9815800107758,510.14L662.7019463900863,493.4003125L656.212991648707,490.0725L649.7240369073276,486.061875L643.4444032866379,492.63125L636.9554485452586,485.05562499999996L630.675814924569,491.4596875L624.1955818965517,495.3121875L618.1252693965517,496.19624999999996L611.6363146551724,501.1484375L605.1473599137931,500.465625L598.8677262931035,502.478125L592.3700498383621,495.21875L586.0904162176724,494.06875L579.6014614762931,494.830625L573.1125067349138,499.24375L566.8328731142241,502.9453125L560.3439183728448,502.018125L554.0642847521552,505.295625L547.5840517241379,510.71500000000003L541.7230603448276,511.620625L535.2341056034483,507.5884375L528.745150862069,508.946875L522.4655172413793,512.5046875L515.9678407866379,512.425625L509.68820716594826,519.469375L503.19925242456895,520.1234375L496.71029768318965,522.746875L490.43066406250006,523.1421875L483.9417093211207,521.065L477.662075700431,519.6203125L471.1818426724138,519.5340625L465.3208512931035,521.0290625L458.8318965517242,520.4540625L452.3429418103448,519.8503125L446.0633081896552,515.358125L439.56563173491384,520.1953125L433.2859981142241,521.309375L426.79704337284477,521.0434375L420.30808863146547,519.2753125L414.0284550107759,525.4565625L407.5395002693965,524.558125L401.2598666487069,524.1340625L394.7796336206896,514.150625L388.9186422413793,513.345625L382.4296875,512.9071875L375.9407327586207,509.47875L369.66109913793105,512.3609375L363.16342268318965,515.45875L356.8837890625,518.1253125L350.3948343211207,518.8153125L343.9058795797414,517.3634375L337.62624595905174,516.6446875L331.1372912176724,516.3571875L324.85765759698273,516.7525L318.3774245689655,514.3303125L312.3071120689655,511.246875L305.8181573275862,509.55062499999997L299.3292025862069,513.8703125L293.0495689655172,515.28625L286.5518925107759,516.0912500000001L280.2722588900862,516.8459375L273.78330414870686,521.0074999999999L267.2943494073276,521.61125L261.01471578663796,520.791875L254.52576104525863,517.155L248.24612742456895,519.3184375L241.76589439655174,523.5590625L235.90490301724137,523.8753125000001L229.4159482758621,523.810625L222.92699353448276,524.270625L216.6473599137931,518.10375L210.14968345905174,523.4225L203.87004983836206,536.8990625L197.38109509698276,525.75125L190.89214035560346,529.100625L184.6125067349138,528.0584375L178.12355199353448,522.5528125L171.84391837284483,520.504375L165.3636853448276,507.3296875L159.50269396551724,511.160625L153.01373922413794,504.893125L146.5247844827586,496.39750000000004L140.24515086206895,499.890625L133.7474744073276,504.864375L127.46784078663792,515.473125L120.97888604525862,510.1328125L114.4899313038793,506.8121875L108.21029768318965,501.4359375L101.72134294181035,502.535625L95.44170932112068,500.465625L88.96147629310344,512.7346875L83.10048491379311,510.326875L76.6115301724138,502.57875L70.12257543103448,520.0371875L63.84294181034483,514.5387499999999L57.345265355603445,511.390625L51.065631734913794,502.26968750000003L44.576676993534484,489.741875L38.087722252155174,502.593125L31.808088631465516,504.3253125L25.31913389008621,505.77718749999997L19.03950026939655,503.1609375L12.559267241379311,498.73343750000004L6.48895474137931,508.7959375L0,502.75125" style="fill: none; stroke: #72b7b2; stroke-width: 2;"></path></g></g></g><g transform="translate(0,0)"><path class="background" d="M0,0h777v575h-777Z" style="fill: none;"></path><g><g class="mark-line role-mark marks"><path d="M777,172.36343749999997L771.1390086206897,196.3625L764.6500538793103,194.10562499999997L758.161099137931,129.38937500000003L751.8814655172414,155.96875L745.3837890625,189.66375L739.1041554418103,218.60781250000002L732.615200700431,243.1746875L726.1262459590517,256.55781249999995L719.8466123383621,271.9821875L713.3576575969828,275.11593750000003L707.0780239762931,290.39656249999996L700.5977909482758,324.83187499999997L694.7367995689656,332.0696875L688.2478448275862,331.68156250000004L681.7588900862069,353.8765625L675.4792564655173,364.43500000000006L668.9815800107758,316.71L662.7019463900863,287.12625L656.212991648707,242.0103125L649.7240369073276,234.4921875L643.4444032866379,196.635625L636.9554485452586,153.95625L630.675814924569,162.2290625L624.1955818965517,258.4121875L618.1252693965517,236.33937499999996L611.6363146551724,169.409375L605.1473599137931,77.99874999999997L598.8677262931035,76.90625L592.3700498383621,66.84375L586.0904162176724,167.27468750000003L579.6014614762931,204.6640625L573.1125067349138,208.4375L566.8328731142241,199.309375L560.3439183728448,217.1271875L554.0642847521552,236.195625L547.5840517241379,245.6975L541.7230603448276,251.95781250000005L535.2341056034483,214.546875L528.745150862069,244.02999999999997L522.4655172413793,226.54281250000003L515.9678407866379,232.59468750000002L509.68820716594826,286.134375L503.19925242456895,302.9315625L496.71029768318965,297.13124999999997L490.43066406250006,273.6065625L483.9417093211207,307.754375L477.662075700431,274.605625L471.1818426724138,294.6875L465.3208512931035,314.366875L458.8318965517242,264.025625L452.3429418103448,276.819375L446.0633081896552,283.9709375L439.56563173491384,307.524375L433.2859981142241,347.54437500000006L426.79704337284477,369.4375L420.30808863146547,368.1725L414.0284550107759,363.57968750000003L407.5395002693965,375.7121875L401.2598666487069,416.875L394.7796336206896,445.2584375L388.9186422413793,439.8821875L382.4296875,434.398125L375.9407327586207,436.4321875L369.66109913793105,444.201875L363.16342268318965,437.9775L356.8837890625,481.85L350.3948343211207,501.4215625" style="fill: none; stroke: #e45756; stroke-width: 2;"></path></g></g></g><g transform="translate(0,0)"><path class="background" d="M0,0h777v575h-777Z" style="fill: none;"></path><g><g class="mark-line role-mark marks"><path d="M777,414.704375L771.1390086206897,427.929375L764.6500538793103,436.95687499999997L758.161099137931,423.5378125L751.8814655172414,431.3146875L745.3837890625,439.515625L739.1041554418103,441.7796875L732.615200700431,454.0990625L726.1262459590517,457.5634375L719.8466123383621,472.6284375L713.3576575969828,477.38656249999997L707.0780239762931,484.5596875L700.5977909482758,499.445L694.7367995689656,510.80843749999997L688.2478448275862,510.2190625L681.7588900862069,513.6546875L675.4792564655173,508.3934375L668.9815800107758,497.6696875L662.7019463900863,493.306875L656.212991648707,453.1503125L649.7240369073276,460.7546875L643.4444032866379,454.65250000000003L636.9554485452586,439.3359375L630.675814924569,449.97343750000005L624.1955818965517,471.859375L618.1252693965517,485.141875L611.6363146551724,477.71L605.1473599137931,432.63L598.8677262931035,444.02937499999996L592.3700498383621,438.4734375L586.0904162176724,464.6934375L579.6014614762931,475.46750000000003L573.1125067349138,480.2975L566.8328731142241,487.28375L560.3439183728448,487.89468750000003L554.0642847521552,503.26875L547.5840517241379,508.2209375L541.7230603448276,514.1865625L535.2341056034483,513.3815625L528.745150862069,514.02125L522.4655172413793,509.119375L515.9678407866379,516.72375L509.68820716594826,519.670625L503.19925242456895,526.2328125L496.71029768318965,526.15375L490.43066406250006,533.8371875L483.9417093211207,532.0403125L477.662075700431,524.4071875L471.1818426724138,529.92L465.3208512931035,525.7728125L458.8318965517242,520.7271875L452.3429418103448,523.3290625L446.0633081896552,526.254375L439.56563173491384,533.6071875L433.2859981142241,536.4678125L426.79704337284477,541.2978125L420.30808863146547,544.3453125L414.0284550107759,548.5428125L407.5395002693965,546.4225L401.2598666487069,549.081875L394.7796336206896,545.0496875L388.9186422413793,542.756875L382.4296875,547.3640625L375.9407327586207,551.85625L369.66109913793105,550.9003125L363.16342268318965,556.16875L356.8837890625,561.070625L350.3948343211207,562.6015625L343.9058795797414,563.3778125L337.62624595905174,563.3059375L331.1372912176724,564.9159375L324.85765759698273,565.7353125L318.3774245689655,565.2825L312.3071120689655,566.40375L305.8181573275862,566.8925L299.3292025862069,567.3165625L293.0495689655172,567.4890625L286.5518925107759,566.7775L280.2722588900862,567.55375L273.78330414870686,566.8709375L267.2943494073276,567.424375L261.01471578663796,568.1503125L254.52576104525863,568.545625L248.24612742456895,569.8896875L241.76589439655174,569.9184375L235.90490301724137,569.6021875L229.4159482758621,569.839375L222.92699353448276,569.85375L216.6473599137931,569.4296875L210.14968345905174,569.2284375L203.87004983836206,569.7890625L197.38109509698276,569.695625L190.89214035560346,569.5159375L184.6125067349138,568.631875L178.12355199353448,566.6265625L171.84391837284483,566.274375L165.3636853448276,566.49L159.50269396551724,567.2015625L153.01373922413794,566.11625L146.5247844827586,567.1296875L140.24515086206895,567.3453125L133.7474744073276,568.689375L127.46784078663792,569.4225L120.97888604525862,568.3371875L114.4899313038793,568.24375L108.21029768318965,566.648125L101.72134294181035,567.826875L95.44170932112068,565.843125L88.96147629310344,567.0721875L83.10048491379311,568.445L76.6115301724138,567.2303125L70.12257543103448,569.6525L63.84294181034483,569.0703125L57.345265355603445,567.970625L51.065631734913794,565.7425L44.576676993534484,553.0996875L38.087722252155174,556.7365625L31.808088631465516,556.1759375L25.31913389008621,559.90625L19.03950026939655,552.7115625L12.559267241379311,550.5984375L6.48895474137931,554.400625L0,556.355625" style="fill: none; stroke: #4c78a8; stroke-width: 2;"></path></g></g></g></g><g class="mark-group role-legend"><g transform="translate(797,0)"><path class="background" d="M0,0h48v79h-48Z" style="pointer-events: none; fill: none;"></path><g><g class="mark-group role-legend-entry"><g transform="translate(0,16)"><path class="background" d="M0,0h0v0h0Z" style="pointer-events: none; fill: none;"></path><g><g class="mark-group role-scope"><g transform="translate(0,0)"><path class="background" d="M0,0h48v11h-48Z" style="pointer-events: none; fill: none; opacity: 1;"></path><g><g class="mark-symbol role-legend-symbol" style="pointer-events: none;"><path transform="translate(6,6)" d="M-5,0L5,0" style="fill: none; stroke: #4c78a8; stroke-width: 1.5; opacity: 1;"></path></g><g class="mark-text role-legend-label" style="pointer-events: none;"><text text-anchor="start" transform="translate(16,9)" style="font-family: sans-serif; font-size: 10px; fill: #000; opacity: 1;">AAPL</text></g></g></g><g transform="translate(0,13)"><path class="background" d="M0,0h48v11h-48Z" style="pointer-events: none; fill: none; opacity: 1;"></path><g><g class="mark-symbol role-legend-symbol" style="pointer-events: none;"><path transform="translate(6,6)" d="M-5,0L5,0" style="fill: none; stroke: #f58518; stroke-width: 1.5; opacity: 1;"></path></g><g class="mark-text role-legend-label" style="pointer-events: none;"><text text-anchor="start" transform="translate(16,9)" style="font-family: sans-serif; font-size: 10px; fill: #000; opacity: 1;">AMZN</text></g></g></g><g transform="translate(0,26)"><path class="background" d="M0,0h48v11h-48Z" style="pointer-events: none; fill: none; opacity: 1;"></path><g><g class="mark-symbol role-legend-symbol" style="pointer-events: none;"><path transform="translate(6,6)" d="M-5,0L5,0" style="fill: none; stroke: #e45756; stroke-width: 1.5; opacity: 1;"></path></g><g class="mark-text role-legend-label" style="pointer-events: none;"><text text-anchor="start" transform="translate(16,9)" style="font-family: sans-serif; font-size: 10px; fill: #000; opacity: 1;">GOOG</text></g></g></g><g transform="translate(0,39)"><path class="background" d="M0,0h48v11h-48Z" style="pointer-events: none; fill: none; opacity: 1;"></path><g><g class="mark-symbol role-legend-symbol" style="pointer-events: none;"><path transform="translate(6,6)" d="M-5,0L5,0" style="fill: none; stroke: #72b7b2; stroke-width: 1.5; opacity: 1;"></path></g><g class="mark-text role-legend-label" style="pointer-events: none;"><text text-anchor="start" transform="translate(16,9)" style="font-family: sans-serif; font-size: 10px; fill: #000; opacity: 1;">IBM</text></g></g></g><g transform="translate(0,52)"><path class="background" d="M0,0h48v11h-48Z" style="pointer-events: none; fill: none; opacity: 1;"></path><g><g class="mark-symbol role-legend-symbol" style="pointer-events: none;"><path transform="translate(6,6)" d="M-5,0L5,0" style="fill: none; stroke: #54a24b; stroke-width: 1.5; opacity: 1;"></path></g><g class="mark-text role-legend-label" style="pointer-events: none;"><text text-anchor="start" transform="translate(16,9)" style="font-family: sans-serif; font-size: 10px; fill: #000; opacity: 1;">MSFT</text></g></g></g></g></g></g></g><g class="mark-text role-legend-title" style="pointer-events: none;"><text text-anchor="start" transform="translate(0,9)" style="font-family: sans-serif; font-size: 11px; font-weight: bold; fill: #000; opacity: 1;">Bedrijf</text></g></g></g></g><g class="mark-text role-title" style="pointer-events: none;"><text text-anchor="middle" transform="translate(388.5,-12)" style="font-family: sans-serif; font-size: 13px; font-weight: bold; fill: #000; opacity: 1;">Aandelen, 01 januari 2000 - 01 maart 2010</text></g><g class="mark-group role-axis"><g transform="translate(0.5,575.5)"><path class="background" d="M0,0h0v0h0Z" style="pointer-events: none; fill: none;"></path><g><g class="mark-rule role-axis-tick" style="pointer-events: none;"><line transform="translate(0,0)" x2="0" y2="5" style="fill: none; stroke: #888; stroke-width: 1; opacity: 1;"></line><line transform="translate(77,0)" x2="0" y2="5" style="fill: none; stroke: #888; stroke-width: 1; opacity: 1;"></line><line transform="translate(153,0)" x2="0" y2="5" style="fill: none; stroke: #888; stroke-width: 1; opacity: 1;"></line><line transform="translate(229,0)" x2="0" y2="5" style="fill: none; stroke: #888; stroke-width: 1; opacity: 1;"></line><line transform="translate(306,0)" x2="0" y2="5" style="fill: none; stroke: #888; stroke-width: 1; opacity: 1;"></line><line transform="translate(382,0)" x2="0" y2="5" style="fill: none; stroke: #888; stroke-width: 1; opacity: 1;"></line><line transform="translate(459,0)" x2="0" y2="5" style="fill: none; stroke: #888; stroke-width: 1; opacity: 1;"></line><line transform="translate(535,0)" x2="0" y2="5" style="fill: none; stroke: #888; stroke-width: 1; opacity: 1;"></line><line transform="translate(612,0)" x2="0" y2="5" style="fill: none; stroke: #888; stroke-width: 1; opacity: 1;"></line><line transform="translate(688,0)" x2="0" y2="5" style="fill: none; stroke: #888; stroke-width: 1; opacity: 1;"></line><line transform="translate(765,0)" x2="0" y2="5" style="fill: none; stroke: #888; stroke-width: 1; opacity: 1;"></line></g><g class="mark-text role-axis-label" style="pointer-events: none;"><text text-anchor="start" transform="translate(0,15)" style="font-family: sans-serif; font-size: 10px; fill: #000; opacity: 1;">2000</text><text text-anchor="middle" transform="translate(76.6115301724138,15)" style="font-family: sans-serif; font-size: 10px; fill: #000; opacity: 1;">2001</text><text text-anchor="middle" transform="translate(153.01373922413794,15)" style="font-family: sans-serif; font-size: 10px; fill: #000; opacity: 1;">2002</text><text text-anchor="middle" transform="translate(229.4159482758621,15)" style="font-family: sans-serif; font-size: 10px; fill: #000; opacity: 1;">2003</text><text text-anchor="middle" transform="translate(305.8181573275862,15)" style="font-family: sans-serif; font-size: 10px; fill: #000; opacity: 1;">2004</text><text text-anchor="middle" transform="translate(382.4296875,15)" style="font-family: sans-serif; font-size: 10px; fill: #000; opacity: 1;">2005</text><text text-anchor="middle" transform="translate(458.8318965517242,15)" style="font-family: sans-serif; font-size: 10px; fill: #000; opacity: 1;">2006</text><text text-anchor="middle" transform="translate(535.2341056034483,15)" style="font-family: sans-serif; font-size: 10px; fill: #000; opacity: 1;">2007</text><text text-anchor="middle" transform="translate(611.6363146551724,15)" style="font-family: sans-serif; font-size: 10px; fill: #000; opacity: 1;">2008</text><text text-anchor="middle" transform="translate(688.2478448275862,15)" style="font-family: sans-serif; font-size: 10px; fill: #000; opacity: 1;">2009</text><text text-anchor="middle" transform="translate(764.6500538793103,15)" style="font-family: sans-serif; font-size: 10px; fill: #000; opacity: 1;">2010</text></g><g class="mark-rule role-axis-domain" style="pointer-events: none;"><line transform="translate(0,0)" x2="777" y2="0" style="fill: none; stroke: #888; stroke-width: 1; opacity: 1;"></line></g><g class="mark-text role-axis-title" style="pointer-events: none;"><text text-anchor="middle" transform="translate(388.5,30)" style="font-family: sans-serif; font-size: 11px; font-weight: bold; fill: #000; opacity: 1;">Tijd</text></g></g></g></g><g class="mark-group role-axis"><g transform="translate(0.5,0.5)"><path class="background" d="M0,0h0v0h0Z" style="pointer-events: none; fill: none;"></path><g><g class="mark-rule role-axis-tick" style="pointer-events: none;"><line transform="translate(0,575)" x2="-5" y2="0" style="fill: none; stroke: #888; stroke-width: 1; opacity: 1;"></line><line transform="translate(0,539)" x2="-5" y2="0" style="fill: none; stroke: #888; stroke-width: 1; opacity: 1;"></line><line transform="translate(0,503)" x2="-5" y2="0" style="fill: none; stroke: #888; stroke-width: 1; opacity: 1;"></line><line transform="translate(0,467)" x2="-5" y2="0" style="fill: none; stroke: #888; stroke-width: 1; opacity: 1;"></line><line transform="translate(0,431)" x2="-5" y2="0" style="fill: none; stroke: #888; stroke-width: 1; opacity: 1;"></line><line transform="translate(0,395)" x2="-5" y2="0" style="fill: none; stroke: #888; stroke-width: 1; opacity: 1;"></line><line transform="translate(0,359)" x2="-5" y2="0" style="fill: none; stroke: #888; stroke-width: 1; opacity: 1;"></line><line transform="translate(0,323)" x2="-5" y2="0" style="fill: none; stroke: #888; stroke-width: 1; opacity: 1;"></line><line transform="translate(0,288)" x2="-5" y2="0" style="fill: none; stroke: #888; stroke-width: 1; opacity: 1;"></line><line transform="translate(0,252)" x2="-5" y2="0" style="fill: none; stroke: #888; stroke-width: 1; opacity: 1;"></line><line transform="translate(0,216)" x2="-5" y2="0" style="fill: none; stroke: #888; stroke-width: 1; opacity: 1;"></line><line transform="translate(0,180)" x2="-5" y2="0" style="fill: none; stroke: #888; stroke-width: 1; opacity: 1;"></line><line transform="translate(0,144)" x2="-5" y2="0" style="fill: none; stroke: #888; stroke-width: 1; opacity: 1;"></line><line transform="translate(0,108)" x2="-5" y2="0" style="fill: none; stroke: #888; stroke-width: 1; opacity: 1;"></line><line transform="translate(0,72)" x2="-5" y2="0" style="fill: none; stroke: #888; stroke-width: 1; opacity: 1;"></line><line transform="translate(0,36)" x2="-5" y2="0" style="fill: none; stroke: #888; stroke-width: 1; opacity: 1;"></line><line transform="translate(0,0)" x2="-5" y2="0" style="fill: none; stroke: #888; stroke-width: 1; opacity: 1;"></line></g><g class="mark-text role-axis-label" style="pointer-events: none;"><text text-anchor="end" transform="translate(-7,578)" style="font-family: sans-serif; font-size: 10px; fill: #000; opacity: 1;">0</text><text text-anchor="end" transform="translate(-7,542.0625)" style="font-family: sans-serif; font-size: 10px; fill: #000; opacity: 1;">50</text><text text-anchor="end" transform="translate(-7,506.125)" style="font-family: sans-serif; font-size: 10px; fill: #000; opacity: 1;">100</text><text text-anchor="end" transform="translate(-7,470.1875)" style="font-family: sans-serif; font-size: 10px; fill: #000; opacity: 1;">150</text><text text-anchor="end" transform="translate(-7,434.25)" style="font-family: sans-serif; font-size: 10px; fill: #000; opacity: 1;">200</text><text text-anchor="end" transform="translate(-7,398.3125)" style="font-family: sans-serif; font-size: 10px; fill: #000; opacity: 1;">250</text><text text-anchor="end" transform="translate(-7,362.375)" style="font-family: sans-serif; font-size: 10px; fill: #000; opacity: 1;">300</text><text text-anchor="end" transform="translate(-7,326.4375)" style="font-family: sans-serif; font-size: 10px; fill: #000; opacity: 1;">350</text><text text-anchor="end" transform="translate(-7,290.5)" style="font-family: sans-serif; font-size: 10px; fill: #000; opacity: 1;">400</text><text text-anchor="end" transform="translate(-7,254.5625)" style="font-family: sans-serif; font-size: 10px; fill: #000; opacity: 1;">450</text><text text-anchor="end" transform="translate(-7,218.625)" style="font-family: sans-serif; font-size: 10px; fill: #000; opacity: 1;">500</text><text text-anchor="end" transform="translate(-7,182.6875)" style="font-family: sans-serif; font-size: 10px; fill: #000; opacity: 1;">550</text><text text-anchor="end" transform="translate(-7,146.75)" style="font-family: sans-serif; font-size: 10px; fill: #000; opacity: 1;">600</text><text text-anchor="end" transform="translate(-7,110.8125)" style="font-family: sans-serif; font-size: 10px; fill: #000; opacity: 1;">650</text><text text-anchor="end" transform="translate(-7,74.875)" style="font-family: sans-serif; font-size: 10px; fill: #000; opacity: 1;">700</text><text text-anchor="end" transform="translate(-7,38.9375)" style="font-family: sans-serif; font-size: 10px; fill: #000; opacity: 1;">750</text><text text-anchor="end" transform="translate(-7,3)" style="font-family: sans-serif; font-size: 10px; fill: #000; opacity: 1;">800</text></g><g class="mark-rule role-axis-domain" style="pointer-events: none;"><line transform="translate(0,575)" x2="0" y2="-575" style="fill: none; stroke: #888; stroke-width: 1; opacity: 1;"></line></g><g class="mark-text role-axis-title" style="pointer-events: none;"><text text-anchor="middle" transform="translate(-29,287.5) rotate(-90) translate(0,-2)" style="font-family: sans-serif; font-size: 11px; font-weight: bold; fill: #000; opacity: 1;">Prijs</text></g></g></g></g></g></g></g></g></svg>