<svg class="marks" width="546" height="373" viewBox="0 0 546 373" version="1.1" xmlns="http://www.w3.org/2000/svg" xmlns:xlink="http://www.w3.org/1999/xlink"><g transform="translate(123,22)"><g class="mark-group role-frame root"><g transform="translate(0,0)"><path class="background" d="M0.5,0.5h300v300h-300Z" style="fill: none; stroke: #ddd;"></path><g><g class="mark-group role-axis"><g transform="translate(0.5,300.5)"><path class="background" d="M0,0h0v0h0Z" style="pointer-events: none; fill: none;"></path><g><g class="mark-rule role-axis-grid" style="pointer-events: none;"><line transform="translate(16,-300)" x2="0" y2="300" style="fill: none; stroke: #ddd; stroke-width: 1; stroke-dasharray: 4,15; opacity: 1;"></line><line transform="translate(49,-300)" x2="0" y2="300" style="fill: none; stroke: #ddd; stroke-width: 1; stroke-dasharray: 4,15; opacity: 1;"></line><line transform="translate(82,-300)" x2="0" y2="300" style="fill: none; stroke: #ddd; stroke-width: 1; stroke-dasharray: 4,15; opacity: 1;"></line><line transform="translate(116,-300)" x2="0" y2="300" style="fill: none; stroke: #ddd; stroke-width: 1; stroke-dasharray: 4,15; opacity: 1;"></line><line transform="translate(149,-300)" x2="0" y2="300" style="fill: none; stroke: #ddd; stroke-width: 1; stroke-dasharray: 4,15; opacity: 1;"></line><line transform="translate(182,-300)" x2="0" y2="300" style="fill: none; stroke: #ddd; stroke-width: 1; stroke-dasharray: 4,15; opacity: 1;"></line><line transform="translate(216,-300)" x2="0" y2="300" style="fill: none; stroke: #ddd; stroke-width: 1; stroke-dasharray: 4,15; opacity: 1;"></line><line transform="translate(249,-300)" x2="0" y2="300" style="fill: none; stroke: #ddd; stroke-width: 1; stroke-dasharray: 4,15; opacity: 1;"></line><line transform="translate(282,-300)" x2="0" y2="300" style="fill: none; stroke: #ddd; stroke-width: 1; stroke-dasharray: 4,15; opacity: 1;"></line></g></g></g></g><g class="mark-group role-axis"><g transform="translate(0.5,0.5)"><path class="background" d="M0,0h0v0h0Z" style="pointer-events: none; fill: none;"></path><g><g class="mark-rule role-axis-grid" style="pointer-events: none;"><line transform="translate(0,300)" x2="300" y2="0" style="fill: none; stroke: #ddd; stroke-width: 1; opacity: 1;"></line><line transform="translate(0,242)" x2="300" y2="0" style="fill: none; stroke: #ddd; stroke-width: 1; opacity: 1;"></line><line transform="translate(0,185)" x2="300" y2="0" style="fill: none; stroke: #ddd; stroke-width: 1; opacity: 1;"></line><line transform="translate(0,127)" x2="300" y2="0" style="fill: none; stroke: #ddd; stroke-width: 1; opacity: 1;"></line><line transform="translate(0,69)" x2="300" y2="0" style="fill: none; stroke: #ddd; stroke-width: 1; opacity: 1;"></line><line transform="translate(0,12)" x2="300" y2="0" style="fill: none; stroke: #ddd; stroke-width: 1; opacity: 1;"></line></g></g></g></g><g class="mark-rect role-mark marks"><path d="M1.6666666666666572,138.17307692307693h30.000000000000004v46.44230769230768h-30.000000000000004Z" style="fill: green;"></path><path d="M34.99999999999999,184.6153846153846h30.000000000000004v89.13461538461539h-30.000000000000004Z" style="fill: green;"></path><path d="M68.33333333333333,184.6153846153846h30.000000000000004v97.49999999999997h-30.000000000000004Z" style="fill: green;"></path><path d="M101.66666666666666,143.94230769230768h30.000000000000004v40.673076923076934h-30.000000000000004Z" style="fill: green;"></path><path d="M135,106.44230769230771h30.000000000000004v78.1730769230769h-30.000000000000004Z" style="fill: green;"></path><path d="M168.33333333333334,83.0769230769231h30.000000000000004v101.53846153846152h-30.000000000000004Z" style="fill: green;"></path><path d="M201.66666666666666,12.980769230769226h30.000000000000004v171.6346153846154h-30.000000000000004Z" style="fill: green;"></path><path d="M235,9.51923076923083h30.000000000000004v175.09615384615378h-30.000000000000004Z" style="fill: green;"></path><path d="M268.33333333333337,69.80769230769226h30.000000000000004v114.80769230769235h-30.000000000000004Z" style="fill: green;"></path></g><g class="mark-text role-title" style="pointer-events: none;"><text text-anchor="middle" transform="translate(150,-7)" style="font-family: sans-serif; font-size: 13px; font-weight: bold; fill: #000; opacity: 1;">Ondernemersvertrouwen 2011-2019 (bron: CBS, KVK, EIB, MKB-Nederland, VNO-NCW)</text></g><g class="mark-group role-axis"><g transform="translate(0.5,300.5)"><path class="background" d="M0,0h0v0h0Z" style="pointer-events: none; fill: none;"></path><g><g class="mark-rule role-axis-tick" style="pointer-events: none;"><line transform="translate(16,0)" x2="0" y2="5" style="fill: none; stroke: #888; stroke-width: 1; opacity: 1;"></line><line transform="translate(49,0)" x2="0" y2="5" style="fill: none; stroke: #888; stroke-width: 1; opacity: 1;"></line><line transform="translate(82,0)" x2="0" y2="5" style="fill: none; stroke: #888; stroke-width: 1; opacity: 1;"></line><line transform="translate(116,0)" x2="0" y2="5" style="fill: none; stroke: #888; stroke-width: 1; opacity: 1;"></line><line transform="translate(149,0)" x2="0" y2="5" style="fill: none; stroke: #888; stroke-width: 1; opacity: 1;"></line><line transform="translate(182,0)" x2="0" y2="5" style="fill: none; stroke: #888; stroke-width: 1; opacity: 1;"></line><line transform="translate(216,0)" x2="0" y2="5" style="fill: none; stroke: #888; stroke-width: 1; opacity: 1;"></line><line transform="translate(249,0)" x2="0" y2="5" style="fill: none; stroke: #888; stroke-width: 1; opacity: 1;"></line><line transform="translate(282,0)" x2="0" y2="5" style="fill: none; stroke: #888; stroke-width: 1; opacity: 1;"></line></g><g class="mark-text role-axis-label" style="pointer-events: none;"><text text-anchor="end" transform="translate(15.666666666666657,7) rotate(300) translate(0,3)" style="font-family: sans-serif; font-size: 10px; fill: #000; opacity: 1;">2011</text><text text-anchor="end" transform="translate(48.99999999999999,7) rotate(300) translate(0,3)" style="font-family: sans-serif; font-size: 10px; fill: #000; opacity: 1;">2012</text><text text-anchor="end" transform="translate(82.33333333333333,7) rotate(300) translate(0,3)" style="font-family: sans-serif; font-size: 10px; fill: #000; opacity: 1;">2013</text><text text-anchor="end" transform="translate(115.66666666666666,7) rotate(300) translate(0,3)" style="font-family: sans-serif; font-size: 10px; fill: #000; opacity: 1;">2014</text><text text-anchor="end" transform="translate(149,7) rotate(300) translate(0,3)" style="font-family: sans-serif; font-size: 10px; fill: #000; opacity: 1;">2015</text><text text-anchor="end" transform="translate(182.33333333333334,7) rotate(300) translate(0,3)" style="font-family: sans-serif; font-size: 10px; fill: #000; opacity: 1;">2016</text><text text-anchor="end" transform="translate(215.66666666666666,7) rotate(300) translate(0,3)" style="font-family: sans-serif; font-size: 10px; fill: #000; opacity: 1;">2017</text><text text-anchor="end" transform="translate(249,7) rotate(300) translate(0,3)" style="font-family: sans-serif; font-size: 10px; fill: #000; opacity: 1;">2018</text><text text-anchor="end" transform="translate(282.33333333333337,7) rotate(300) translate(0,3)" style="font-family: sans-serif; font-size: 10px; fill: #000; opacity: 1;">2019</text></g><g class="mark-rule role-axis-domain" style="pointer-events: none;"><line transform="translate(0,0)" x2="300" y2="0" style="fill: none; stroke: #888; stroke-width: 1; opacity: 1;"></line></g><g class="mark-text role-axis-title" style="pointer-events: none;"><text text-anchor="middle" transform="translate(150,43.28460969082653)" style="font-family: sans-serif; font-size: 11px; font-weight: bold; fill: #000; opacity: 1;">Jaar</text></g></g></g></g><g class="mark-group role-axis"><g transform="translate(0.5,0.5)"><path class="background" d="M0,0h0v0h0Z" style="pointer-events: none; fill: none;"></path><g><g class="mark-rule role-axis-tick" style="pointer-events: none;"><line transform="translate(0,300)" x2="-5" y2="0" style="fill: none; stroke: #888; stroke-width: 1; opacity: 1;"></line><line transform="translate(0,242)" x2="-5" y2="0" style="fill: none; stroke: #888; stroke-width: 1; opacity: 1;"></line><line transform="translate(0,185)" x2="-5" y2="0" style="fill: none; stroke: #888; stroke-width: 1; opacity: 1;"></line><line transform="translate(0,127)" x2="-5" y2="0" style="fill: none; stroke: #888; stroke-width: 1; opacity: 1;"></line><line transform="translate(0,69)" x2="-5" y2="0" style="fill: none; stroke: #888; stroke-width: 1; opacity: 1;"></line><line transform="translate(0,12)" x2="-5" y2="0" style="fill: none; stroke: #888; stroke-width: 1; opacity: 1;"></line></g><g class="mark-text role-axis-label" style="pointer-events: none;"><text text-anchor="end" transform="translate(-7,303)" style="font-family: sans-serif; font-size: 10px; fill: #000; opacity: 1;">-10</text><text text-anchor="end" transform="translate(-7,245.30769230769232)" style="font-family: sans-serif; font-size: 10px; fill: #000; opacity: 1;">-5</text><text text-anchor="end" transform="translate(-7,187.6153846153846)" style="font-family: sans-serif; font-size: 10px; fill: #000; opacity: 1;">0</text><text text-anchor="end" transform="translate(-7,129.92307692307693)" style="font-family: sans-serif; font-size: 10px; fill: #000; opacity: 1;">5</text><text text-anchor="end" transform="translate(-7,72.23076923076923)" style="font-family: sans-serif; font-size: 10px; fill: #000; opacity: 1;">10</text><text text-anchor="end" transform="translate(-7,14.538461538461547)" style="font-family: sans-serif; font-size: 10px; fill: #000; opacity: 1;">15</text></g><g class="mark-rule role-axis-domain" style="pointer-events: none;"><line transform="translate(0,300)" x2="0" y2="-300" style="fill: none; stroke: #888; stroke-width: 1; opacity: 1;"></line></g><g class="mark-text role-axis-title" style="pointer-events: none;"><text text-anchor="middle" transform="translate(-27,150) rotate(-90) translate(0,-2)" style="font-family: sans-serif; font-size: 11px; font-weight: bold; fill: #000; opacity: 1;">Vertrouwen (rekenkundig gemiddelde kwartalen)</text></g></g></g></g></g></g></g></g></svg>