<svg class="marks" width="853" height="309" viewBox="0 0 853 309" version="1.1" xmlns="http://www.w3.org/2000/svg" xmlns:xlink="http://www.w3.org/1999/xlink"><g transform="translate(74,22)"><g class="mark-group role-frame root"><g transform="translate(0,0)"><path class="background" d="M0.5,0.5h700v250h-700Z" style="fill: none; stroke: #ddd;"></path><g><g class="mark-group role-axis"><g transform="translate(0.5,250.5)"><path class="background" d="M0,0h0v0h0Z" style="pointer-events: none; fill: none;"></path><g><g class="mark-rule role-axis-grid" style="pointer-events: none;"><line transform="translate(0,0)" x2="0" y2="-250" style="fill: none; stroke: #ddd; stroke-width: 1; opacity: 1;"></line><line transform="translate(32,0)" x2="0" y2="-250" style="fill: none; stroke: #ddd; stroke-width: 1; opacity: 1;"></line><line transform="translate(64,0)" x2="0" y2="-250" style="fill: none; stroke: #ddd; stroke-width: 1; opacity: 1;"></line><line transform="translate(95,0)" x2="0" y2="-250" style="fill: none; stroke: #ddd; stroke-width: 1; opacity: 1;"></line><line transform="translate(127,0)" x2="0" y2="-250" style="fill: none; stroke: #ddd; stroke-width: 1; opacity: 1;"></line><line transform="translate(159,0)" x2="0" y2="-250" style="fill: none; stroke: #ddd; stroke-width: 1; opacity: 1;"></line><line transform="translate(191,0)" x2="0" y2="-250" style="fill: none; stroke: #ddd; stroke-width: 1; opacity: 1;"></line><line transform="translate(223,0)" x2="0" y2="-250" style="fill: none; stroke: #ddd; stroke-width: 1; opacity: 1;"></line><line transform="translate(255,0)" x2="0" y2="-250" style="fill: none; stroke: #ddd; stroke-width: 1; opacity: 1;"></line><line transform="translate(286,0)" x2="0" y2="-250" style="fill: none; stroke: #ddd; stroke-width: 1; opacity: 1;"></line><line transform="translate(318,0)" x2="0" y2="-250" style="fill: none; stroke: #ddd; stroke-width: 1; opacity: 1;"></line><line transform="translate(350,0)" x2="0" y2="-250" style="fill: none; stroke: #ddd; stroke-width: 1; opacity: 1;"></line><line transform="translate(382,0)" x2="0" y2="-250" style="fill: none; stroke: #ddd; stroke-width: 1; opacity: 1;"></line><line transform="translate(414,0)" x2="0" y2="-250" style="fill: none; stroke: #ddd; stroke-width: 1; opacity: 1;"></line><line transform="translate(445,0)" x2="0" y2="-250" style="fill: none; stroke: #ddd; stroke-width: 1; opacity: 1;"></line><line transform="translate(477,0)" x2="0" y2="-250" style="fill: none; stroke: #ddd; stroke-width: 1; opacity: 1;"></line><line transform="translate(509,0)" x2="0" y2="-250" style="fill: none; stroke: #ddd; stroke-width: 1; opacity: 1;"></line><line transform="translate(541,0)" x2="0" y2="-250" style="fill: none; stroke: #ddd; stroke-width: 1; opacity: 1;"></line><line transform="translate(573,0)" x2="0" y2="-250" style="fill: none; stroke: #ddd; stroke-width: 1; opacity: 1;"></line><line transform="translate(605,0)" x2="0" y2="-250" style="fill: none; stroke: #ddd; stroke-width: 1; opacity: 1;"></line><line transform="translate(636,0)" x2="0" y2="-250" style="fill: none; stroke: #ddd; stroke-width: 1; opacity: 1;"></line><line transform="translate(668,0)" x2="0" y2="-250" style="fill: none; stroke: #ddd; stroke-width: 1; opacity: 1;"></line><line transform="translate(700,0)" x2="0" y2="-250" style="fill: none; stroke: #ddd; stroke-width: 1; opacity: 1;"></line></g></g></g></g><g class="mark-rect role-mark marks"><path d="M423.5954545454545,202.5h82.66363636363639v45h-82.66363636363639Z" style="fill: #72b7b2;"></path><path d="M311.21363636363634,152.5h113.75000000000006v45h-113.75000000000006Z" style="fill: #e45756;"></path><path d="M46.13636363636363,52.499999999999986h20.618181818181817v45h-20.618181818181817Z" style="fill: #54a24b;"></path><path d="M47.28181818181818,152.5h106.81363636363636v45h-106.81363636363636Z" style="fill: #eeca3b;"></path><path d="M66.75454545454545,52.499999999999986h34.39545454545454v45h-34.39545454545454Z" style="fill: #72b7b2;"></path><path d="M0,102.49999999999999h39.29545454545455v45h-39.29545454545455Z" style="fill: #ff9da6;"></path><path d="M39.29545454545455,102.49999999999999h25.10454545454546v45h-25.10454545454546Z" style="fill: #b279a2;"></path><path d="M270.1363636363636,102.49999999999999h103.09090909090912v45h-103.09090909090912Z" style="fill: #e45756;"></path><path d="M2.7363636363636363,2.499999999999986h8.304545454545453v45h-8.304545454545453Z" style="fill: #eeca3b;"></path><path d="M146.8409090909091,102.49999999999999h56.47727272727272v45h-56.47727272727272Z" style="fill: #54a24b;"></path><path d="M101.14999999999999,52.499999999999986h49.63636363636364v45h-49.63636363636364Z" style="fill: #e45756;"></path><path d="M309.4,202.5h114.19545454545454v45h-114.19545454545454Z" style="fill: #54a24b;"></path><path d="M217.3818181818182,152.5h93.83181818181814v45h-93.83181818181814Z" style="fill: #72b7b2;"></path><path d="M432.28181818181815,152.5h6.522727272727309v45h-6.522727272727309Z" style="fill: #4c78a8;"></path><path d="M64.4,102.49999999999999h82.44090909090909v45h-82.44090909090909Z" style="fill: #eeca3b;"></path><path d="M154.09545454545454,152.5h63.28636363636366v45h-63.28636363636366Z" style="fill: #54a24b;"></path><path d="M506.2590909090909,202.5h136.24545454545455v45h-136.24545454545455Z" style="fill: #e45756;"></path><path d="M15.01818181818182,52.499999999999986h31.118181818181814v45h-31.118181818181814Z" style="fill: #eeca3b;"></path><path d="M203.3181818181818,102.49999999999999h66.81818181818181v45h-66.81818181818181Z" style="fill: #72b7b2;"></path><path d="M0,202.5h82.91818181818182v45h-82.91818181818182Z" style="fill: #ff9da6;"></path><path d="M82.91818181818182,202.5h65.13181818181816v45h-65.13181818181816Z" style="fill: #b279a2;"></path><path d="M27.68181818181818,152.5h19.6v45h-19.6Z" style="fill: #b279a2;"></path><path d="M9.1,52.499999999999986h5.91818181818182v45h-5.91818181818182Z" style="fill: #b279a2;"></path><path d="M0,152.5h27.68181818181818v45h-27.68181818181818Z" style="fill: #ff9da6;"></path><path d="M16.45,2.499999999999986h14.827272727272728v45h-14.827272727272728Z" style="fill: #72b7b2;"></path><path d="M148.04999999999998,202.5h161.35v45h-161.35Z" style="fill: #eeca3b;"></path><path d="M0,52.499999999999986h9.1v45h-9.1Z" style="fill: #ff9da6;"></path><path d="M381.75454545454545,102.49999999999999h2.672727272727286v45h-2.672727272727286Z" style="fill: #4c78a8;"></path><path d="M31.277272727272727,2.499999999999986h12.98181818181818v45h-12.98181818181818Z" style="fill: #e45756;"></path><path d="M642.5045454545455,202.5h38.563636363636306v45h-38.563636363636306Z" style="fill: #f58518;"></path><path d="M44.54545454545454,2.499999999999986h6.681818181818187v45h-6.681818181818187Z" style="fill: #4c78a8;"></path><path d="M424.9636363636364,152.5h7.318181818181756v45h-7.318181818181756Z" style="fill: #f58518;"></path><path d="M2.1954545454545453,2.499999999999986h0.540909090909091v45h-0.540909090909091Z" style="fill: #b279a2;"></path><path d="M373.22727272727275,102.49999999999999h8.527272727272702v45h-8.527272727272702Z" style="fill: #f58518;"></path><path d="M11.04090909090909,2.499999999999986h5.40909090909091v45h-5.40909090909091Z" style="fill: #54a24b;"></path><path d="M681.0681818181818,202.5h4.6454545454546405v45h-4.6454545454546405Z" style="fill: #4c78a8;"></path><path d="M153.04545454545453,52.499999999999986h3.054545454545462v45h-3.054545454545462Z" style="fill: #4c78a8;"></path><path d="M44.25909090909091,2.499999999999986h0.2863636363636317v45h-0.2863636363636317Z" style="fill: #f58518;"></path><path d="M0,2.499999999999986h2.1954545454545453v45h-2.1954545454545453Z" style="fill: #ff9da6;"></path><path d="M150.78636363636363,52.499999999999986h2.259090909090901v45h-2.259090909090901Z" style="fill: #f58518;"></path></g><g class="mark-group role-legend"><g transform="translate(718,0)"><path class="background" d="M0,0h56v118h-56Z" style="pointer-events: none; fill: none;"></path><g><g class="mark-group role-legend-entry"><g transform="translate(0,16)"><path class="background" d="M0,0h0v0h0Z" style="pointer-events: none; fill: none;"></path><g><g class="mark-group role-scope"><g transform="translate(0,0)"><path class="background" d="M0,0h39.95833396911621v11h-39.95833396911621Z" style="pointer-events: none; fill: none; opacity: 1;"></path><g><g class="mark-symbol role-legend-symbol" style="pointer-events: none;"><path transform="translate(6,6)" d="M-5,-5h10v10h-10Z" style="fill: #4c78a8; stroke-width: 1.5; opacity: 1;"></path></g><g class="mark-text role-legend-label" style="pointer-events: none;"><text text-anchor="start" transform="translate(16,9)" style="font-family: sans-serif; font-size: 10px; fill: #000; opacity: 1;">I1</text></g></g></g><g transform="translate(0,13)"><path class="background" d="M0,0h39.95833396911621v11h-39.95833396911621Z" style="pointer-events: none; fill: none; opacity: 1;"></path><g><g class="mark-symbol role-legend-symbol" style="pointer-events: none;"><path transform="translate(6,6)" d="M-5,-5h10v10h-10Z" style="fill: #f58518; stroke-width: 1.5; opacity: 1;"></path></g><g class="mark-text role-legend-label" style="pointer-events: none;"><text text-anchor="start" transform="translate(16,9)" style="font-family: sans-serif; font-size: 10px; fill: #000; opacity: 1;">IF</text></g></g></g><g transform="translate(0,26)"><path class="background" d="M0,0h39.95833396911621v11h-39.95833396911621Z" style="pointer-events: none; fill: none; opacity: 1;"></path><g><g class="mark-symbol role-legend-symbol" style="pointer-events: none;"><path transform="translate(6,6)" d="M-5,-5h10v10h-10Z" style="fill: #e45756; stroke-width: 1.5; opacity: 1;"></path></g><g class="mark-text role-legend-label" style="pointer-events: none;"><text text-anchor="start" transform="translate(16,9)" style="font-family: sans-serif; font-size: 10px; fill: #000; opacity: 1;">SI1</text></g></g></g><g transform="translate(0,39)"><path class="background" d="M0,0h39.95833396911621v11h-39.95833396911621Z" style="pointer-events: none; fill: none; opacity: 1;"></path><g><g class="mark-symbol role-legend-symbol" style="pointer-events: none;"><path transform="translate(6,6)" d="M-5,-5h10v10h-10Z" style="fill: #72b7b2; stroke-width: 1.5; opacity: 1;"></path></g><g class="mark-text role-legend-label" style="pointer-events: none;"><text text-anchor="start" transform="translate(16,9)" style="font-family: sans-serif; font-size: 10px; fill: #000; opacity: 1;">SI2</text></g></g></g><g transform="translate(0,52)"><path class="background" d="M0,0h39.95833396911621v11h-39.95833396911621Z" style="pointer-events: none; fill: none; opacity: 1;"></path><g><g class="mark-symbol role-legend-symbol" style="pointer-events: none;"><path transform="translate(6,6)" d="M-5,-5h10v10h-10Z" style="fill: #54a24b; stroke-width: 1.5; opacity: 1;"></path></g><g class="mark-text role-legend-label" style="pointer-events: none;"><text text-anchor="start" transform="translate(16,9)" style="font-family: sans-serif; font-size: 10px; fill: #000; opacity: 1;">VS1</text></g></g></g><g transform="translate(0,65)"><path class="background" d="M0,0h39.95833396911621v11h-39.95833396911621Z" style="pointer-events: none; fill: none; opacity: 1;"></path><g><g class="mark-symbol role-legend-symbol" style="pointer-events: none;"><path transform="translate(6,6)" d="M-5,-5h10v10h-10Z" style="fill: #eeca3b; stroke-width: 1.5; opacity: 1;"></path></g><g class="mark-text role-legend-label" style="pointer-events: none;"><text text-anchor="start" transform="translate(16,9)" style="font-family: sans-serif; font-size: 10px; fill: #000; opacity: 1;">VS2</text></g></g></g><g transform="translate(0,78)"><path class="background" d="M0,0h39.95833396911621v11h-39.95833396911621Z" style="pointer-events: none; fill: none; opacity: 1;"></path><g><g class="mark-symbol role-legend-symbol" style="pointer-events: none;"><path transform="translate(6,6)" d="M-5,-5h10v10h-10Z" style="fill: #b279a2; stroke-width: 1.5; opacity: 1;"></path></g><g class="mark-text role-legend-label" style="pointer-events: none;"><text text-anchor="start" transform="translate(16,9)" style="font-family: sans-serif; font-size: 10px; fill: #000; opacity: 1;">VVS1</text></g></g></g><g transform="translate(0,91)"><path class="background" d="M0,0h39.95833396911621v11h-39.95833396911621Z" style="pointer-events: none; fill: none; opacity: 1;"></path><g><g class="mark-symbol role-legend-symbol" style="pointer-events: none;"><path transform="translate(6,6)" d="M-5,-5h10v10h-10Z" style="fill: #ff9da6; stroke-width: 1.5; opacity: 1;"></path></g><g class="mark-text role-legend-label" style="pointer-events: none;"><text text-anchor="start" transform="translate(16,9)" style="font-family: sans-serif; font-size: 10px; fill: #000; opacity: 1;">VVS2</text></g></g></g></g></g></g></g><g class="mark-text role-legend-title" style="pointer-events: none;"><text text-anchor="start" transform="translate(0,9)" style="font-family: sans-serif; font-size: 11px; font-weight: bold; fill: #000; opacity: 1;">Zuiverheid</text></g></g></g></g><g class="mark-text role-title" style="pointer-events: none;"><text text-anchor="middle" transform="translate(350,-7)" style="font-family: sans-serif; font-size: 13px; font-weight: bold; fill: #000; opacity: 1;">Diamantattributen (bron: ggplot, diamonds)</text></g><g class="mark-group role-axis"><g transform="translate(0.5,250.5)"><path class="background" d="M0,0h0v0h0Z" style="pointer-events: none; fill: none;"></path><g><g class="mark-rule role-axis-tick" style="pointer-events: none;"><line transform="translate(0,0)" x2="0" y2="5" style="fill: none; stroke: #888; stroke-width: 1; opacity: 1;"></line><line transform="translate(32,0)" x2="0" y2="5" style="fill: none; stroke: #888; stroke-width: 1; opacity: 1;"></line><line transform="translate(64,0)" x2="0" y2="5" style="fill: none; stroke: #888; stroke-width: 1; opacity: 1;"></line><line transform="translate(95,0)" x2="0" y2="5" style="fill: none; stroke: #888; stroke-width: 1; opacity: 1;"></line><line transform="translate(127,0)" x2="0" y2="5" style="fill: none; stroke: #888; stroke-width: 1; opacity: 1;"></line><line transform="translate(159,0)" x2="0" y2="5" style="fill: none; stroke: #888; stroke-width: 1; opacity: 1;"></line><line transform="translate(191,0)" x2="0" y2="5" style="fill: none; stroke: #888; stroke-width: 1; opacity: 1;"></line><line transform="translate(223,0)" x2="0" y2="5" style="fill: none; stroke: #888; stroke-width: 1; opacity: 1;"></line><line transform="translate(255,0)" x2="0" y2="5" style="fill: none; stroke: #888; stroke-width: 1; opacity: 1;"></line><line transform="translate(286,0)" x2="0" y2="5" style="fill: none; stroke: #888; stroke-width: 1; opacity: 1;"></line><line transform="translate(318,0)" x2="0" y2="5" style="fill: none; stroke: #888; stroke-width: 1; opacity: 1;"></line><line transform="translate(350,0)" x2="0" y2="5" style="fill: none; stroke: #888; stroke-width: 1; opacity: 1;"></line><line transform="translate(382,0)" x2="0" y2="5" style="fill: none; stroke: #888; stroke-width: 1; opacity: 1;"></line><line transform="translate(414,0)" x2="0" y2="5" style="fill: none; stroke: #888; stroke-width: 1; opacity: 1;"></line><line transform="translate(445,0)" x2="0" y2="5" style="fill: none; stroke: #888; stroke-width: 1; opacity: 1;"></line><line transform="translate(477,0)" x2="0" y2="5" style="fill: none; stroke: #888; stroke-width: 1; opacity: 1;"></line><line transform="translate(509,0)" x2="0" y2="5" style="fill: none; stroke: #888; stroke-width: 1; opacity: 1;"></line><line transform="translate(541,0)" x2="0" y2="5" style="fill: none; stroke: #888; stroke-width: 1; opacity: 1;"></line><line transform="translate(573,0)" x2="0" y2="5" style="fill: none; stroke: #888; stroke-width: 1; opacity: 1;"></line><line transform="translate(605,0)" x2="0" y2="5" style="fill: none; stroke: #888; stroke-width: 1; opacity: 1;"></line><line transform="translate(636,0)" x2="0" y2="5" style="fill: none; stroke: #888; stroke-width: 1; opacity: 1;"></line><line transform="translate(668,0)" x2="0" y2="5" style="fill: none; stroke: #888; stroke-width: 1; opacity: 1;"></line><line transform="translate(700,0)" x2="0" y2="5" style="fill: none; stroke: #888; stroke-width: 1; opacity: 1;"></line></g><g class="mark-text role-axis-label" style="pointer-events: none;"><text text-anchor="start" transform="translate(0,15)" style="font-family: sans-serif; font-size: 10px; fill: #000; opacity: 1;">0</text><text text-anchor="middle" transform="translate(31.81818181818182,15)" style="font-family: sans-serif; font-size: 10px; fill: #000; opacity: 0;">1,000</text><text text-anchor="middle" transform="translate(63.63636363636364,15)" style="font-family: sans-serif; font-size: 10px; fill: #000; opacity: 1;">2,000</text><text text-anchor="middle" transform="translate(95.45454545454545,15)" style="font-family: sans-serif; font-size: 10px; fill: #000; opacity: 0;">3,000</text><text text-anchor="middle" transform="translate(127.27272727272728,15)" style="font-family: sans-serif; font-size: 10px; fill: #000; opacity: 1;">4,000</text><text text-anchor="middle" transform="translate(159.0909090909091,15)" style="font-family: sans-serif; font-size: 10px; fill: #000; opacity: 0;">5,000</text><text text-anchor="middle" transform="translate(190.9090909090909,15)" style="font-family: sans-serif; font-size: 10px; fill: #000; opacity: 1;">6,000</text><text text-anchor="middle" transform="translate(222.72727272727272,15)" style="font-family: sans-serif; font-size: 10px; fill: #000; opacity: 0;">7,000</text><text text-anchor="middle" transform="translate(254.54545454545456,15)" style="font-family: sans-serif; font-size: 10px; fill: #000; opacity: 1;">8,000</text><text text-anchor="middle" transform="translate(286.3636363636364,15)" style="font-family: sans-serif; font-size: 10px; fill: #000; opacity: 0;">9,000</text><text text-anchor="middle" transform="translate(318.1818181818182,15)" style="font-family: sans-serif; font-size: 10px; fill: #000; opacity: 1;">10,000</text><text text-anchor="middle" transform="translate(350,15)" style="font-family: sans-serif; font-size: 10px; fill: #000; opacity: 0;">11,000</text><text text-anchor="middle" transform="translate(381.8181818181818,15)" style="font-family: sans-serif; font-size: 10px; fill: #000; opacity: 1;">12,000</text><text text-anchor="middle" transform="translate(413.6363636363637,15)" style="font-family: sans-serif; font-size: 10px; fill: #000; opacity: 0;">13,000</text><text text-anchor="middle" transform="translate(445.45454545454544,15)" style="font-family: sans-serif; font-size: 10px; fill: #000; opacity: 1;">14,000</text><text text-anchor="middle" transform="translate(477.27272727272725,15)" style="font-family: sans-serif; font-size: 10px; fill: #000; opacity: 0;">15,000</text><text text-anchor="middle" transform="translate(509.0909090909091,15)" style="font-family: sans-serif; font-size: 10px; fill: #000; opacity: 1;">16,000</text><text text-anchor="middle" transform="translate(540.9090909090909,15)" style="font-family: sans-serif; font-size: 10px; fill: #000; opacity: 0;">17,000</text><text text-anchor="middle" transform="translate(572.7272727272727,15)" style="font-family: sans-serif; font-size: 10px; fill: #000; opacity: 1;">18,000</text><text text-anchor="middle" transform="translate(604.5454545454545,15)" style="font-family: sans-serif; font-size: 10px; fill: #000; opacity: 0;">19,000</text><text text-anchor="middle" transform="translate(636.3636363636364,15)" style="font-family: sans-serif; font-size: 10px; fill: #000; opacity: 1;">20,000</text><text text-anchor="middle" transform="translate(668.1818181818182,15)" style="font-family: sans-serif; font-size: 10px; fill: #000; opacity: 0;">21,000</text><text text-anchor="end" transform="translate(700,15)" style="font-family: sans-serif; font-size: 10px; fill: #000; opacity: 1;">22,000</text></g><g class="mark-rule role-axis-domain" style="pointer-events: none;"><line transform="translate(0,0)" x2="700" y2="0" style="fill: none; stroke: #888; stroke-width: 1; opacity: 1;"></line></g><g class="mark-text role-axis-title" style="pointer-events: none;"><text text-anchor="middle" transform="translate(350,30)" style="font-family: sans-serif; font-size: 11px; font-weight: bold; fill: #000; opacity: 1;">Frequentie</text></g></g></g></g><g class="mark-group role-axis"><g transform="translate(0.5,0.5)"><path class="background" d="M0,0h0v0h0Z" style="pointer-events: none; fill: none;"></path><g><g class="mark-rule role-axis-tick" style="pointer-events: none;"><line transform="translate(0,24)" x2="-5" y2="0" style="fill: none; stroke: #888; stroke-width: 1; opacity: 1;"></line><line transform="translate(0,74)" x2="-5" y2="0" style="fill: none; stroke: #888; stroke-width: 1; opacity: 1;"></line><line transform="translate(0,124)" x2="-5" y2="0" style="fill: none; stroke: #888; stroke-width: 1; opacity: 1;"></line><line transform="translate(0,174)" x2="-5" y2="0" style="fill: none; stroke: #888; stroke-width: 1; opacity: 1;"></line><line transform="translate(0,224)" x2="-5" y2="0" style="fill: none; stroke: #888; stroke-width: 1; opacity: 1;"></line></g><g class="mark-text role-axis-label" style="pointer-events: none;"><text text-anchor="end" transform="translate(-7,26.999999999999986)" style="font-family: sans-serif; font-size: 10px; fill: #000; opacity: 1;">Redelijk</text><text text-anchor="end" transform="translate(-7,76.99999999999999)" style="font-family: sans-serif; font-size: 10px; fill: #000; opacity: 1;">Goed</text><text text-anchor="end" transform="translate(-7,126.99999999999999)" style="font-family: sans-serif; font-size: 10px; fill: #000; opacity: 1;">Zeer Goed</text><text text-anchor="end" transform="translate(-7,177)" style="font-family: sans-serif; font-size: 10px; fill: #000; opacity: 1;">Premium</text><text text-anchor="end" transform="translate(-7,227)" style="font-family: sans-serif; font-size: 10px; fill: #000; opacity: 1;">Ideaal</text></g><g class="mark-rule role-axis-domain" style="pointer-events: none;"><line transform="translate(0,0)" x2="0" y2="250" style="fill: none; stroke: #888; stroke-width: 1; opacity: 1;"></line></g><g class="mark-text role-axis-title" style="pointer-events: none;"><text text-anchor="middle" transform="translate(-57.625,125) rotate(-90) translate(0,-2)" style="font-family: sans-serif; font-size: 11px; font-weight: bold; fill: #000; opacity: 1;">Maaksel</text></g></g></g></g></g></g></g></g></svg>