<svg class="marks" width="869" height="309" viewBox="0 0 869 309" version="1.1" xmlns="http://www.w3.org/2000/svg" xmlns:xlink="http://www.w3.org/1999/xlink"><g transform="translate(74,22)"><g class="mark-group role-frame root"><g transform="translate(0,0)"><path class="background" d="M0.5,0.5h700v250h-700Z" style="fill: none; stroke: #ddd;"></path><g><g class="mark-group role-axis"><g transform="translate(0.5,250.5)"><path class="background" d="M0,0h0v0h0Z" style="pointer-events: none; fill: none;"></path><g><g class="mark-rule role-axis-grid" style="pointer-events: none;"><line transform="translate(0,0)" x2="0" y2="-250" style="fill: none; stroke: #ddd; stroke-width: 1; opacity: 1;"></line><line transform="translate(32,0)" x2="0" y2="-250" style="fill: none; stroke: #ddd; stroke-width: 1; opacity: 1;"></line><line transform="translate(64,0)" x2="0" y2="-250" style="fill: none; stroke: #ddd; stroke-width: 1; opacity: 1;"></line><line transform="translate(95,0)" x2="0" y2="-250" style="fill: none; stroke: #ddd; stroke-width: 1; opacity: 1;"></line><line transform="translate(127,0)" x2="0" y2="-250" style="fill: none; stroke: #ddd; stroke-width: 1; opacity: 1;"></line><line transform="translate(159,0)" x2="0" y2="-250" style="fill: none; stroke: #ddd; stroke-width: 1; opacity: 1;"></line><line transform="translate(191,0)" x2="0" y2="-250" style="fill: none; stroke: #ddd; stroke-width: 1; opacity: 1;"></line><line transform="translate(223,0)" x2="0" y2="-250" style="fill: none; stroke: #ddd; stroke-width: 1; opacity: 1;"></line><line transform="translate(255,0)" x2="0" y2="-250" style="fill: none; stroke: #ddd; stroke-width: 1; opacity: 1;"></line><line transform="translate(286,0)" x2="0" y2="-250" style="fill: none; stroke: #ddd; stroke-width: 1; opacity: 1;"></line><line transform="translate(318,0)" x2="0" y2="-250" style="fill: none; stroke: #ddd; stroke-width: 1; opacity: 1;"></line><line transform="translate(350,0)" x2="0" y2="-250" style="fill: none; stroke: #ddd; stroke-width: 1; opacity: 1;"></line><line transform="translate(382,0)" x2="0" y2="-250" style="fill: none; stroke: #ddd; stroke-width: 1; opacity: 1;"></line><line transform="translate(414,0)" x2="0" y2="-250" style="fill: none; stroke: #ddd; stroke-width: 1; opacity: 1;"></line><line transform="translate(445,0)" x2="0" y2="-250" style="fill: none; stroke: #ddd; stroke-width: 1; opacity: 1;"></line><line transform="translate(477,0)" x2="0" y2="-250" style="fill: none; stroke: #ddd; stroke-width: 1; opacity: 1;"></line><line transform="translate(509,0)" x2="0" y2="-250" style="fill: none; stroke: #ddd; stroke-width: 1; opacity: 1;"></line><line transform="translate(541,0)" x2="0" y2="-250" style="fill: none; stroke: #ddd; stroke-width: 1; opacity: 1;"></line><line transform="translate(573,0)" x2="0" y2="-250" style="fill: none; stroke: #ddd; stroke-width: 1; opacity: 1;"></line><line transform="translate(605,0)" x2="0" y2="-250" style="fill: none; stroke: #ddd; stroke-width: 1; opacity: 1;"></line><line transform="translate(636,0)" x2="0" y2="-250" style="fill: none; stroke: #ddd; stroke-width: 1; opacity: 1;"></line><line transform="translate(668,0)" x2="0" y2="-250" style="fill: none; stroke: #ddd; stroke-width: 1; opacity: 1;"></line><line transform="translate(700,0)" x2="0" y2="-250" style="fill: none; stroke: #ddd; stroke-width: 1; opacity: 1;"></line></g></g></g></g><g class="mark-rect role-mark marks"><path d="M471.3545454545455,202.5h124.18636363636358v45h-124.18636363636358Z" style="fill: #f58518;"></path><path d="M313.4409090909091,152.5h74.35909090909092v45h-74.35909090909092Z" style="fill: #f58518;"></path><path d="M105.35,52.499999999999986h29.686363636363637v45h-29.686363636363637Z" style="fill: #f58518;"></path><path d="M25.709090909090907,152.5h45.43636363636364v45h-45.43636363636364Z" style="fill: #eeca3b;"></path><path d="M0,52.499999999999986h9.768181818181818v45h-9.768181818181818Z" style="fill: #b279a2;"></path><path d="M0,102.49999999999999h21.57272727272727v45h-21.57272727272727Z" style="fill: #b279a2;"></path><path d="M21.57272727272727,102.49999999999999h38.30909090909091v45h-38.30909090909091Z" style="fill: #eeca3b;"></path><path d="M59.88181818181818,102.49999999999999h58.03636363636364v45h-58.03636363636364Z" style="fill: #54a24b;"></path><path d="M38.913636363636364,2.499999999999986h7.127272727272725v45h-7.127272727272725Z" style="fill: #f58518;"></path><path d="M0,202.5h28.50909090909091v45h-28.50909090909091Z" style="fill: #b279a2;"></path><path d="M239.27272727272725,152.5h74.16818181818184v45h-74.16818181818184Z" style="fill: #e45756;"></path><path d="M28.50909090909091,202.5h66.59545454545453v45h-66.59545454545453Z" style="fill: #eeca3b;"></path><path d="M9.768181818181818,52.499999999999986h16.60909090909091v45h-16.60909090909091Z" style="fill: #eeca3b;"></path><path d="M259.9227272727273,102.49999999999999h76.36363636363632v45h-76.36363636363632Z" style="fill: #f58518;"></path><path d="M117.91818181818182,102.49999999999999h73.14999999999999v45h-73.14999999999999Z" style="fill: #72b7b2;"></path><path d="M336.2863636363636,102.49999999999999h48.14090909090913v45h-48.14090909090913Z" style="fill: #4c78a8;"></path><path d="M191.0681818181818,102.49999999999999h68.85454545454547v45h-68.85454545454547Z" style="fill: #e45756;"></path><path d="M76.42727272727274,52.499999999999986h28.922727272727258v45h-28.922727272727258Z" style="fill: #e45756;"></path><path d="M26.37727272727273,52.499999999999986h22.336363636363632v45h-22.336363636363632Z" style="fill: #54a24b;"></path><path d="M135.03636363636363,52.499999999999986h21.063636363636363v45h-21.063636363636363Z" style="fill: #4c78a8;"></path><path d="M194.21818181818182,202.5h155.4v45h-155.4Z" style="fill: #72b7b2;"></path><path d="M387.8,152.5h51.00454545454545v45h-51.00454545454545Z" style="fill: #4c78a8;"></path><path d="M0,152.5h25.709090909090907v45h-25.709090909090907Z" style="fill: #b279a2;"></path><path d="M595.540909090909,202.5h90.17272727272734v45h-90.17272727272734Z" style="fill: #4c78a8;"></path><path d="M146.23636363636362,152.5h93.03636363636363v45h-93.03636363636363Z" style="fill: #72b7b2;"></path><path d="M71.14545454545454,152.5h75.09090909090908v45h-75.09090909090908Z" style="fill: #54a24b;"></path><path d="M28.986363636363638,2.499999999999986h9.927272727272726v45h-9.927272727272726Z" style="fill: #e45756;"></path><path d="M349.6181818181818,202.5h121.73636363636365v45h-121.73636363636365Z" style="fill: #e45756;"></path><path d="M9.354545454545455,2.499999999999986h9.64090909090909v45h-9.64090909090909Z" style="fill: #54a24b;"></path><path d="M95.10454545454544,202.5h99.11363636363637v45h-99.11363636363637Z" style="fill: #54a24b;"></path><path d="M48.71363636363636,52.499999999999986h27.713636363636375v45h-27.713636363636375Z" style="fill: #72b7b2;"></path><path d="M18.995454545454546,2.499999999999986h9.990909090909092v45h-9.990909090909092Z" style="fill: #72b7b2;"></path><path d="M0,2.499999999999986h3.7863636363636366v45h-3.7863636363636366Z" style="fill: #b279a2;"></path><path d="M3.7863636363636366,2.499999999999986h5.568181818181818v45h-5.568181818181818Z" style="fill: #eeca3b;"></path><path d="M46.04090909090909,2.499999999999986h5.186363636363637v45h-5.186363636363637Z" style="fill: #4c78a8;"></path></g><g class="mark-group role-legend"><g transform="translate(718,0)"><path class="background" d="M0,0h72v105h-72Z" style="pointer-events: none; fill: none;"></path><g><g class="mark-group role-legend-entry"><g transform="translate(0,16)"><path class="background" d="M0,0h0v0h0Z" style="pointer-events: none; fill: none;"></path><g><g class="mark-group role-scope"><g transform="translate(0,0)"><path class="background" d="M0,0h71.25v11h-71.25Z" style="pointer-events: none; fill: none; opacity: 1;"></path><g><g class="mark-symbol role-legend-symbol" style="pointer-events: none;"><path transform="translate(6,6)" d="M-5,-5h10v10h-10Z" style="fill: #4c78a8; stroke-width: 1.5; opacity: 1;"></path></g><g class="mark-text role-legend-label" style="pointer-events: none;"><text text-anchor="start" transform="translate(16,9)" style="font-family: sans-serif; font-size: 10px; fill: #000; opacity: 1;">D (beste)</text></g></g></g><g transform="translate(0,13)"><path class="background" d="M0,0h71.25v11h-71.25Z" style="pointer-events: none; fill: none; opacity: 1;"></path><g><g class="mark-symbol role-legend-symbol" style="pointer-events: none;"><path transform="translate(6,6)" d="M-5,-5h10v10h-10Z" style="fill: #f58518; stroke-width: 1.5; opacity: 1;"></path></g><g class="mark-text role-legend-label" style="pointer-events: none;"><text text-anchor="start" transform="translate(16,9)" style="font-family: sans-serif; font-size: 10px; fill: #000; opacity: 1;">E</text></g></g></g><g transform="translate(0,26)"><path class="background" d="M0,0h71.25v11h-71.25Z" style="pointer-events: none; fill: none; opacity: 1;"></path><g><g class="mark-symbol role-legend-symbol" style="pointer-events: none;"><path transform="translate(6,6)" d="M-5,-5h10v10h-10Z" style="fill: #e45756; stroke-width: 1.5; opacity: 1;"></path></g><g class="mark-text role-legend-label" style="pointer-events: none;"><text text-anchor="start" transform="translate(16,9)" style="font-family: sans-serif; font-size: 10px; fill: #000; opacity: 1;">F</text></g></g></g><g transform="translate(0,39)"><path class="background" d="M0,0h71.25v11h-71.25Z" style="pointer-events: none; fill: none; opacity: 1;"></path><g><g class="mark-symbol role-legend-symbol" style="pointer-events: none;"><path transform="translate(6,6)" d="M-5,-5h10v10h-10Z" style="fill: #72b7b2; stroke-width: 1.5; opacity: 1;"></path></g><g class="mark-text role-legend-label" style="pointer-events: none;"><text text-anchor="start" transform="translate(16,9)" style="font-family: sans-serif; font-size: 10px; fill: #000; opacity: 1;">G</text></g></g></g><g transform="translate(0,52)"><path class="background" d="M0,0h71.25v11h-71.25Z" style="pointer-events: none; fill: none; opacity: 1;"></path><g><g class="mark-symbol role-legend-symbol" style="pointer-events: none;"><path transform="translate(6,6)" d="M-5,-5h10v10h-10Z" style="fill: #54a24b; stroke-width: 1.5; opacity: 1;"></path></g><g class="mark-text role-legend-label" style="pointer-events: none;"><text text-anchor="start" transform="translate(16,9)" style="font-family: sans-serif; font-size: 10px; fill: #000; opacity: 1;">H</text></g></g></g><g transform="translate(0,65)"><path class="background" d="M0,0h71.25v11h-71.25Z" style="pointer-events: none; fill: none; opacity: 1;"></path><g><g class="mark-symbol role-legend-symbol" style="pointer-events: none;"><path transform="translate(6,6)" d="M-5,-5h10v10h-10Z" style="fill: #eeca3b; stroke-width: 1.5; opacity: 1;"></path></g><g class="mark-text role-legend-label" style="pointer-events: none;"><text text-anchor="start" transform="translate(16,9)" style="font-family: sans-serif; font-size: 10px; fill: #000; opacity: 1;">I</text></g></g></g><g transform="translate(0,78)"><path class="background" d="M0,0h71.25v11h-71.25Z" style="pointer-events: none; fill: none; opacity: 1;"></path><g><g class="mark-symbol role-legend-symbol" style="pointer-events: none;"><path transform="translate(6,6)" d="M-5,-5h10v10h-10Z" style="fill: #b279a2; stroke-width: 1.5; opacity: 1;"></path></g><g class="mark-text role-legend-label" style="pointer-events: none;"><text text-anchor="start" transform="translate(16,9)" style="font-family: sans-serif; font-size: 10px; fill: #000; opacity: 1;">J (slechtste)</text></g></g></g></g></g></g></g><g class="mark-text role-legend-title" style="pointer-events: none;"><text text-anchor="start" transform="translate(0,9)" style="font-family: sans-serif; font-size: 11px; font-weight: bold; fill: #000; opacity: 1;">Kleur</text></g></g></g></g><g class="mark-text role-title" style="pointer-events: none;"><text text-anchor="middle" transform="translate(350,-7)" style="font-family: sans-serif; font-size: 13px; font-weight: bold; fill: #000; opacity: 1;">Diamantattributen (bron: ggplot, diamonds)</text></g><g class="mark-group role-axis"><g transform="translate(0.5,250.5)"><path class="background" d="M0,0h0v0h0Z" style="pointer-events: none; fill: none;"></path><g><g class="mark-rule role-axis-tick" style="pointer-events: none;"><line transform="translate(0,0)" x2="0" y2="5" style="fill: none; stroke: #888; stroke-width: 1; opacity: 1;"></line><line transform="translate(32,0)" x2="0" y2="5" style="fill: none; stroke: #888; stroke-width: 1; opacity: 1;"></line><line transform="translate(64,0)" x2="0" y2="5" style="fill: none; stroke: #888; stroke-width: 1; opacity: 1;"></line><line transform="translate(95,0)" x2="0" y2="5" style="fill: none; stroke: #888; stroke-width: 1; opacity: 1;"></line><line transform="translate(127,0)" x2="0" y2="5" style="fill: none; stroke: #888; stroke-width: 1; opacity: 1;"></line><line transform="translate(159,0)" x2="0" y2="5" style="fill: none; stroke: #888; stroke-width: 1; opacity: 1;"></line><line transform="translate(191,0)" x2="0" y2="5" style="fill: none; stroke: #888; stroke-width: 1; opacity: 1;"></line><line transform="translate(223,0)" x2="0" y2="5" style="fill: none; stroke: #888; stroke-width: 1; opacity: 1;"></line><line transform="translate(255,0)" x2="0" y2="5" style="fill: none; stroke: #888; stroke-width: 1; opacity: 1;"></line><line transform="translate(286,0)" x2="0" y2="5" style="fill: none; stroke: #888; stroke-width: 1; opacity: 1;"></line><line transform="translate(318,0)" x2="0" y2="5" style="fill: none; stroke: #888; stroke-width: 1; opacity: 1;"></line><line transform="translate(350,0)" x2="0" y2="5" style="fill: none; stroke: #888; stroke-width: 1; opacity: 1;"></line><line transform="translate(382,0)" x2="0" y2="5" style="fill: none; stroke: #888; stroke-width: 1; opacity: 1;"></line><line transform="translate(414,0)" x2="0" y2="5" style="fill: none; stroke: #888; stroke-width: 1; opacity: 1;"></line><line transform="translate(445,0)" x2="0" y2="5" style="fill: none; stroke: #888; stroke-width: 1; opacity: 1;"></line><line transform="translate(477,0)" x2="0" y2="5" style="fill: none; stroke: #888; stroke-width: 1; opacity: 1;"></line><line transform="translate(509,0)" x2="0" y2="5" style="fill: none; stroke: #888; stroke-width: 1; opacity: 1;"></line><line transform="translate(541,0)" x2="0" y2="5" style="fill: none; stroke: #888; stroke-width: 1; opacity: 1;"></line><line transform="translate(573,0)" x2="0" y2="5" style="fill: none; stroke: #888; stroke-width: 1; opacity: 1;"></line><line transform="translate(605,0)" x2="0" y2="5" style="fill: none; stroke: #888; stroke-width: 1; opacity: 1;"></line><line transform="translate(636,0)" x2="0" y2="5" style="fill: none; stroke: #888; stroke-width: 1; opacity: 1;"></line><line transform="translate(668,0)" x2="0" y2="5" style="fill: none; stroke: #888; stroke-width: 1; opacity: 1;"></line><line transform="translate(700,0)" x2="0" y2="5" style="fill: none; stroke: #888; stroke-width: 1; opacity: 1;"></line></g><g class="mark-text role-axis-label" style="pointer-events: none;"><text text-anchor="start" transform="translate(0,15)" style="font-family: sans-serif; font-size: 10px; fill: #000; opacity: 1;">0</text><text text-anchor="middle" transform="translate(31.81818181818182,15)" style="font-family: sans-serif; font-size: 10px; fill: #000; opacity: 0;">1,000</text><text text-anchor="middle" transform="translate(63.63636363636364,15)" style="font-family: sans-serif; font-size: 10px; fill: #000; opacity: 1;">2,000</text><text text-anchor="middle" transform="translate(95.45454545454545,15)" style="font-family: sans-serif; font-size: 10px; fill: #000; opacity: 0;">3,000</text><text text-anchor="middle" transform="translate(127.27272727272728,15)" style="font-family: sans-serif; font-size: 10px; fill: #000; opacity: 1;">4,000</text><text text-anchor="middle" transform="translate(159.0909090909091,15)" style="font-family: sans-serif; font-size: 10px; fill: #000; opacity: 0;">5,000</text><text text-anchor="middle" transform="translate(190.9090909090909,15)" style="font-family: sans-serif; font-size: 10px; fill: #000; opacity: 1;">6,000</text><text text-anchor="middle" transform="translate(222.72727272727272,15)" style="font-family: sans-serif; font-size: 10px; fill: #000; opacity: 0;">7,000</text><text text-anchor="middle" transform="translate(254.54545454545456,15)" style="font-family: sans-serif; font-size: 10px; fill: #000; opacity: 1;">8,000</text><text text-anchor="middle" transform="translate(286.3636363636364,15)" style="font-family: sans-serif; font-size: 10px; fill: #000; opacity: 0;">9,000</text><text text-anchor="middle" transform="translate(318.1818181818182,15)" style="font-family: sans-serif; font-size: 10px; fill: #000; opacity: 1;">10,000</text><text text-anchor="middle" transform="translate(350,15)" style="font-family: sans-serif; font-size: 10px; fill: #000; opacity: 0;">11,000</text><text text-anchor="middle" transform="translate(381.8181818181818,15)" style="font-family: sans-serif; font-size: 10px; fill: #000; opacity: 1;">12,000</text><text text-anchor="middle" transform="translate(413.6363636363637,15)" style="font-family: sans-serif; font-size: 10px; fill: #000; opacity: 0;">13,000</text><text text-anchor="middle" transform="translate(445.45454545454544,15)" style="font-family: sans-serif; font-size: 10px; fill: #000; opacity: 1;">14,000</text><text text-anchor="middle" transform="translate(477.27272727272725,15)" style="font-family: sans-serif; font-size: 10px; fill: #000; opacity: 0;">15,000</text><text text-anchor="middle" transform="translate(509.0909090909091,15)" style="font-family: sans-serif; font-size: 10px; fill: #000; opacity: 1;">16,000</text><text text-anchor="middle" transform="translate(540.9090909090909,15)" style="font-family: sans-serif; font-size: 10px; fill: #000; opacity: 0;">17,000</text><text text-anchor="middle" transform="translate(572.7272727272727,15)" style="font-family: sans-serif; font-size: 10px; fill: #000; opacity: 1;">18,000</text><text text-anchor="middle" transform="translate(604.5454545454545,15)" style="font-family: sans-serif; font-size: 10px; fill: #000; opacity: 0;">19,000</text><text text-anchor="middle" transform="translate(636.3636363636364,15)" style="font-family: sans-serif; font-size: 10px; fill: #000; opacity: 1;">20,000</text><text text-anchor="middle" transform="translate(668.1818181818182,15)" style="font-family: sans-serif; font-size: 10px; fill: #000; opacity: 0;">21,000</text><text text-anchor="end" transform="translate(700,15)" style="font-family: sans-serif; font-size: 10px; fill: #000; opacity: 1;">22,000</text></g><g class="mark-rule role-axis-domain" style="pointer-events: none;"><line transform="translate(0,0)" x2="700" y2="0" style="fill: none; stroke: #888; stroke-width: 1; opacity: 1;"></line></g><g class="mark-text role-axis-title" style="pointer-events: none;"><text text-anchor="middle" transform="translate(350,30)" style="font-family: sans-serif; font-size: 11px; font-weight: bold; fill: #000; opacity: 1;">Frequentie</text></g></g></g></g><g class="mark-group role-axis"><g transform="translate(0.5,0.5)"><path class="background" d="M0,0h0v0h0Z" style="pointer-events: none; fill: none;"></path><g><g class="mark-rule role-axis-tick" style="pointer-events: none;"><line transform="translate(0,24)" x2="-5" y2="0" style="fill: none; stroke: #888; stroke-width: 1; opacity: 1;"></line><line transform="translate(0,74)" x2="-5" y2="0" style="fill: none; stroke: #888; stroke-width: 1; opacity: 1;"></line><line transform="translate(0,124)" x2="-5" y2="0" style="fill: none; stroke: #888; stroke-width: 1; opacity: 1;"></line><line transform="translate(0,174)" x2="-5" y2="0" style="fill: none; stroke: #888; stroke-width: 1; opacity: 1;"></line><line transform="translate(0,224)" x2="-5" y2="0" style="fill: none; stroke: #888; stroke-width: 1; opacity: 1;"></line></g><g class="mark-text role-axis-label" style="pointer-events: none;"><text text-anchor="end" transform="translate(-7,26.999999999999986)" style="font-family: sans-serif; font-size: 10px; fill: #000; opacity: 1;">Redelijk</text><text text-anchor="end" transform="translate(-7,76.99999999999999)" style="font-family: sans-serif; font-size: 10px; fill: #000; opacity: 1;">Goed</text><text text-anchor="end" transform="translate(-7,126.99999999999999)" style="font-family: sans-serif; font-size: 10px; fill: #000; opacity: 1;">Zeer Goed</text><text text-anchor="end" transform="translate(-7,177)" style="font-family: sans-serif; font-size: 10px; fill: #000; opacity: 1;">Premium</text><text text-anchor="end" transform="translate(-7,227)" style="font-family: sans-serif; font-size: 10px; fill: #000; opacity: 1;">Ideaal</text></g><g class="mark-rule role-axis-domain" style="pointer-events: none;"><line transform="translate(0,0)" x2="0" y2="250" style="fill: none; stroke: #888; stroke-width: 1; opacity: 1;"></line></g><g class="mark-text role-axis-title" style="pointer-events: none;"><text text-anchor="middle" transform="translate(-57.625,125) rotate(-90) translate(0,-2)" style="font-family: sans-serif; font-size: 11px; font-weight: bold; fill: #000; opacity: 1;">Maaksel</text></g></g></g></g></g></g></g></g></svg>