<svg class="marks" width="752" height="212" viewBox="0 0 752 212" version="1.1" xmlns="http://www.w3.org/2000/svg" xmlns:xlink="http://www.w3.org/1999/xlink"><g transform="translate(102,74)"><g class="mark-group role-frame root"><g transform="translate(0,0)"><path class="background" d="M0,0h0v0h0Z" style="fill: none;"></path><g><g class="mark-group role-column-title column-title"><g transform="translate(322,-31)"><path class="background" d="M0,0h0v0h0Z" style="fill: none;"></path><g><g class="mark-text role-title" style="pointer-events: none;"><text text-anchor="middle" transform="translate(0,-12)" style="font-family: sans-serif; font-size: 11px; font-weight: bold; fill: #000; opacity: 1;">Gebied</text></g></g></g></g><g class="mark-group role-row-header row_header"><g transform="translate(-1,0)"><path class="background" d="M0,0h0v100h0Z" style="fill: none;"></path><g><g class="mark-group role-axis"><g transform="translate(0.5,0.5)"><path class="background" d="M0,0h0v0h0Z" style="pointer-events: none; fill: none;"></path><g><g class="mark-rule role-axis-tick" style="pointer-events: none;"><line transform="translate(0,9)" x2="-5" y2="0" style="fill: none; stroke: #888; stroke-width: 1; opacity: 1;"></line><line transform="translate(0,29)" x2="-5" y2="0" style="fill: none; stroke: #888; stroke-width: 1; opacity: 1;"></line><line transform="translate(0,49)" x2="-5" y2="0" style="fill: none; stroke: #888; stroke-width: 1; opacity: 1;"></line><line transform="translate(0,69)" x2="-5" y2="0" style="fill: none; stroke: #888; stroke-width: 1; opacity: 1;"></line><line transform="translate(0,89)" x2="-5" y2="0" style="fill: none; stroke: #888; stroke-width: 1; opacity: 1;"></line></g><g class="mark-text role-axis-label" style="pointer-events: none;"><text text-anchor="end" transform="translate(-7,12)" style="font-family: sans-serif; font-size: 10px; fill: #000; opacity: 1;">1 - Totaal Vrij</text><text text-anchor="end" transform="translate(-7,32)" style="font-family: sans-serif; font-size: 10px; fill: #000; opacity: 1;">2 - Zeer Vrij</text><text text-anchor="end" transform="translate(-7,52)" style="font-family: sans-serif; font-size: 10px; fill: #000; opacity: 1;">3 - Matig Vrij</text><text text-anchor="end" transform="translate(-7,72)" style="font-family: sans-serif; font-size: 10px; fill: #000; opacity: 1;">4 - Enigszins Vrij</text><text text-anchor="end" transform="translate(-7,92)" style="font-family: sans-serif; font-size: 10px; fill: #000; opacity: 1;">5 - Niet Vrij</text></g><g class="mark-rule role-axis-domain" style="pointer-events: none;"><line transform="translate(0,0)" x2="0" y2="100" style="fill: none; stroke: #888; stroke-width: 1; opacity: 1;"></line></g><g class="mark-text role-axis-title" style="pointer-events: none;"><text text-anchor="middle" transform="translate(-84.4375,50) rotate(-90) translate(0,-2)" style="font-family: sans-serif; font-size: 11px; font-weight: bold; fill: #000; opacity: 1;">Vrijheidsgevoel</text></g></g></g></g></g></g></g><g class="mark-group role-column-header column_header"><g transform="translate(0,-1)"><path class="background" d="M0,0h200v0h-200Z" style="fill: none;"></path><g><g class="mark-text role-title" style="pointer-events: none;"><text text-anchor="middle" transform="translate(100,-12)" style="font-family: sans-serif; font-size: 10px; fill: #000; opacity: 1;">Eurazië</text></g></g></g><g transform="translate(222,-1)"><path class="background" d="M0,0h200v0h-200Z" style="fill: none;"></path><g><g class="mark-text role-title" style="pointer-events: none;"><text text-anchor="middle" transform="translate(100,-12)" style="font-family: sans-serif; font-size: 10px; fill: #000; opacity: 1;">Oceanië</text></g></g></g><g transform="translate(444,-1)"><path class="background" d="M0,0h200v0h-200Z" style="fill: none;"></path><g><g class="mark-text role-title" style="pointer-events: none;"><text text-anchor="middle" transform="translate(100,-12)" style="font-family: sans-serif; font-size: 10px; fill: #000; opacity: 1;">Oost-Azië</text></g></g></g></g><g class="mark-group role-column-footer column_footer"><g transform="translate(0,101)"><path class="background" d="M0,0h200v0h-200Z" style="fill: none;"></path><g><g class="mark-group role-axis"><g transform="translate(0.5,0.5)"><path class="background" d="M0,0h0v0h0Z" style="pointer-events: none; fill: none;"></path><g><g class="mark-rule role-axis-tick" style="pointer-events: none;"><line transform="translate(0,0)" x2="0" y2="5" style="fill: none; stroke: #888; stroke-width: 1; opacity: 1;"></line><line transform="translate(29,0)" x2="0" y2="5" style="fill: none; stroke: #888; stroke-width: 1; opacity: 1;"></line><line transform="translate(57,0)" x2="0" y2="5" style="fill: none; stroke: #888; stroke-width: 1; opacity: 1;"></line><line transform="translate(86,0)" x2="0" y2="5" style="fill: none; stroke: #888; stroke-width: 1; opacity: 1;"></line><line transform="translate(114,0)" x2="0" y2="5" style="fill: none; stroke: #888; stroke-width: 1; opacity: 1;"></line><line transform="translate(143,0)" x2="0" y2="5" style="fill: none; stroke: #888; stroke-width: 1; opacity: 1;"></line><line transform="translate(171,0)" x2="0" y2="5" style="fill: none; stroke: #888; stroke-width: 1; opacity: 1;"></line><line transform="translate(200,0)" x2="0" y2="5" style="fill: none; stroke: #888; stroke-width: 1; opacity: 1;"></line></g><g class="mark-text role-axis-label" style="pointer-events: none;"><text text-anchor="start" transform="translate(0,15)" style="font-family: sans-serif; font-size: 10px; fill: #000; opacity: 1;">0</text><text text-anchor="middle" transform="translate(28.57142857142857,15)" style="font-family: sans-serif; font-size: 10px; fill: #000; opacity: 1;">10</text><text text-anchor="middle" transform="translate(57.14285714285714,15)" style="font-family: sans-serif; font-size: 10px; fill: #000; opacity: 1;">20</text><text text-anchor="middle" transform="translate(85.71428571428571,15)" style="font-family: sans-serif; font-size: 10px; fill: #000; opacity: 1;">30</text><text text-anchor="middle" transform="translate(114.28571428571428,15)" style="font-family: sans-serif; font-size: 10px; fill: #000; opacity: 1;">40</text><text text-anchor="middle" transform="translate(142.85714285714286,15)" style="font-family: sans-serif; font-size: 10px; fill: #000; opacity: 1;">50</text><text text-anchor="middle" transform="translate(171.42857142857142,15)" style="font-family: sans-serif; font-size: 10px; fill: #000; opacity: 1;">60</text><text text-anchor="end" transform="translate(200,15)" style="font-family: sans-serif; font-size: 10px; fill: #000; opacity: 1;">70</text></g><g class="mark-rule role-axis-domain" style="pointer-events: none;"><line transform="translate(0,0)" x2="200" y2="0" style="fill: none; stroke: #888; stroke-width: 1; opacity: 1;"></line></g><g class="mark-text role-axis-title" style="pointer-events: none;"><text text-anchor="middle" transform="translate(100,30)" style="font-family: sans-serif; font-size: 11px; font-weight: bold; fill: #000; opacity: 1;">Telling</text></g></g></g></g></g></g><g transform="translate(222,101)"><path class="background" d="M0,0h200v0h-200Z" style="fill: none;"></path><g><g class="mark-group role-axis"><g transform="translate(0.5,0.5)"><path class="background" d="M0,0h0v0h0Z" style="pointer-events: none; fill: none;"></path><g><g class="mark-rule role-axis-tick" style="pointer-events: none;"><line transform="translate(0,0)" x2="0" y2="5" style="fill: none; stroke: #888; stroke-width: 1; opacity: 1;"></line><line transform="translate(29,0)" x2="0" y2="5" style="fill: none; stroke: #888; stroke-width: 1; opacity: 1;"></line><line transform="translate(57,0)" x2="0" y2="5" style="fill: none; stroke: #888; stroke-width: 1; opacity: 1;"></line><line transform="translate(86,0)" x2="0" y2="5" style="fill: none; stroke: #888; stroke-width: 1; opacity: 1;"></line><line transform="translate(114,0)" x2="0" y2="5" style="fill: none; stroke: #888; stroke-width: 1; opacity: 1;"></line><line transform="translate(143,0)" x2="0" y2="5" style="fill: none; stroke: #888; stroke-width: 1; opacity: 1;"></line><line transform="translate(171,0)" x2="0" y2="5" style="fill: none; stroke: #888; stroke-width: 1; opacity: 1;"></line><line transform="translate(200,0)" x2="0" y2="5" style="fill: none; stroke: #888; stroke-width: 1; opacity: 1;"></line></g><g class="mark-text role-axis-label" style="pointer-events: none;"><text text-anchor="start" transform="translate(0,15)" style="font-family: sans-serif; font-size: 10px; fill: #000; opacity: 1;">0</text><text text-anchor="middle" transform="translate(28.57142857142857,15)" style="font-family: sans-serif; font-size: 10px; fill: #000; opacity: 1;">10</text><text text-anchor="middle" transform="translate(57.14285714285714,15)" style="font-family: sans-serif; font-size: 10px; fill: #000; opacity: 1;">20</text><text text-anchor="middle" transform="translate(85.71428571428571,15)" style="font-family: sans-serif; font-size: 10px; fill: #000; opacity: 1;">30</text><text text-anchor="middle" transform="translate(114.28571428571428,15)" style="font-family: sans-serif; font-size: 10px; fill: #000; opacity: 1;">40</text><text text-anchor="middle" transform="translate(142.85714285714286,15)" style="font-family: sans-serif; font-size: 10px; fill: #000; opacity: 1;">50</text><text text-anchor="middle" transform="translate(171.42857142857142,15)" style="font-family: sans-serif; font-size: 10px; fill: #000; opacity: 1;">60</text><text text-anchor="end" transform="translate(200,15)" style="font-family: sans-serif; font-size: 10px; fill: #000; opacity: 1;">70</text></g><g class="mark-rule role-axis-domain" style="pointer-events: none;"><line transform="translate(0,0)" x2="200" y2="0" style="fill: none; stroke: #888; stroke-width: 1; opacity: 1;"></line></g><g class="mark-text role-axis-title" style="pointer-events: none;"><text text-anchor="middle" transform="translate(100,30)" style="font-family: sans-serif; font-size: 11px; font-weight: bold; fill: #000; opacity: 1;">Telling</text></g></g></g></g></g></g><g transform="translate(444,101)"><path class="background" d="M0,0h200v0h-200Z" style="fill: none;"></path><g><g class="mark-group role-axis"><g transform="translate(0.5,0.5)"><path class="background" d="M0,0h0v0h0Z" style="pointer-events: none; fill: none;"></path><g><g class="mark-rule role-axis-tick" style="pointer-events: none;"><line transform="translate(0,0)" x2="0" y2="5" style="fill: none; stroke: #888; stroke-width: 1; opacity: 1;"></line><line transform="translate(29,0)" x2="0" y2="5" style="fill: none; stroke: #888; stroke-width: 1; opacity: 1;"></line><line transform="translate(57,0)" x2="0" y2="5" style="fill: none; stroke: #888; stroke-width: 1; opacity: 1;"></line><line transform="translate(86,0)" x2="0" y2="5" style="fill: none; stroke: #888; stroke-width: 1; opacity: 1;"></line><line transform="translate(114,0)" x2="0" y2="5" style="fill: none; stroke: #888; stroke-width: 1; opacity: 1;"></line><line transform="translate(143,0)" x2="0" y2="5" style="fill: none; stroke: #888; stroke-width: 1; opacity: 1;"></line><line transform="translate(171,0)" x2="0" y2="5" style="fill: none; stroke: #888; stroke-width: 1; opacity: 1;"></line><line transform="translate(200,0)" x2="0" y2="5" style="fill: none; stroke: #888; stroke-width: 1; opacity: 1;"></line></g><g class="mark-text role-axis-label" style="pointer-events: none;"><text text-anchor="start" transform="translate(0,15)" style="font-family: sans-serif; font-size: 10px; fill: #000; opacity: 1;">0</text><text text-anchor="middle" transform="translate(28.57142857142857,15)" style="font-family: sans-serif; font-size: 10px; fill: #000; opacity: 1;">10</text><text text-anchor="middle" transform="translate(57.14285714285714,15)" style="font-family: sans-serif; font-size: 10px; fill: #000; opacity: 1;">20</text><text text-anchor="middle" transform="translate(85.71428571428571,15)" style="font-family: sans-serif; font-size: 10px; fill: #000; opacity: 1;">30</text><text text-anchor="middle" transform="translate(114.28571428571428,15)" style="font-family: sans-serif; font-size: 10px; fill: #000; opacity: 1;">40</text><text text-anchor="middle" transform="translate(142.85714285714286,15)" style="font-family: sans-serif; font-size: 10px; fill: #000; opacity: 1;">50</text><text text-anchor="middle" transform="translate(171.42857142857142,15)" style="font-family: sans-serif; font-size: 10px; fill: #000; opacity: 1;">60</text><text text-anchor="end" transform="translate(200,15)" style="font-family: sans-serif; font-size: 10px; fill: #000; opacity: 1;">70</text></g><g class="mark-rule role-axis-domain" style="pointer-events: none;"><line transform="translate(0,0)" x2="200" y2="0" style="fill: none; stroke: #888; stroke-width: 1; opacity: 1;"></line></g><g class="mark-text role-axis-title" style="pointer-events: none;"><text text-anchor="middle" transform="translate(100,30)" style="font-family: sans-serif; font-size: 11px; font-weight: bold; fill: #000; opacity: 1;">Telling</text></g></g></g></g></g></g></g><g class="mark-group role-scope cell"><g transform="translate(0,0)"><path class="background" d="M0.5,0.5h200v100h-200Z" style="fill: none; stroke: #ddd;"></path><g><g class="mark-group role-axis"><g transform="translate(0.5,100.5)"><path class="background" d="M0,0h0v0h0Z" style="pointer-events: none; fill: none;"></path><g><g class="mark-rule role-axis-grid" style="pointer-events: none;"><line transform="translate(0,0)" x2="0" y2="-100" style="fill: none; stroke: #ddd; stroke-width: 1; opacity: 1;"></line><line transform="translate(29,0)" x2="0" y2="-100" style="fill: none; stroke: #ddd; stroke-width: 1; opacity: 1;"></line><line transform="translate(57,0)" x2="0" y2="-100" style="fill: none; stroke: #ddd; stroke-width: 1; opacity: 1;"></line><line transform="translate(86,0)" x2="0" y2="-100" style="fill: none; stroke: #ddd; stroke-width: 1; opacity: 1;"></line><line transform="translate(114,0)" x2="0" y2="-100" style="fill: none; stroke: #ddd; stroke-width: 1; opacity: 1;"></line><line transform="translate(143,0)" x2="0" y2="-100" style="fill: none; stroke: #ddd; stroke-width: 1; opacity: 1;"></line><line transform="translate(171,0)" x2="0" y2="-100" style="fill: none; stroke: #ddd; stroke-width: 1; opacity: 1;"></line><line transform="translate(200,0)" x2="0" y2="-100" style="fill: none; stroke: #ddd; stroke-width: 1; opacity: 1;"></line></g></g></g></g><g class="mark-rect role-mark child_marks"><path d="M0,81h194.28571428571428v18h-194.28571428571428Z" style="fill: red;"></path><path d="M0,61h102.85714285714285v18h-102.85714285714285Z" style="fill: red;"></path><path d="M0,21h34.285714285714285v18h-34.285714285714285Z" style="fill: red;"></path><path d="M0,1h17.142857142857142v18h-17.142857142857142Z" style="fill: red;"></path><path d="M0,41h74.28571428571429v18h-74.28571428571429Z" style="fill: red;"></path></g></g></g><g transform="translate(222,0)"><path class="background" d="M0.5,0.5h200v100h-200Z" style="fill: none; stroke: #ddd;"></path><g><g class="mark-group role-axis"><g transform="translate(0.5,100.5)"><path class="background" d="M0,0h0v0h0Z" style="pointer-events: none; fill: none;"></path><g><g class="mark-rule role-axis-grid" style="pointer-events: none;"><line transform="translate(0,0)" x2="0" y2="-100" style="fill: none; stroke: #ddd; stroke-width: 1; opacity: 1;"></line><line transform="translate(29,0)" x2="0" y2="-100" style="fill: none; stroke: #ddd; stroke-width: 1; opacity: 1;"></line><line transform="translate(57,0)" x2="0" y2="-100" style="fill: none; stroke: #ddd; stroke-width: 1; opacity: 1;"></line><line transform="translate(86,0)" x2="0" y2="-100" style="fill: none; stroke: #ddd; stroke-width: 1; opacity: 1;"></line><line transform="translate(114,0)" x2="0" y2="-100" style="fill: none; stroke: #ddd; stroke-width: 1; opacity: 1;"></line><line transform="translate(143,0)" x2="0" y2="-100" style="fill: none; stroke: #ddd; stroke-width: 1; opacity: 1;"></line><line transform="translate(171,0)" x2="0" y2="-100" style="fill: none; stroke: #ddd; stroke-width: 1; opacity: 1;"></line><line transform="translate(200,0)" x2="0" y2="-100" style="fill: none; stroke: #ddd; stroke-width: 1; opacity: 1;"></line></g></g></g></g><g class="mark-rect role-mark child_marks"><path d="M0,21h91.42857142857143v18h-91.42857142857143Z" style="fill: red;"></path><path d="M0,81h57.14285714285714v18h-57.14285714285714Z" style="fill: red;"></path><path d="M0,61h82.85714285714286v18h-82.85714285714286Z" style="fill: red;"></path><path d="M0,41h108.57142857142857v18h-108.57142857142857Z" style="fill: red;"></path><path d="M0,1h77.14285714285715v18h-77.14285714285715Z" style="fill: red;"></path></g></g></g><g transform="translate(444,0)"><path class="background" d="M0.5,0.5h200v100h-200Z" style="fill: none; stroke: #ddd;"></path><g><g class="mark-group role-axis"><g transform="translate(0.5,100.5)"><path class="background" d="M0,0h0v0h0Z" style="pointer-events: none; fill: none;"></path><g><g class="mark-rule role-axis-grid" style="pointer-events: none;"><line transform="translate(0,0)" x2="0" y2="-100" style="fill: none; stroke: #ddd; stroke-width: 1; opacity: 1;"></line><line transform="translate(29,0)" x2="0" y2="-100" style="fill: none; stroke: #ddd; stroke-width: 1; opacity: 1;"></line><line transform="translate(57,0)" x2="0" y2="-100" style="fill: none; stroke: #ddd; stroke-width: 1; opacity: 1;"></line><line transform="translate(86,0)" x2="0" y2="-100" style="fill: none; stroke: #ddd; stroke-width: 1; opacity: 1;"></line><line transform="translate(114,0)" x2="0" y2="-100" style="fill: none; stroke: #ddd; stroke-width: 1; opacity: 1;"></line><line transform="translate(143,0)" x2="0" y2="-100" style="fill: none; stroke: #ddd; stroke-width: 1; opacity: 1;"></line><line transform="translate(171,0)" x2="0" y2="-100" style="fill: none; stroke: #ddd; stroke-width: 1; opacity: 1;"></line><line transform="translate(200,0)" x2="0" y2="-100" style="fill: none; stroke: #ddd; stroke-width: 1; opacity: 1;"></line></g></g></g></g><g class="mark-rect role-mark child_marks"><path d="M0,81h120v18h-120Z" style="fill: red;"></path><path d="M0,61h122.85714285714286v18h-122.85714285714286Z" style="fill: red;"></path><path d="M0,41h111.42857142857143v18h-111.42857142857143Z" style="fill: red;"></path><path d="M0,21h42.857142857142854v18h-42.857142857142854Z" style="fill: red;"></path><path d="M0,1h22.857142857142858v18h-22.857142857142858Z" style="fill: red;"></path></g></g></g></g><g class="mark-text role-title" style="pointer-events: none;"><text text-anchor="start" transform="translate(-96.4375,-59)" style="font-family: sans-serif; font-size: 13px; font-weight: bold; fill: #000; opacity: 1;">Vrijheidsgevoel/Vrijheidsidee betreffende Vrijheid van Meningsuiting (bron: R Data Sets, Zelig, free1)</text></g></g></g></g></g></svg>