<svg class="marks" width="645" height="564" viewBox="0 0 645 564" version="1.1" xmlns="http://www.w3.org/2000/svg" xmlns:xlink="http://www.w3.org/1999/xlink"><g transform="translate(39,27)"><g class="mark-group role-frame root"><g transform="translate(0,0)"><path class="background" d="M0.5,0.5h500v500h-500Z" style="fill: none; stroke: #ddd;"></path><g><g class="mark-group role-axis"><g transform="translate(0.5,500.5)"><path class="background" d="M0,0h0v0h0Z" style="pointer-events: none; fill: none;"></path><g><g class="mark-rule role-axis-grid" style="pointer-events: none;"><line transform="translate(0,-500)" x2="0" y2="500" style="fill: none; stroke: #ddd; stroke-width: 1; opacity: 1;"></line><line transform="translate(36,-500)" x2="0" y2="500" style="fill: none; stroke: #ddd; stroke-width: 1; opacity: 1;"></line><line transform="translate(71,-500)" x2="0" y2="500" style="fill: none; stroke: #ddd; stroke-width: 1; opacity: 1;"></line><line transform="translate(107,-500)" x2="0" y2="500" style="fill: none; stroke: #ddd; stroke-width: 1; opacity: 1;"></line><line transform="translate(143,-500)" x2="0" y2="500" style="fill: none; stroke: #ddd; stroke-width: 1; opacity: 1;"></line><line transform="translate(179,-500)" x2="0" y2="500" style="fill: none; stroke: #ddd; stroke-width: 1; opacity: 1;"></line><line transform="translate(214,-500)" x2="0" y2="500" style="fill: none; stroke: #ddd; stroke-width: 1; opacity: 1;"></line><line transform="translate(250,-500)" x2="0" y2="500" style="fill: none; stroke: #ddd; stroke-width: 1; opacity: 1;"></line><line transform="translate(286,-500)" x2="0" y2="500" style="fill: none; stroke: #ddd; stroke-width: 1; opacity: 1;"></line><line transform="translate(321,-500)" x2="0" y2="500" style="fill: none; stroke: #ddd; stroke-width: 1; opacity: 1;"></line><line transform="translate(357,-500)" x2="0" y2="500" style="fill: none; stroke: #ddd; stroke-width: 1; opacity: 1;"></line><line transform="translate(393,-500)" x2="0" y2="500" style="fill: none; stroke: #ddd; stroke-width: 1; opacity: 1;"></line><line transform="translate(429,-500)" x2="0" y2="500" style="fill: none; stroke: #ddd; stroke-width: 1; opacity: 1;"></line><line transform="translate(464,-500)" x2="0" y2="500" style="fill: none; stroke: #ddd; stroke-width: 1; opacity: 1;"></line><line transform="translate(500,-500)" x2="0" y2="500" style="fill: none; stroke: #ddd; stroke-width: 1; opacity: 1;"></line></g></g></g></g><g class="mark-group role-axis"><g transform="translate(0.5,0.5)"><path class="background" d="M0,0h0v0h0Z" style="pointer-events: none; fill: none;"></path><g><g class="mark-rule role-axis-grid" style="pointer-events: none;"><line transform="translate(0,500)" x2="500" y2="0" style="fill: none; stroke: #ddd; stroke-width: 1; opacity: 1;"></line><line transform="translate(0,444)" x2="500" y2="0" style="fill: none; stroke: #ddd; stroke-width: 1; opacity: 1;"></line><line transform="translate(0,389)" x2="500" y2="0" style="fill: none; stroke: #ddd; stroke-width: 1; opacity: 1;"></line><line transform="translate(0,333)" x2="500" y2="0" style="fill: none; stroke: #ddd; stroke-width: 1; opacity: 1;"></line><line transform="translate(0,278)" x2="500" y2="0" style="fill: none; stroke: #ddd; stroke-width: 1; opacity: 1;"></line><line transform="translate(0,222)" x2="500" y2="0" style="fill: none; stroke: #ddd; stroke-width: 1; opacity: 1;"></line><line transform="translate(0,167)" x2="500" y2="0" style="fill: none; stroke: #ddd; stroke-width: 1; opacity: 1;"></line><line transform="translate(0,111)" x2="500" y2="0" style="fill: none; stroke: #ddd; stroke-width: 1; opacity: 1;"></line><line transform="translate(0,56)" x2="500" y2="0" style="fill: none; stroke: #ddd; stroke-width: 1; opacity: 1;"></line><line transform="translate(0,0)" x2="500" y2="0" style="fill: none; stroke: #ddd; stroke-width: 1; opacity: 1;"></line></g></g></g></g><g class="mark-symbol role-mark marks"><path transform="translate(128.57142857142858,177.77777777777777)" d="M6.7175144212722016,0A6.7175144212722016,6.7175144212722016,0,1,1,-6.7175144212722016,0A6.7175144212722016,6.7175144212722016,0,1,1,6.7175144212722016,0" style="fill: #4c78a8; stroke-width: 2; opacity: 0.7;"></path><path transform="translate(128.57142857142858,177.77777777777777)" d="M6.7175144212722016,0A6.7175144212722016,6.7175144212722016,0,1,1,-6.7175144212722016,0A6.7175144212722016,6.7175144212722016,0,1,1,6.7175144212722016,0" style="fill: #4c78a8; stroke-width: 2; opacity: 0.7;"></path><path transform="translate(142.85714285714286,155.55555555555554)" d="M6.7175144212722016,0A6.7175144212722016,6.7175144212722016,0,1,1,-6.7175144212722016,0A6.7175144212722016,6.7175144212722016,0,1,1,6.7175144212722016,0" style="fill: #4c78a8; stroke-width: 2; opacity: 0.7;"></path><path transform="translate(142.85714285714286,166.66666666666669)" d="M6.7175144212722016,0A6.7175144212722016,6.7175144212722016,0,1,1,-6.7175144212722016,0A6.7175144212722016,6.7175144212722016,0,1,1,6.7175144212722016,0" style="fill: #4c78a8; stroke-width: 2; opacity: 0.7;"></path><path transform="translate(199.99999999999997,211.11111111111114)" d="M8.227241335952167,0A8.227241335952167,8.227241335952167,0,1,1,-8.227241335952167,0A8.227241335952167,8.227241335952167,0,1,1,8.227241335952167,0" style="fill: #4c78a8; stroke-width: 2; opacity: 0.7;"></path><path transform="translate(199.99999999999997,211.11111111111114)" d="M8.227241335952167,0A8.227241335952167,8.227241335952167,0,1,1,-8.227241335952167,0A8.227241335952167,8.227241335952167,0,1,1,8.227241335952167,0" style="fill: #4c78a8; stroke-width: 2; opacity: 0.7;"></path><path transform="translate(221.42857142857144,200)" d="M8.227241335952167,0A8.227241335952167,8.227241335952167,0,1,1,-8.227241335952167,0A8.227241335952167,8.227241335952167,0,1,1,8.227241335952167,0" style="fill: #4c78a8; stroke-width: 2; opacity: 0.7;"></path><path transform="translate(128.57142857142858,211.11111111111114)" d="M6.7175144212722016,0A6.7175144212722016,6.7175144212722016,0,1,1,-6.7175144212722016,0A6.7175144212722016,6.7175144212722016,0,1,1,6.7175144212722016,0" style="fill: #4c78a8; stroke-width: 2; opacity: 0.7;"></path><path transform="translate(128.57142857142858,222.22222222222223)" d="M6.7175144212722016,0A6.7175144212722016,6.7175144212722016,0,1,1,-6.7175144212722016,0A6.7175144212722016,6.7175144212722016,0,1,1,6.7175144212722016,0" style="fill: #4c78a8; stroke-width: 2; opacity: 0.7;"></path><path transform="translate(142.85714285714286,188.88888888888886)" d="M6.7175144212722016,0A6.7175144212722016,6.7175144212722016,0,1,1,-6.7175144212722016,0A6.7175144212722016,6.7175144212722016,0,1,1,6.7175144212722016,0" style="fill: #4c78a8; stroke-width: 2; opacity: 0.7;"></path><path transform="translate(142.85714285714286,200)" d="M6.7175144212722016,0A6.7175144212722016,6.7175144212722016,0,1,1,-6.7175144212722016,0A6.7175144212722016,6.7175144212722016,0,1,1,6.7175144212722016,0" style="fill: #4c78a8; stroke-width: 2; opacity: 0.7;"></path><path transform="translate(199.99999999999997,222.22222222222223)" d="M8.227241335952167,0A8.227241335952167,8.227241335952167,0,1,1,-8.227241335952167,0A8.227241335952167,8.227241335952167,0,1,1,8.227241335952167,0" style="fill: #4c78a8; stroke-width: 2; opacity: 0.7;"></path><path transform="translate(199.99999999999997,222.22222222222223)" d="M8.227241335952167,0A8.227241335952167,8.227241335952167,0,1,1,-8.227241335952167,0A8.227241335952167,8.227241335952167,0,1,1,8.227241335952167,0" style="fill: #4c78a8; stroke-width: 2; opacity: 0.7;"></path><path transform="translate(221.42857142857144,222.22222222222223)" d="M8.227241335952167,0A8.227241335952167,8.227241335952167,0,1,1,-8.227241335952167,0A8.227241335952167,8.227241335952167,0,1,1,8.227241335952167,0" style="fill: #4c78a8; stroke-width: 2; opacity: 0.7;"></path><path transform="translate(221.42857142857144,222.22222222222223)" d="M8.227241335952167,0A8.227241335952167,8.227241335952167,0,1,1,-8.227241335952167,0A8.227241335952167,8.227241335952167,0,1,1,8.227241335952167,0" style="fill: #4c78a8; stroke-width: 2; opacity: 0.7;"></path><path transform="translate(199.99999999999997,233.33333333333331)" d="M8.227241335952167,0A8.227241335952167,8.227241335952167,0,1,1,-8.227241335952167,0A8.227241335952167,8.227241335952167,0,1,1,8.227241335952167,0" style="fill: #e45756; stroke-width: 2; opacity: 0.7;"></path><path transform="translate(221.42857142857144,222.22222222222223)" d="M8.227241335952167,0A8.227241335952167,8.227241335952167,0,1,1,-8.227241335952167,0A8.227241335952167,8.227241335952167,0,1,1,8.227241335952167,0" style="fill: #e45756; stroke-width: 2; opacity: 0.7;"></path><path transform="translate(300,244.44444444444446)" d="M9.5,0A9.5,9.5,0,1,1,-9.5,0A9.5,9.5,0,1,1,9.5,0" style="fill: #e45756; stroke-width: 2; opacity: 0.7;"></path><path transform="translate(378.57142857142856,277.7777777777778)" d="M9.5,0A9.5,9.5,0,1,1,-9.5,0A9.5,9.5,0,1,1,9.5,0" style="fill: #54a24b; stroke-width: 2; opacity: 0.7;"></path><path transform="translate(378.57142857142856,333.33333333333337)" d="M9.5,0A9.5,9.5,0,1,1,-9.5,0A9.5,9.5,0,1,1,9.5,0" style="fill: #54a24b; stroke-width: 2; opacity: 0.7;"></path><path transform="translate(378.57142857142856,277.7777777777778)" d="M9.5,0A9.5,9.5,0,1,1,-9.5,0A9.5,9.5,0,1,1,9.5,0" style="fill: #54a24b; stroke-width: 2; opacity: 0.7;"></path><path transform="translate(407.14285714285717,311.1111111111111)" d="M9.5,0A9.5,9.5,0,1,1,-9.5,0A9.5,9.5,0,1,1,9.5,0" style="fill: #54a24b; stroke-width: 2; opacity: 0.7;"></path><path transform="translate(428.57142857142856,311.1111111111111)" d="M9.5,0A9.5,9.5,0,1,1,-9.5,0A9.5,9.5,0,1,1,9.5,0" style="fill: #54a24b; stroke-width: 2; opacity: 0.7;"></path><path transform="translate(407.14285714285717,211.11111111111114)" d="M9.5,0A9.5,9.5,0,1,1,-9.5,0A9.5,9.5,0,1,1,9.5,0" style="fill: #b279a2; stroke-width: 2; opacity: 0.7;"></path><path transform="translate(407.14285714285717,244.44444444444446)" d="M9.5,0A9.5,9.5,0,1,1,-9.5,0A9.5,9.5,0,1,1,9.5,0" style="fill: #b279a2; stroke-width: 2; opacity: 0.7;"></path><path transform="translate(442.8571428571429,211.11111111111114)" d="M9.5,0A9.5,9.5,0,1,1,-9.5,0A9.5,9.5,0,1,1,9.5,0" style="fill: #b279a2; stroke-width: 2; opacity: 0.7;"></path><path transform="translate(442.8571428571429,222.22222222222223)" d="M9.5,0A9.5,9.5,0,1,1,-9.5,0A9.5,9.5,0,1,1,9.5,0" style="fill: #b279a2; stroke-width: 2; opacity: 0.7;"></path><path transform="translate(500,233.33333333333331)" d="M9.5,0A9.5,9.5,0,1,1,-9.5,0A9.5,9.5,0,1,1,9.5,0" style="fill: #b279a2; stroke-width: 2; opacity: 0.7;"></path><path transform="translate(378.57142857142856,288.8888888888889)" d="M9.5,0A9.5,9.5,0,1,1,-9.5,0A9.5,9.5,0,1,1,9.5,0" style="fill: #54a24b; stroke-width: 2; opacity: 0.7;"></path><path transform="translate(378.57142857142856,344.44444444444446)" d="M9.5,0A9.5,9.5,0,1,1,-9.5,0A9.5,9.5,0,1,1,9.5,0" style="fill: #54a24b; stroke-width: 2; opacity: 0.7;"></path><path transform="translate(407.14285714285717,333.33333333333337)" d="M9.5,0A9.5,9.5,0,1,1,-9.5,0A9.5,9.5,0,1,1,9.5,0" style="fill: #54a24b; stroke-width: 2; opacity: 0.7;"></path><path transform="translate(464.2857142857143,311.1111111111111)" d="M9.5,0A9.5,9.5,0,1,1,-9.5,0A9.5,9.5,0,1,1,9.5,0" style="fill: #54a24b; stroke-width: 2; opacity: 0.7;"></path><path transform="translate(171.42857142857142,200)" d="M6.7175144212722016,0A6.7175144212722016,6.7175144212722016,0,1,1,-6.7175144212722016,0A6.7175144212722016,6.7175144212722016,0,1,1,6.7175144212722016,0" style="fill: #e45756; stroke-width: 2; opacity: 0.7;"></path><path transform="translate(171.42857142857142,166.66666666666669)" d="M6.7175144212722016,0A6.7175144212722016,6.7175144212722016,0,1,1,-6.7175144212722016,0A6.7175144212722016,6.7175144212722016,0,1,1,6.7175144212722016,0" style="fill: #e45756; stroke-width: 2; opacity: 0.7;"></path><path transform="translate(221.42857142857144,211.11111111111114)" d="M8.227241335952167,0A8.227241335952167,8.227241335952167,0,1,1,-8.227241335952167,0A8.227241335952167,8.227241335952167,0,1,1,8.227241335952167,0" style="fill: #e45756; stroke-width: 2; opacity: 0.7;"></path><path transform="translate(250,177.77777777777777)" d="M8.227241335952167,0A8.227241335952167,8.227241335952167,0,1,1,-8.227241335952167,0A8.227241335952167,8.227241335952167,0,1,1,8.227241335952167,0" style="fill: #e45756; stroke-width: 2; opacity: 0.7;"></path><path transform="translate(257.14285714285717,211.11111111111114)" d="M8.227241335952167,0A8.227241335952167,8.227241335952167,0,1,1,-8.227241335952167,0A8.227241335952167,8.227241335952167,0,1,1,8.227241335952167,0" style="fill: #e45756; stroke-width: 2; opacity: 0.7;"></path><path transform="translate(171.42857142857142,233.33333333333331)" d="M6.7175144212722016,0A6.7175144212722016,6.7175144212722016,0,1,1,-6.7175144212722016,0A6.7175144212722016,6.7175144212722016,0,1,1,6.7175144212722016,0" style="fill: #f58518; stroke-width: 2; opacity: 0.7;"></path><path transform="translate(214.28571428571428,233.33333333333331)" d="M8.227241335952167,0A8.227241335952167,8.227241335952167,0,1,1,-8.227241335952167,0A8.227241335952167,8.227241335952167,0,1,1,8.227241335952167,0" style="fill: #f58518; stroke-width: 2; opacity: 0.7;"></path><path transform="translate(235.71428571428572,255.55555555555557)" d="M8.227241335952167,0A8.227241335952167,8.227241335952167,0,1,1,-8.227241335952167,0A8.227241335952167,8.227241335952167,0,1,1,8.227241335952167,0" style="fill: #f58518; stroke-width: 2; opacity: 0.7;"></path><path transform="translate(235.71428571428572,255.55555555555557)" d="M8.227241335952167,0A8.227241335952167,8.227241335952167,0,1,1,-8.227241335952167,0A8.227241335952167,8.227241335952167,0,1,1,8.227241335952167,0" style="fill: #f58518; stroke-width: 2; opacity: 0.7;"></path><path transform="translate(235.71428571428572,233.33333333333331)" d="M8.227241335952167,0A8.227241335952167,8.227241335952167,0,1,1,-8.227241335952167,0A8.227241335952167,8.227241335952167,0,1,1,8.227241335952167,0" style="fill: #f58518; stroke-width: 2; opacity: 0.7;"></path><path transform="translate(235.71428571428572,233.33333333333331)" d="M8.227241335952167,0A8.227241335952167,8.227241335952167,0,1,1,-8.227241335952167,0A8.227241335952167,8.227241335952167,0,1,1,8.227241335952167,0" style="fill: #f58518; stroke-width: 2; opacity: 0.7;"></path><path transform="translate(235.71428571428572,311.1111111111111)" d="M8.227241335952167,0A8.227241335952167,8.227241335952167,0,1,1,-8.227241335952167,0A8.227241335952167,8.227241335952167,0,1,1,8.227241335952167,0" style="fill: #f58518; stroke-width: 2; opacity: 0.7;"></path><path transform="translate(271.4285714285714,255.55555555555557)" d="M8.227241335952167,0A8.227241335952167,8.227241335952167,0,1,1,-8.227241335952167,0A8.227241335952167,8.227241335952167,0,1,1,8.227241335952167,0" style="fill: #f58518; stroke-width: 2; opacity: 0.7;"></path><path transform="translate(271.4285714285714,266.66666666666663)" d="M8.227241335952167,0A8.227241335952167,8.227241335952167,0,1,1,-8.227241335952167,0A8.227241335952167,8.227241335952167,0,1,1,8.227241335952167,0" style="fill: #f58518; stroke-width: 2; opacity: 0.7;"></path><path transform="translate(271.4285714285714,244.44444444444446)" d="M8.227241335952167,0A8.227241335952167,8.227241335952167,0,1,1,-8.227241335952167,0A8.227241335952167,8.227241335952167,0,1,1,8.227241335952167,0" style="fill: #f58518; stroke-width: 2; opacity: 0.7;"></path><path transform="translate(285.7142857142857,244.44444444444446)" d="M8.227241335952167,0A8.227241335952167,8.227241335952167,0,1,1,-8.227241335952167,0A8.227241335952167,8.227241335952167,0,1,1,8.227241335952167,0" style="fill: #f58518; stroke-width: 2; opacity: 0.7;"></path><path transform="translate(264.2857142857143,288.8888888888889)" d="M8.227241335952167,0A8.227241335952167,8.227241335952167,0,1,1,-8.227241335952167,0A8.227241335952167,8.227241335952167,0,1,1,8.227241335952167,0" style="fill: #72b7b2; stroke-width: 2; opacity: 0.7;"></path><path transform="translate(264.2857142857143,300)" d="M8.227241335952167,0A8.227241335952167,8.227241335952167,0,1,1,-8.227241335952167,0A8.227241335952167,8.227241335952167,0,1,1,8.227241335952167,0" style="fill: #72b7b2; stroke-width: 2; opacity: 0.7;"></path><path transform="translate(278.57142857142856,311.1111111111111)" d="M8.227241335952167,0A8.227241335952167,8.227241335952167,0,1,1,-8.227241335952167,0A8.227241335952167,8.227241335952167,0,1,1,8.227241335952167,0" style="fill: #72b7b2; stroke-width: 2; opacity: 0.7;"></path><path transform="translate(278.57142857142856,311.1111111111111)" d="M8.227241335952167,0A8.227241335952167,8.227241335952167,0,1,1,-8.227241335952167,0A8.227241335952167,8.227241335952167,0,1,1,8.227241335952167,0" style="fill: #72b7b2; stroke-width: 2; opacity: 0.7;"></path><path transform="translate(335.7142857142857,288.8888888888889)" d="M9.5,0A9.5,9.5,0,1,1,-9.5,0A9.5,9.5,0,1,1,9.5,0" style="fill: #72b7b2; stroke-width: 2; opacity: 0.7;"></path><path transform="translate(335.7142857142857,288.8888888888889)" d="M9.5,0A9.5,9.5,0,1,1,-9.5,0A9.5,9.5,0,1,1,9.5,0" style="fill: #72b7b2; stroke-width: 2; opacity: 0.7;"></path><path transform="translate(335.7142857142857,366.66666666666663)" d="M9.5,0A9.5,9.5,0,1,1,-9.5,0A9.5,9.5,0,1,1,9.5,0" style="fill: #72b7b2; stroke-width: 2; opacity: 0.7;"></path><path transform="translate(371.42857142857144,311.1111111111111)" d="M9.5,0A9.5,9.5,0,1,1,-9.5,0A9.5,9.5,0,1,1,9.5,0" style="fill: #72b7b2; stroke-width: 2; opacity: 0.7;"></path><path transform="translate(371.42857142857144,333.33333333333337)" d="M9.5,0A9.5,9.5,0,1,1,-9.5,0A9.5,9.5,0,1,1,9.5,0" style="fill: #72b7b2; stroke-width: 2; opacity: 0.7;"></path><path transform="translate(278.57142857142856,311.1111111111111)" d="M8.227241335952167,0A8.227241335952167,8.227241335952167,0,1,1,-8.227241335952167,0A8.227241335952167,8.227241335952167,0,1,1,8.227241335952167,0" style="fill: #54a24b; stroke-width: 2; opacity: 0.7;"></path><path transform="translate(335.7142857142857,311.1111111111111)" d="M9.5,0A9.5,9.5,0,1,1,-9.5,0A9.5,9.5,0,1,1,9.5,0" style="fill: #54a24b; stroke-width: 2; opacity: 0.7;"></path><path transform="translate(335.7142857142857,366.66666666666663)" d="M9.5,0A9.5,9.5,0,1,1,-9.5,0A9.5,9.5,0,1,1,9.5,0" style="fill: #54a24b; stroke-width: 2; opacity: 0.7;"></path><path transform="translate(335.7142857142857,311.1111111111111)" d="M9.5,0A9.5,9.5,0,1,1,-9.5,0A9.5,9.5,0,1,1,9.5,0" style="fill: #54a24b; stroke-width: 2; opacity: 0.7;"></path><path transform="translate(371.42857142857144,322.22222222222223)" d="M9.5,0A9.5,9.5,0,1,1,-9.5,0A9.5,9.5,0,1,1,9.5,0" style="fill: #54a24b; stroke-width: 2; opacity: 0.7;"></path><path transform="translate(407.14285714285717,300)" d="M9.5,0A9.5,9.5,0,1,1,-9.5,0A9.5,9.5,0,1,1,9.5,0" style="fill: #54a24b; stroke-width: 2; opacity: 0.7;"></path><path transform="translate(421.42857142857144,333.33333333333337)" d="M9.5,0A9.5,9.5,0,1,1,-9.5,0A9.5,9.5,0,1,1,9.5,0" style="fill: #54a24b; stroke-width: 2; opacity: 0.7;"></path><path transform="translate(335.7142857142857,322.22222222222223)" d="M9.5,0A9.5,9.5,0,1,1,-9.5,0A9.5,9.5,0,1,1,9.5,0" style="fill: #72b7b2; stroke-width: 2; opacity: 0.7;"></path><path transform="translate(335.7142857142857,366.66666666666663)" d="M9.5,0A9.5,9.5,0,1,1,-9.5,0A9.5,9.5,0,1,1,9.5,0" style="fill: #72b7b2; stroke-width: 2; opacity: 0.7;"></path><path transform="translate(335.7142857142857,311.1111111111111)" d="M9.5,0A9.5,9.5,0,1,1,-9.5,0A9.5,9.5,0,1,1,9.5,0" style="fill: #72b7b2; stroke-width: 2; opacity: 0.7;"></path><path transform="translate(335.7142857142857,311.1111111111111)" d="M9.5,0A9.5,9.5,0,1,1,-9.5,0A9.5,9.5,0,1,1,9.5,0" style="fill: #72b7b2; stroke-width: 2; opacity: 0.7;"></path><path transform="translate(335.7142857142857,322.22222222222223)" d="M9.5,0A9.5,9.5,0,1,1,-9.5,0A9.5,9.5,0,1,1,9.5,0" style="fill: #72b7b2; stroke-width: 2; opacity: 0.7;"></path><path transform="translate(335.7142857142857,366.66666666666663)" d="M9.5,0A9.5,9.5,0,1,1,-9.5,0A9.5,9.5,0,1,1,9.5,0" style="fill: #72b7b2; stroke-width: 2; opacity: 0.7;"></path><path transform="translate(371.42857142857144,333.33333333333337)" d="M9.5,0A9.5,9.5,0,1,1,-9.5,0A9.5,9.5,0,1,1,9.5,0" style="fill: #72b7b2; stroke-width: 2; opacity: 0.7;"></path><path transform="translate(371.42857142857144,322.22222222222223)" d="M9.5,0A9.5,9.5,0,1,1,-9.5,0A9.5,9.5,0,1,1,9.5,0" style="fill: #72b7b2; stroke-width: 2; opacity: 0.7;"></path><path transform="translate(407.14285714285717,311.1111111111111)" d="M9.5,0A9.5,9.5,0,1,1,-9.5,0A9.5,9.5,0,1,1,9.5,0" style="fill: #72b7b2; stroke-width: 2; opacity: 0.7;"></path><path transform="translate(421.42857142857144,333.33333333333337)" d="M9.5,0A9.5,9.5,0,1,1,-9.5,0A9.5,9.5,0,1,1,9.5,0" style="fill: #72b7b2; stroke-width: 2; opacity: 0.7;"></path><path transform="translate(328.57142857142856,311.1111111111111)" d="M9.5,0A9.5,9.5,0,1,1,-9.5,0A9.5,9.5,0,1,1,9.5,0" style="fill: #54a24b; stroke-width: 2; opacity: 0.7;"></path><path transform="translate(385.7142857142857,311.1111111111111)" d="M9.5,0A9.5,9.5,0,1,1,-9.5,0A9.5,9.5,0,1,1,9.5,0" style="fill: #54a24b; stroke-width: 2; opacity: 0.7;"></path><path transform="translate(385.7142857142857,300)" d="M9.5,0A9.5,9.5,0,1,1,-9.5,0A9.5,9.5,0,1,1,9.5,0" style="fill: #54a24b; stroke-width: 2; opacity: 0.7;"></path><path transform="translate(285.7142857142857,311.1111111111111)" d="M8.227241335952167,0A8.227241335952167,8.227241335952167,0,1,1,-8.227241335952167,0A8.227241335952167,8.227241335952167,0,1,1,8.227241335952167,0" style="fill: #54a24b; stroke-width: 2; opacity: 0.7;"></path><path transform="translate(285.7142857142857,288.8888888888889)" d="M8.227241335952167,0A8.227241335952167,8.227241335952167,0,1,1,-8.227241335952167,0A8.227241335952167,8.227241335952167,0,1,1,8.227241335952167,0" style="fill: #54a24b; stroke-width: 2; opacity: 0.7;"></path><path transform="translate(285.7142857142857,311.1111111111111)" d="M8.227241335952167,0A8.227241335952167,8.227241335952167,0,1,1,-8.227241335952167,0A8.227241335952167,8.227241335952167,0,1,1,8.227241335952167,0" style="fill: #54a24b; stroke-width: 2; opacity: 0.7;"></path><path transform="translate(285.7142857142857,288.8888888888889)" d="M8.227241335952167,0A8.227241335952167,8.227241335952167,0,1,1,-8.227241335952167,0A8.227241335952167,8.227241335952167,0,1,1,8.227241335952167,0" style="fill: #54a24b; stroke-width: 2; opacity: 0.7;"></path><path transform="translate(328.57142857142856,288.8888888888889)" d="M9.5,0A9.5,9.5,0,1,1,-9.5,0A9.5,9.5,0,1,1,9.5,0" style="fill: #54a24b; stroke-width: 2; opacity: 0.7;"></path><path transform="translate(357.14285714285717,311.1111111111111)" d="M9.5,0A9.5,9.5,0,1,1,-9.5,0A9.5,9.5,0,1,1,9.5,0" style="fill: #54a24b; stroke-width: 2; opacity: 0.7;"></path><path transform="translate(300,311.1111111111111)" d="M8.227241335952167,0A8.227241335952167,8.227241335952167,0,1,1,-8.227241335952167,0A8.227241335952167,8.227241335952167,0,1,1,8.227241335952167,0" style="fill: #72b7b2; stroke-width: 2; opacity: 0.7;"></path><path transform="translate(300,311.1111111111111)" d="M8.227241335952167,0A8.227241335952167,8.227241335952167,0,1,1,-8.227241335952167,0A8.227241335952167,8.227241335952167,0,1,1,8.227241335952167,0" style="fill: #72b7b2; stroke-width: 2; opacity: 0.7;"></path><path transform="translate(328.57142857142856,322.22222222222223)" d="M9.5,0A9.5,9.5,0,1,1,-9.5,0A9.5,9.5,0,1,1,9.5,0" style="fill: #72b7b2; stroke-width: 2; opacity: 0.7;"></path><path transform="translate(328.57142857142856,322.22222222222223)" d="M9.5,0A9.5,9.5,0,1,1,-9.5,0A9.5,9.5,0,1,1,9.5,0" style="fill: #72b7b2; stroke-width: 2; opacity: 0.7;"></path><path transform="translate(328.57142857142856,311.1111111111111)" d="M9.5,0A9.5,9.5,0,1,1,-9.5,0A9.5,9.5,0,1,1,9.5,0" style="fill: #72b7b2; stroke-width: 2; opacity: 0.7;"></path><path transform="translate(385.7142857142857,333.33333333333337)" d="M9.5,0A9.5,9.5,0,1,1,-9.5,0A9.5,9.5,0,1,1,9.5,0" style="fill: #72b7b2; stroke-width: 2; opacity: 0.7;"></path><path transform="translate(385.7142857142857,311.1111111111111)" d="M9.5,0A9.5,9.5,0,1,1,-9.5,0A9.5,9.5,0,1,1,9.5,0" style="fill: #72b7b2; stroke-width: 2; opacity: 0.7;"></path><path transform="translate(271.4285714285714,211.11111111111114)" d="M8.227241335952167,0A8.227241335952167,8.227241335952167,0,1,1,-8.227241335952167,0A8.227241335952167,8.227241335952167,0,1,1,8.227241335952167,0" style="fill: #eeca3b; stroke-width: 2; opacity: 0.7;"></path><path transform="translate(271.4285714285714,222.22222222222223)" d="M8.227241335952167,0A8.227241335952167,8.227241335952167,0,1,1,-8.227241335952167,0A8.227241335952167,8.227241335952167,0,1,1,8.227241335952167,0" style="fill: #eeca3b; stroke-width: 2; opacity: 0.7;"></path><path transform="translate(285.7142857142857,211.11111111111114)" d="M8.227241335952167,0A8.227241335952167,8.227241335952167,0,1,1,-8.227241335952167,0A8.227241335952167,8.227241335952167,0,1,1,8.227241335952167,0" style="fill: #eeca3b; stroke-width: 2; opacity: 0.7;"></path><path transform="translate(285.7142857142857,233.33333333333331)" d="M8.227241335952167,0A8.227241335952167,8.227241335952167,0,1,1,-8.227241335952167,0A8.227241335952167,8.227241335952167,0,1,1,8.227241335952167,0" style="fill: #eeca3b; stroke-width: 2; opacity: 0.7;"></path><path transform="translate(328.57142857142856,266.66666666666663)" d="M9.5,0A9.5,9.5,0,1,1,-9.5,0A9.5,9.5,0,1,1,9.5,0" style="fill: #eeca3b; stroke-width: 2; opacity: 0.7;"></path><path transform="translate(328.57142857142856,255.55555555555557)" d="M9.5,0A9.5,9.5,0,1,1,-9.5,0A9.5,9.5,0,1,1,9.5,0" style="fill: #eeca3b; stroke-width: 2; opacity: 0.7;"></path><path transform="translate(328.57142857142856,244.44444444444446)" d="M9.5,0A9.5,9.5,0,1,1,-9.5,0A9.5,9.5,0,1,1,9.5,0" style="fill: #eeca3b; stroke-width: 2; opacity: 0.7;"></path><path transform="translate(328.57142857142856,255.55555555555557)" d="M9.5,0A9.5,9.5,0,1,1,-9.5,0A9.5,9.5,0,1,1,9.5,0" style="fill: #eeca3b; stroke-width: 2; opacity: 0.7;"></path><path transform="translate(385.7142857142857,277.7777777777778)" d="M9.5,0A9.5,9.5,0,1,1,-9.5,0A9.5,9.5,0,1,1,9.5,0" style="fill: #eeca3b; stroke-width: 2; opacity: 0.7;"></path><path transform="translate(114.28571428571429,133.33333333333337)" d="M6.7175144212722016,0A6.7175144212722016,6.7175144212722016,0,1,1,-6.7175144212722016,0A6.7175144212722016,6.7175144212722016,0,1,1,6.7175144212722016,0" style="fill: #eeca3b; stroke-width: 2; opacity: 0.7;"></path><path transform="translate(114.28571428571429,144.44444444444446)" d="M6.7175144212722016,0A6.7175144212722016,6.7175144212722016,0,1,1,-6.7175144212722016,0A6.7175144212722016,6.7175144212722016,0,1,1,6.7175144212722016,0" style="fill: #eeca3b; stroke-width: 2; opacity: 0.7;"></path><path transform="translate(114.28571428571429,144.44444444444446)" d="M6.7175144212722016,0A6.7175144212722016,6.7175144212722016,0,1,1,-6.7175144212722016,0A6.7175144212722016,6.7175144212722016,0,1,1,6.7175144212722016,0" style="fill: #eeca3b; stroke-width: 2; opacity: 0.7;"></path><path transform="translate(114.28571428571429,177.77777777777777)" d="M6.7175144212722016,0A6.7175144212722016,6.7175144212722016,0,1,1,-6.7175144212722016,0A6.7175144212722016,6.7175144212722016,0,1,1,6.7175144212722016,0" style="fill: #eeca3b; stroke-width: 2; opacity: 0.7;"></path><path transform="translate(114.28571428571429,144.44444444444446)" d="M6.7175144212722016,0A6.7175144212722016,6.7175144212722016,0,1,1,-6.7175144212722016,0A6.7175144212722016,6.7175144212722016,0,1,1,6.7175144212722016,0" style="fill: #eeca3b; stroke-width: 2; opacity: 0.7;"></path><path transform="translate(128.57142857142858,122.22222222222223)" d="M6.7175144212722016,0A6.7175144212722016,6.7175144212722016,0,1,1,-6.7175144212722016,0A6.7175144212722016,6.7175144212722016,0,1,1,6.7175144212722016,0" style="fill: #eeca3b; stroke-width: 2; opacity: 0.7;"></path><path transform="translate(128.57142857142858,100)" d="M6.7175144212722016,0A6.7175144212722016,6.7175144212722016,0,1,1,-6.7175144212722016,0A6.7175144212722016,6.7175144212722016,0,1,1,6.7175144212722016,0" style="fill: #eeca3b; stroke-width: 2; opacity: 0.7;"></path><path transform="translate(128.57142857142858,100)" d="M6.7175144212722016,0A6.7175144212722016,6.7175144212722016,0,1,1,-6.7175144212722016,0A6.7175144212722016,6.7175144212722016,0,1,1,6.7175144212722016,0" style="fill: #eeca3b; stroke-width: 2; opacity: 0.7;"></path><path transform="translate(142.85714285714286,177.77777777777777)" d="M6.7175144212722016,0A6.7175144212722016,6.7175144212722016,0,1,1,-6.7175144212722016,0A6.7175144212722016,6.7175144212722016,0,1,1,6.7175144212722016,0" style="fill: #eeca3b; stroke-width: 2; opacity: 0.7;"></path><path transform="translate(171.42857142857142,211.11111111111114)" d="M6.7175144212722016,0A6.7175144212722016,6.7175144212722016,0,1,1,-6.7175144212722016,0A6.7175144212722016,6.7175144212722016,0,1,1,6.7175144212722016,0" style="fill: #e45756; stroke-width: 2; opacity: 0.7;"></path><path transform="translate(171.42857142857142,200)" d="M6.7175144212722016,0A6.7175144212722016,6.7175144212722016,0,1,1,-6.7175144212722016,0A6.7175144212722016,6.7175144212722016,0,1,1,6.7175144212722016,0" style="fill: #e45756; stroke-width: 2; opacity: 0.7;"></path><path transform="translate(171.42857142857142,166.66666666666669)" d="M6.7175144212722016,0A6.7175144212722016,6.7175144212722016,0,1,1,-6.7175144212722016,0A6.7175144212722016,6.7175144212722016,0,1,1,6.7175144212722016,0" style="fill: #e45756; stroke-width: 2; opacity: 0.7;"></path><path transform="translate(171.42857142857142,155.55555555555554)" d="M6.7175144212722016,0A6.7175144212722016,6.7175144212722016,0,1,1,-6.7175144212722016,0A6.7175144212722016,6.7175144212722016,0,1,1,6.7175144212722016,0" style="fill: #e45756; stroke-width: 2; opacity: 0.7;"></path><path transform="translate(178.57142857142858,211.11111111111114)" d="M8.227241335952167,0A8.227241335952167,8.227241335952167,0,1,1,-8.227241335952167,0A8.227241335952167,8.227241335952167,0,1,1,8.227241335952167,0" style="fill: #e45756; stroke-width: 2; opacity: 0.7;"></path><path transform="translate(178.57142857142858,211.11111111111114)" d="M8.227241335952167,0A8.227241335952167,8.227241335952167,0,1,1,-8.227241335952167,0A8.227241335952167,8.227241335952167,0,1,1,8.227241335952167,0" style="fill: #e45756; stroke-width: 2; opacity: 0.7;"></path><path transform="translate(235.71428571428572,188.88888888888886)" d="M8.227241335952167,0A8.227241335952167,8.227241335952167,0,1,1,-8.227241335952167,0A8.227241335952167,8.227241335952167,0,1,1,8.227241335952167,0" style="fill: #e45756; stroke-width: 2; opacity: 0.7;"></path><path transform="translate(142.85714285714286,211.11111111111114)" d="M6.7175144212722016,0A6.7175144212722016,6.7175144212722016,0,1,1,-6.7175144212722016,0A6.7175144212722016,6.7175144212722016,0,1,1,6.7175144212722016,0" style="fill: #eeca3b; stroke-width: 2; opacity: 0.7;"></path><path transform="translate(142.85714285714286,177.77777777777777)" d="M6.7175144212722016,0A6.7175144212722016,6.7175144212722016,0,1,1,-6.7175144212722016,0A6.7175144212722016,6.7175144212722016,0,1,1,6.7175144212722016,0" style="fill: #eeca3b; stroke-width: 2; opacity: 0.7;"></path><path transform="translate(142.85714285714286,188.88888888888886)" d="M6.7175144212722016,0A6.7175144212722016,6.7175144212722016,0,1,1,-6.7175144212722016,0A6.7175144212722016,6.7175144212722016,0,1,1,6.7175144212722016,0" style="fill: #eeca3b; stroke-width: 2; opacity: 0.7;"></path><path transform="translate(142.85714285714286,200)" d="M6.7175144212722016,0A6.7175144212722016,6.7175144212722016,0,1,1,-6.7175144212722016,0A6.7175144212722016,6.7175144212722016,0,1,1,6.7175144212722016,0" style="fill: #eeca3b; stroke-width: 2; opacity: 0.7;"></path><path transform="translate(192.85714285714286,233.33333333333331)" d="M8.227241335952167,0A8.227241335952167,8.227241335952167,0,1,1,-8.227241335952167,0A8.227241335952167,8.227241335952167,0,1,1,8.227241335952167,0" style="fill: #eeca3b; stroke-width: 2; opacity: 0.7;"></path><path transform="translate(192.85714285714286,233.33333333333331)" d="M8.227241335952167,0A8.227241335952167,8.227241335952167,0,1,1,-8.227241335952167,0A8.227241335952167,8.227241335952167,0,1,1,8.227241335952167,0" style="fill: #eeca3b; stroke-width: 2; opacity: 0.7;"></path><path transform="translate(192.85714285714286,233.33333333333331)" d="M8.227241335952167,0A8.227241335952167,8.227241335952167,0,1,1,-8.227241335952167,0A8.227241335952167,8.227241335952167,0,1,1,8.227241335952167,0" style="fill: #eeca3b; stroke-width: 2; opacity: 0.7;"></path><path transform="translate(214.28571428571428,255.55555555555557)" d="M8.227241335952167,0A8.227241335952167,8.227241335952167,0,1,1,-8.227241335952167,0A8.227241335952167,8.227241335952167,0,1,1,8.227241335952167,0" style="fill: #54a24b; stroke-width: 2; opacity: 0.7;"></path><path transform="translate(264.2857142857143,288.8888888888889)" d="M8.227241335952167,0A8.227241335952167,8.227241335952167,0,1,1,-8.227241335952167,0A8.227241335952167,8.227241335952167,0,1,1,8.227241335952167,0" style="fill: #54a24b; stroke-width: 2; opacity: 0.7;"></path><path transform="translate(285.7142857142857,277.7777777777778)" d="M8.227241335952167,0A8.227241335952167,8.227241335952167,0,1,1,-8.227241335952167,0A8.227241335952167,8.227241335952167,0,1,1,8.227241335952167,0" style="fill: #54a24b; stroke-width: 2; opacity: 0.7;"></path><path transform="translate(335.7142857142857,311.1111111111111)" d="M9.5,0A9.5,9.5,0,1,1,-9.5,0A9.5,9.5,0,1,1,9.5,0" style="fill: #54a24b; stroke-width: 2; opacity: 0.7;"></path><path transform="translate(335.7142857142857,366.66666666666663)" d="M9.5,0A9.5,9.5,0,1,1,-9.5,0A9.5,9.5,0,1,1,9.5,0" style="fill: #54a24b; stroke-width: 2; opacity: 0.7;"></path><path transform="translate(335.7142857142857,288.8888888888889)" d="M9.5,0A9.5,9.5,0,1,1,-9.5,0A9.5,9.5,0,1,1,9.5,0" style="fill: #54a24b; stroke-width: 2; opacity: 0.7;"></path><path transform="translate(407.14285714285717,300)" d="M9.5,0A9.5,9.5,0,1,1,-9.5,0A9.5,9.5,0,1,1,9.5,0" style="fill: #54a24b; stroke-width: 2; opacity: 0.7;"></path><path transform="translate(435.71428571428567,344.44444444444446)" d="M9.5,0A9.5,9.5,0,1,1,-9.5,0A9.5,9.5,0,1,1,9.5,0" style="fill: #54a24b; stroke-width: 2; opacity: 0.7;"></path><path transform="translate(285.7142857142857,333.33333333333337)" d="M9.5,0A9.5,9.5,0,1,1,-9.5,0A9.5,9.5,0,1,1,9.5,0" style="fill: #54a24b; stroke-width: 2; opacity: 0.7;"></path><path transform="translate(300,300)" d="M9.5,0A9.5,9.5,0,1,1,-9.5,0A9.5,9.5,0,1,1,9.5,0" style="fill: #54a24b; stroke-width: 2; opacity: 0.7;"></path><path transform="translate(314.28571428571433,300)" d="M9.5,0A9.5,9.5,0,1,1,-9.5,0A9.5,9.5,0,1,1,9.5,0" style="fill: #54a24b; stroke-width: 2; opacity: 0.7;"></path><path transform="translate(328.57142857142856,333.33333333333337)" d="M9.5,0A9.5,9.5,0,1,1,-9.5,0A9.5,9.5,0,1,1,9.5,0" style="fill: #54a24b; stroke-width: 2; opacity: 0.7;"></path><path transform="translate(385.7142857142857,311.1111111111111)" d="M9.5,0A9.5,9.5,0,1,1,-9.5,0A9.5,9.5,0,1,1,9.5,0" style="fill: #54a24b; stroke-width: 2; opacity: 0.7;"></path><path transform="translate(385.7142857142857,322.22222222222223)" d="M9.5,0A9.5,9.5,0,1,1,-9.5,0A9.5,9.5,0,1,1,9.5,0" style="fill: #54a24b; stroke-width: 2; opacity: 0.7;"></path><path transform="translate(385.7142857142857,300)" d="M9.5,0A9.5,9.5,0,1,1,-9.5,0A9.5,9.5,0,1,1,9.5,0" style="fill: #54a24b; stroke-width: 2; opacity: 0.7;"></path><path transform="translate(285.7142857142857,311.1111111111111)" d="M8.227241335952167,0A8.227241335952167,8.227241335952167,0,1,1,-8.227241335952167,0A8.227241335952167,8.227241335952167,0,1,1,8.227241335952167,0" style="fill: #54a24b; stroke-width: 2; opacity: 0.7;"></path><path transform="translate(285.7142857142857,288.8888888888889)" d="M8.227241335952167,0A8.227241335952167,8.227241335952167,0,1,1,-8.227241335952167,0A8.227241335952167,8.227241335952167,0,1,1,8.227241335952167,0" style="fill: #54a24b; stroke-width: 2; opacity: 0.7;"></path><path transform="translate(328.57142857142856,288.8888888888889)" d="M9.5,0A9.5,9.5,0,1,1,-9.5,0A9.5,9.5,0,1,1,9.5,0" style="fill: #54a24b; stroke-width: 2; opacity: 0.7;"></path><path transform="translate(357.14285714285717,311.1111111111111)" d="M9.5,0A9.5,9.5,0,1,1,-9.5,0A9.5,9.5,0,1,1,9.5,0" style="fill: #54a24b; stroke-width: 2; opacity: 0.7;"></path><path transform="translate(171.42857142857142,177.77777777777777)" d="M6.7175144212722016,0A6.7175144212722016,6.7175144212722016,0,1,1,-6.7175144212722016,0A6.7175144212722016,6.7175144212722016,0,1,1,6.7175144212722016,0" style="fill: #4c78a8; stroke-width: 2; opacity: 0.7;"></path><path transform="translate(171.42857142857142,200)" d="M6.7175144212722016,0A6.7175144212722016,6.7175144212722016,0,1,1,-6.7175144212722016,0A6.7175144212722016,6.7175144212722016,0,1,1,6.7175144212722016,0" style="fill: #4c78a8; stroke-width: 2; opacity: 0.7;"></path><path transform="translate(178.57142857142858,155.55555555555554)" d="M6.7175144212722016,0A6.7175144212722016,6.7175144212722016,0,1,1,-6.7175144212722016,0A6.7175144212722016,6.7175144212722016,0,1,1,6.7175144212722016,0" style="fill: #e45756; stroke-width: 2; opacity: 0.7;"></path><path transform="translate(178.57142857142858,144.44444444444446)" d="M6.7175144212722016,0A6.7175144212722016,6.7175144212722016,0,1,1,-6.7175144212722016,0A6.7175144212722016,6.7175144212722016,0,1,1,6.7175144212722016,0" style="fill: #e45756; stroke-width: 2; opacity: 0.7;"></path><path transform="translate(250,200)" d="M8.227241335952167,0A8.227241335952167,8.227241335952167,0,1,1,-8.227241335952167,0A8.227241335952167,8.227241335952167,0,1,1,8.227241335952167,0" style="fill: #e45756; stroke-width: 2; opacity: 0.7;"></path><path transform="translate(250,211.11111111111114)" d="M8.227241335952167,0A8.227241335952167,8.227241335952167,0,1,1,-8.227241335952167,0A8.227241335952167,8.227241335952167,0,1,1,8.227241335952167,0" style="fill: #e45756; stroke-width: 2; opacity: 0.7;"></path><path transform="translate(214.28571428571428,211.11111111111114)" d="M8.227241335952167,0A8.227241335952167,8.227241335952167,0,1,1,-8.227241335952167,0A8.227241335952167,8.227241335952167,0,1,1,8.227241335952167,0" style="fill: #e45756; stroke-width: 2; opacity: 0.7;"></path><path transform="translate(214.28571428571428,222.22222222222223)" d="M8.227241335952167,0A8.227241335952167,8.227241335952167,0,1,1,-8.227241335952167,0A8.227241335952167,8.227241335952167,0,1,1,8.227241335952167,0" style="fill: #e45756; stroke-width: 2; opacity: 0.7;"></path><path transform="translate(250,222.22222222222223)" d="M8.227241335952167,0A8.227241335952167,8.227241335952167,0,1,1,-8.227241335952167,0A8.227241335952167,8.227241335952167,0,1,1,8.227241335952167,0" style="fill: #e45756; stroke-width: 2; opacity: 0.7;"></path><path transform="translate(235.71428571428572,311.1111111111111)" d="M8.227241335952167,0A8.227241335952167,8.227241335952167,0,1,1,-8.227241335952167,0A8.227241335952167,8.227241335952167,0,1,1,8.227241335952167,0" style="fill: #54a24b; stroke-width: 2; opacity: 0.7;"></path><path transform="translate(235.71428571428572,311.1111111111111)" d="M8.227241335952167,0A8.227241335952167,8.227241335952167,0,1,1,-8.227241335952167,0A8.227241335952167,8.227241335952167,0,1,1,8.227241335952167,0" style="fill: #54a24b; stroke-width: 2; opacity: 0.7;"></path><path transform="translate(285.7142857142857,277.7777777777778)" d="M8.227241335952167,0A8.227241335952167,8.227241335952167,0,1,1,-8.227241335952167,0A8.227241335952167,8.227241335952167,0,1,1,8.227241335952167,0" style="fill: #54a24b; stroke-width: 2; opacity: 0.7;"></path><path transform="translate(399.99999999999994,300)" d="M9.5,0A9.5,9.5,0,1,1,-9.5,0A9.5,9.5,0,1,1,9.5,0" style="fill: #54a24b; stroke-width: 2; opacity: 0.7;"></path><path transform="translate(221.42857142857144,211.11111111111114)" d="M8.227241335952167,0A8.227241335952167,8.227241335952167,0,1,1,-8.227241335952167,0A8.227241335952167,8.227241335952167,0,1,1,8.227241335952167,0" style="fill: #e45756; stroke-width: 2; opacity: 0.7;"></path><path transform="translate(271.4285714285714,211.11111111111114)" d="M8.227241335952167,0A8.227241335952167,8.227241335952167,0,1,1,-8.227241335952167,0A8.227241335952167,8.227241335952167,0,1,1,8.227241335952167,0" style="fill: #e45756; stroke-width: 2; opacity: 0.7;"></path><path transform="translate(271.4285714285714,200)" d="M8.227241335952167,0A8.227241335952167,8.227241335952167,0,1,1,-8.227241335952167,0A8.227241335952167,8.227241335952167,0,1,1,8.227241335952167,0" style="fill: #e45756; stroke-width: 2; opacity: 0.7;"></path><path transform="translate(271.4285714285714,188.88888888888886)" d="M8.227241335952167,0A8.227241335952167,8.227241335952167,0,1,1,-8.227241335952167,0A8.227241335952167,8.227241335952167,0,1,1,8.227241335952167,0" style="fill: #e45756; stroke-width: 2; opacity: 0.7;"></path><path transform="translate(378.57142857142856,222.22222222222223)" d="M9.5,0A9.5,9.5,0,1,1,-9.5,0A9.5,9.5,0,1,1,9.5,0" style="fill: #e45756; stroke-width: 2; opacity: 0.7;"></path><path transform="translate(178.57142857142858,222.22222222222223)" d="M6.7175144212722016,0A6.7175144212722016,6.7175144212722016,0,1,1,-6.7175144212722016,0A6.7175144212722016,6.7175144212722016,0,1,1,6.7175144212722016,0" style="fill: #54a24b; stroke-width: 2; opacity: 0.7;"></path><path transform="translate(178.57142857142858,233.33333333333331)" d="M6.7175144212722016,0A6.7175144212722016,6.7175144212722016,0,1,1,-6.7175144212722016,0A6.7175144212722016,6.7175144212722016,0,1,1,6.7175144212722016,0" style="fill: #54a24b; stroke-width: 2; opacity: 0.7;"></path><path transform="translate(178.57142857142858,200)" d="M6.7175144212722016,0A6.7175144212722016,6.7175144212722016,0,1,1,-6.7175144212722016,0A6.7175144212722016,6.7175144212722016,0,1,1,6.7175144212722016,0" style="fill: #54a24b; stroke-width: 2; opacity: 0.7;"></path><path transform="translate(178.57142857142858,222.22222222222223)" d="M6.7175144212722016,0A6.7175144212722016,6.7175144212722016,0,1,1,-6.7175144212722016,0A6.7175144212722016,6.7175144212722016,0,1,1,6.7175144212722016,0" style="fill: #54a24b; stroke-width: 2; opacity: 0.7;"></path><path transform="translate(178.57142857142858,211.11111111111114)" d="M6.7175144212722016,0A6.7175144212722016,6.7175144212722016,0,1,1,-6.7175144212722016,0A6.7175144212722016,6.7175144212722016,0,1,1,6.7175144212722016,0" style="fill: #54a24b; stroke-width: 2; opacity: 0.7;"></path><path transform="translate(178.57142857142858,244.44444444444446)" d="M6.7175144212722016,0A6.7175144212722016,6.7175144212722016,0,1,1,-6.7175144212722016,0A6.7175144212722016,6.7175144212722016,0,1,1,6.7175144212722016,0" style="fill: #54a24b; stroke-width: 2; opacity: 0.7;"></path><path transform="translate(157.14285714285717,211.11111111111114)" d="M6.7175144212722016,0A6.7175144212722016,6.7175144212722016,0,1,1,-6.7175144212722016,0A6.7175144212722016,6.7175144212722016,0,1,1,6.7175144212722016,0" style="fill: #eeca3b; stroke-width: 2; opacity: 0.7;"></path><path transform="translate(157.14285714285717,211.11111111111114)" d="M6.7175144212722016,0A6.7175144212722016,6.7175144212722016,0,1,1,-6.7175144212722016,0A6.7175144212722016,6.7175144212722016,0,1,1,6.7175144212722016,0" style="fill: #eeca3b; stroke-width: 2; opacity: 0.7;"></path><path transform="translate(178.57142857142858,211.11111111111114)" d="M6.7175144212722016,0A6.7175144212722016,6.7175144212722016,0,1,1,-6.7175144212722016,0A6.7175144212722016,6.7175144212722016,0,1,1,6.7175144212722016,0" style="fill: #eeca3b; stroke-width: 2; opacity: 0.7;"></path><path transform="translate(178.57142857142858,211.11111111111114)" d="M6.7175144212722016,0A6.7175144212722016,6.7175144212722016,0,1,1,-6.7175144212722016,0A6.7175144212722016,6.7175144212722016,0,1,1,6.7175144212722016,0" style="fill: #eeca3b; stroke-width: 2; opacity: 0.7;"></path><path transform="translate(178.57142857142858,222.22222222222223)" d="M6.7175144212722016,0A6.7175144212722016,6.7175144212722016,0,1,1,-6.7175144212722016,0A6.7175144212722016,6.7175144212722016,0,1,1,6.7175144212722016,0" style="fill: #4c78a8; stroke-width: 2; opacity: 0.7;"></path><path transform="translate(178.57142857142858,200)" d="M6.7175144212722016,0A6.7175144212722016,6.7175144212722016,0,1,1,-6.7175144212722016,0A6.7175144212722016,6.7175144212722016,0,1,1,6.7175144212722016,0" style="fill: #4c78a8; stroke-width: 2; opacity: 0.7;"></path><path transform="translate(178.57142857142858,222.22222222222223)" d="M6.7175144212722016,0A6.7175144212722016,6.7175144212722016,0,1,1,-6.7175144212722016,0A6.7175144212722016,6.7175144212722016,0,1,1,6.7175144212722016,0" style="fill: #4c78a8; stroke-width: 2; opacity: 0.7;"></path><path transform="translate(178.57142857142858,200)" d="M6.7175144212722016,0A6.7175144212722016,6.7175144212722016,0,1,1,-6.7175144212722016,0A6.7175144212722016,6.7175144212722016,0,1,1,6.7175144212722016,0" style="fill: #4c78a8; stroke-width: 2; opacity: 0.7;"></path><path transform="translate(192.85714285714286,277.7777777777778)" d="M6.7175144212722016,0A6.7175144212722016,6.7175144212722016,0,1,1,-6.7175144212722016,0A6.7175144212722016,6.7175144212722016,0,1,1,6.7175144212722016,0" style="fill: #54a24b; stroke-width: 2; opacity: 0.7;"></path><path transform="translate(192.85714285714286,277.7777777777778)" d="M6.7175144212722016,0A6.7175144212722016,6.7175144212722016,0,1,1,-6.7175144212722016,0A6.7175144212722016,6.7175144212722016,0,1,1,6.7175144212722016,0" style="fill: #54a24b; stroke-width: 2; opacity: 0.7;"></path><path transform="translate(242.85714285714286,288.8888888888889)" d="M8.227241335952167,0A8.227241335952167,8.227241335952167,0,1,1,-8.227241335952167,0A8.227241335952167,8.227241335952167,0,1,1,8.227241335952167,0" style="fill: #54a24b; stroke-width: 2; opacity: 0.7;"></path><path transform="translate(242.85714285714286,311.1111111111111)" d="M8.227241335952167,0A8.227241335952167,8.227241335952167,0,1,1,-8.227241335952167,0A8.227241335952167,8.227241335952167,0,1,1,8.227241335952167,0" style="fill: #54a24b; stroke-width: 2; opacity: 0.7;"></path><path transform="translate(285.7142857142857,277.7777777777778)" d="M8.227241335952167,0A8.227241335952167,8.227241335952167,0,1,1,-8.227241335952167,0A8.227241335952167,8.227241335952167,0,1,1,8.227241335952167,0" style="fill: #54a24b; stroke-width: 2; opacity: 0.7;"></path><path transform="translate(335.7142857142857,311.1111111111111)" d="M9.5,0A9.5,9.5,0,1,1,-9.5,0A9.5,9.5,0,1,1,9.5,0" style="fill: #54a24b; stroke-width: 2; opacity: 0.7;"></path><path transform="translate(157.14285714285717,177.77777777777777)" d="M6.7175144212722016,0A6.7175144212722016,6.7175144212722016,0,1,1,-6.7175144212722016,0A6.7175144212722016,6.7175144212722016,0,1,1,6.7175144212722016,0" style="fill: #e45756; stroke-width: 2; opacity: 0.7;"></path><path transform="translate(157.14285714285717,200)" d="M6.7175144212722016,0A6.7175144212722016,6.7175144212722016,0,1,1,-6.7175144212722016,0A6.7175144212722016,6.7175144212722016,0,1,1,6.7175144212722016,0" style="fill: #e45756; stroke-width: 2; opacity: 0.7;"></path><path transform="translate(171.42857142857142,155.55555555555554)" d="M6.7175144212722016,0A6.7175144212722016,6.7175144212722016,0,1,1,-6.7175144212722016,0A6.7175144212722016,6.7175144212722016,0,1,1,6.7175144212722016,0" style="fill: #e45756; stroke-width: 2; opacity: 0.7;"></path><path transform="translate(171.42857142857142,155.55555555555554)" d="M6.7175144212722016,0A6.7175144212722016,6.7175144212722016,0,1,1,-6.7175144212722016,0A6.7175144212722016,6.7175144212722016,0,1,1,6.7175144212722016,0" style="fill: #e45756; stroke-width: 2; opacity: 0.7;"></path><path transform="translate(214.28571428571428,211.11111111111114)" d="M8.227241335952167,0A8.227241335952167,8.227241335952167,0,1,1,-8.227241335952167,0A8.227241335952167,8.227241335952167,0,1,1,8.227241335952167,0" style="fill: #e45756; stroke-width: 2; opacity: 0.7;"></path><path transform="translate(214.28571428571428,211.11111111111114)" d="M8.227241335952167,0A8.227241335952167,8.227241335952167,0,1,1,-8.227241335952167,0A8.227241335952167,8.227241335952167,0,1,1,8.227241335952167,0" style="fill: #e45756; stroke-width: 2; opacity: 0.7;"></path><path transform="translate(250,188.88888888888886)" d="M8.227241335952167,0A8.227241335952167,8.227241335952167,0,1,1,-8.227241335952167,0A8.227241335952167,8.227241335952167,0,1,1,8.227241335952167,0" style="fill: #e45756; stroke-width: 2; opacity: 0.7;"></path><path transform="translate(157.14285714285717,200)" d="M6.7175144212722016,0A6.7175144212722016,6.7175144212722016,0,1,1,-6.7175144212722016,0A6.7175144212722016,6.7175144212722016,0,1,1,6.7175144212722016,0" style="fill: #4c78a8; stroke-width: 2; opacity: 0.7;"></path><path transform="translate(157.14285714285717,177.77777777777777)" d="M6.7175144212722016,0A6.7175144212722016,6.7175144212722016,0,1,1,-6.7175144212722016,0A6.7175144212722016,6.7175144212722016,0,1,1,6.7175144212722016,0" style="fill: #4c78a8; stroke-width: 2; opacity: 0.7;"></path><path transform="translate(171.42857142857142,155.55555555555554)" d="M6.7175144212722016,0A6.7175144212722016,6.7175144212722016,0,1,1,-6.7175144212722016,0A6.7175144212722016,6.7175144212722016,0,1,1,6.7175144212722016,0" style="fill: #4c78a8; stroke-width: 2; opacity: 0.7;"></path><path transform="translate(171.42857142857142,155.55555555555554)" d="M6.7175144212722016,0A6.7175144212722016,6.7175144212722016,0,1,1,-6.7175144212722016,0A6.7175144212722016,6.7175144212722016,0,1,1,6.7175144212722016,0" style="fill: #4c78a8; stroke-width: 2; opacity: 0.7;"></path><path transform="translate(214.28571428571428,211.11111111111114)" d="M8.227241335952167,0A8.227241335952167,8.227241335952167,0,1,1,-8.227241335952167,0A8.227241335952167,8.227241335952167,0,1,1,8.227241335952167,0" style="fill: #4c78a8; stroke-width: 2; opacity: 0.7;"></path><path transform="translate(214.28571428571428,211.11111111111114)" d="M8.227241335952167,0A8.227241335952167,8.227241335952167,0,1,1,-8.227241335952167,0A8.227241335952167,8.227241335952167,0,1,1,8.227241335952167,0" style="fill: #4c78a8; stroke-width: 2; opacity: 0.7;"></path><path transform="translate(235.71428571428572,200)" d="M8.227241335952167,0A8.227241335952167,8.227241335952167,0,1,1,-8.227241335952167,0A8.227241335952167,8.227241335952167,0,1,1,8.227241335952167,0" style="fill: #4c78a8; stroke-width: 2; opacity: 0.7;"></path><path transform="translate(128.57142857142858,166.66666666666669)" d="M6.7175144212722016,0A6.7175144212722016,6.7175144212722016,0,1,1,-6.7175144212722016,0A6.7175144212722016,6.7175144212722016,0,1,1,6.7175144212722016,0" style="fill: #4c78a8; stroke-width: 2; opacity: 0.7;"></path><path transform="translate(128.57142857142858,133.33333333333337)" d="M6.7175144212722016,0A6.7175144212722016,6.7175144212722016,0,1,1,-6.7175144212722016,0A6.7175144212722016,6.7175144212722016,0,1,1,6.7175144212722016,0" style="fill: #4c78a8; stroke-width: 2; opacity: 0.7;"></path><path transform="translate(128.57142857142858,111.11111111111109)" d="M6.7175144212722016,0A6.7175144212722016,6.7175144212722016,0,1,1,-6.7175144212722016,0A6.7175144212722016,6.7175144212722016,0,1,1,6.7175144212722016,0" style="fill: #4c78a8; stroke-width: 2; opacity: 0.7;"></path><path transform="translate(128.57142857142858,88.88888888888891)" d="M6.7175144212722016,0A6.7175144212722016,6.7175144212722016,0,1,1,-6.7175144212722016,0A6.7175144212722016,6.7175144212722016,0,1,1,6.7175144212722016,0" style="fill: #4c78a8; stroke-width: 2; opacity: 0.7;"></path><path transform="translate(128.57142857142858,111.11111111111109)" d="M6.7175144212722016,0A6.7175144212722016,6.7175144212722016,0,1,1,-6.7175144212722016,0A6.7175144212722016,6.7175144212722016,0,1,1,6.7175144212722016,0" style="fill: #4c78a8; stroke-width: 2; opacity: 0.7;"></path><path transform="translate(335.7142857142857,333.33333333333337)" d="M9.5,0A9.5,9.5,0,1,1,-9.5,0A9.5,9.5,0,1,1,9.5,0" style="fill: #54a24b; stroke-width: 2; opacity: 0.7;"></path><path transform="translate(407.14285714285717,300)" d="M9.5,0A9.5,9.5,0,1,1,-9.5,0A9.5,9.5,0,1,1,9.5,0" style="fill: #54a24b; stroke-width: 2; opacity: 0.7;"></path><path transform="translate(192.85714285714286,277.7777777777778)" d="M6.7175144212722016,0A6.7175144212722016,6.7175144212722016,0,1,1,-6.7175144212722016,0A6.7175144212722016,6.7175144212722016,0,1,1,6.7175144212722016,0" style="fill: #72b7b2; stroke-width: 2; opacity: 0.7;"></path><path transform="translate(192.85714285714286,277.7777777777778)" d="M6.7175144212722016,0A6.7175144212722016,6.7175144212722016,0,1,1,-6.7175144212722016,0A6.7175144212722016,6.7175144212722016,0,1,1,6.7175144212722016,0" style="fill: #72b7b2; stroke-width: 2; opacity: 0.7;"></path><path transform="translate(192.85714285714286,255.55555555555557)" d="M6.7175144212722016,0A6.7175144212722016,6.7175144212722016,0,1,1,-6.7175144212722016,0A6.7175144212722016,6.7175144212722016,0,1,1,6.7175144212722016,0" style="fill: #72b7b2; stroke-width: 2; opacity: 0.7;"></path><path transform="translate(242.85714285714286,311.1111111111111)" d="M8.227241335952167,0A8.227241335952167,8.227241335952167,0,1,1,-8.227241335952167,0A8.227241335952167,8.227241335952167,0,1,1,8.227241335952167,0" style="fill: #72b7b2; stroke-width: 2; opacity: 0.7;"></path><path transform="translate(242.85714285714286,288.8888888888889)" d="M8.227241335952167,0A8.227241335952167,8.227241335952167,0,1,1,-8.227241335952167,0A8.227241335952167,8.227241335952167,0,1,1,8.227241335952167,0" style="fill: #72b7b2; stroke-width: 2; opacity: 0.7;"></path><path transform="translate(285.7142857142857,300)" d="M8.227241335952167,0A8.227241335952167,8.227241335952167,0,1,1,-8.227241335952167,0A8.227241335952167,8.227241335952167,0,1,1,8.227241335952167,0" style="fill: #72b7b2; stroke-width: 2; opacity: 0.7;"></path><path transform="translate(285.7142857142857,277.7777777777778)" d="M8.227241335952167,0A8.227241335952167,8.227241335952167,0,1,1,-8.227241335952167,0A8.227241335952167,8.227241335952167,0,1,1,8.227241335952167,0" style="fill: #72b7b2; stroke-width: 2; opacity: 0.7;"></path><path transform="translate(142.85714285714286,177.77777777777777)" d="M6.7175144212722016,0A6.7175144212722016,6.7175144212722016,0,1,1,-6.7175144212722016,0A6.7175144212722016,6.7175144212722016,0,1,1,6.7175144212722016,0" style="fill: #4c78a8; stroke-width: 2; opacity: 0.7;"></path><path transform="translate(142.85714285714286,211.11111111111114)" d="M6.7175144212722016,0A6.7175144212722016,6.7175144212722016,0,1,1,-6.7175144212722016,0A6.7175144212722016,6.7175144212722016,0,1,1,6.7175144212722016,0" style="fill: #4c78a8; stroke-width: 2; opacity: 0.7;"></path><path transform="translate(142.85714285714286,177.77777777777777)" d="M6.7175144212722016,0A6.7175144212722016,6.7175144212722016,0,1,1,-6.7175144212722016,0A6.7175144212722016,6.7175144212722016,0,1,1,6.7175144212722016,0" style="fill: #4c78a8; stroke-width: 2; opacity: 0.7;"></path><path transform="translate(142.85714285714286,177.77777777777777)" d="M6.7175144212722016,0A6.7175144212722016,6.7175144212722016,0,1,1,-6.7175144212722016,0A6.7175144212722016,6.7175144212722016,0,1,1,6.7175144212722016,0" style="fill: #4c78a8; stroke-width: 2; opacity: 0.7;"></path><path transform="translate(199.99999999999997,233.33333333333331)" d="M8.227241335952167,0A8.227241335952167,8.227241335952167,0,1,1,-8.227241335952167,0A8.227241335952167,8.227241335952167,0,1,1,8.227241335952167,0" style="fill: #4c78a8; stroke-width: 2; opacity: 0.7;"></path><path transform="translate(135.7142857142857,11.111111111111143)" d="M6.7175144212722016,0A6.7175144212722016,6.7175144212722016,0,1,1,-6.7175144212722016,0A6.7175144212722016,6.7175144212722016,0,1,1,6.7175144212722016,0" style="fill: #4c78a8; stroke-width: 2; opacity: 0.7;"></path><path transform="translate(142.85714285714286,177.77777777777777)" d="M6.7175144212722016,0A6.7175144212722016,6.7175144212722016,0,1,1,-6.7175144212722016,0A6.7175144212722016,6.7175144212722016,0,1,1,6.7175144212722016,0" style="fill: #4c78a8; stroke-width: 2; opacity: 0.7;"></path><path transform="translate(142.85714285714286,211.11111111111114)" d="M6.7175144212722016,0A6.7175144212722016,6.7175144212722016,0,1,1,-6.7175144212722016,0A6.7175144212722016,6.7175144212722016,0,1,1,6.7175144212722016,0" style="fill: #4c78a8; stroke-width: 2; opacity: 0.7;"></path><path transform="translate(142.85714285714286,177.77777777777777)" d="M6.7175144212722016,0A6.7175144212722016,6.7175144212722016,0,1,1,-6.7175144212722016,0A6.7175144212722016,6.7175144212722016,0,1,1,6.7175144212722016,0" style="fill: #4c78a8; stroke-width: 2; opacity: 0.7;"></path><path transform="translate(142.85714285714286,177.77777777777777)" d="M6.7175144212722016,0A6.7175144212722016,6.7175144212722016,0,1,1,-6.7175144212722016,0A6.7175144212722016,6.7175144212722016,0,1,1,6.7175144212722016,0" style="fill: #4c78a8; stroke-width: 2; opacity: 0.7;"></path><path transform="translate(178.57142857142858,177.77777777777777)" d="M7.510409442899901,0A7.510409442899901,7.510409442899901,0,1,1,-7.510409442899901,0A7.510409442899901,7.510409442899901,0,1,1,7.510409442899901,0" style="fill: #4c78a8; stroke-width: 2; opacity: 0.7;"></path><path transform="translate(178.57142857142858,177.77777777777777)" d="M7.510409442899901,0A7.510409442899901,7.510409442899901,0,1,1,-7.510409442899901,0A7.510409442899901,7.510409442899901,0,1,1,7.510409442899901,0" style="fill: #4c78a8; stroke-width: 2; opacity: 0.7;"></path><path transform="translate(199.99999999999997,244.44444444444446)" d="M8.227241335952167,0A8.227241335952167,8.227241335952167,0,1,1,-8.227241335952167,0A8.227241335952167,8.227241335952167,0,1,1,8.227241335952167,0" style="fill: #4c78a8; stroke-width: 2; opacity: 0.7;"></path><path transform="translate(199.99999999999997,233.33333333333331)" d="M8.227241335952167,0A8.227241335952167,8.227241335952167,0,1,1,-8.227241335952167,0A8.227241335952167,8.227241335952167,0,1,1,8.227241335952167,0" style="fill: #4c78a8; stroke-width: 2; opacity: 0.7;"></path><path transform="translate(135.7142857142857,11.111111111111143)" d="M6.7175144212722016,0A6.7175144212722016,6.7175144212722016,0,1,1,-6.7175144212722016,0A6.7175144212722016,6.7175144212722016,0,1,1,6.7175144212722016,0" style="fill: #eeca3b; stroke-width: 2; opacity: 0.7;"></path><path transform="translate(135.7142857142857,44.44444444444446)" d="M6.7175144212722016,0A6.7175144212722016,6.7175144212722016,0,1,1,-6.7175144212722016,0A6.7175144212722016,6.7175144212722016,0,1,1,6.7175144212722016,0" style="fill: #eeca3b; stroke-width: 2; opacity: 0.7;"></path><path transform="translate(142.85714285714286,177.77777777777777)" d="M6.7175144212722016,0A6.7175144212722016,6.7175144212722016,0,1,1,-6.7175144212722016,0A6.7175144212722016,6.7175144212722016,0,1,1,6.7175144212722016,0" style="fill: #eeca3b; stroke-width: 2; opacity: 0.7;"></path><path transform="translate(142.85714285714286,211.11111111111114)" d="M6.7175144212722016,0A6.7175144212722016,6.7175144212722016,0,1,1,-6.7175144212722016,0A6.7175144212722016,6.7175144212722016,0,1,1,6.7175144212722016,0" style="fill: #eeca3b; stroke-width: 2; opacity: 0.7;"></path><path transform="translate(178.57142857142858,188.88888888888886)" d="M7.510409442899901,0A7.510409442899901,7.510409442899901,0,1,1,-7.510409442899901,0A7.510409442899901,7.510409442899901,0,1,1,7.510409442899901,0" style="fill: #eeca3b; stroke-width: 2; opacity: 0.7;"></path><path transform="translate(178.57142857142858,177.77777777777777)" d="M7.510409442899901,0A7.510409442899901,7.510409442899901,0,1,1,-7.510409442899901,0A7.510409442899901,7.510409442899901,0,1,1,7.510409442899901,0" style="fill: #eeca3b; stroke-width: 2; opacity: 0.7;"></path><path transform="translate(128.57142857142858,177.77777777777777)" d="M6.7175144212722016,0A6.7175144212722016,6.7175144212722016,0,1,1,-6.7175144212722016,0A6.7175144212722016,6.7175144212722016,0,1,1,6.7175144212722016,0" style="fill: #e45756; stroke-width: 2; opacity: 0.7;"></path><path transform="translate(128.57142857142858,177.77777777777777)" d="M6.7175144212722016,0A6.7175144212722016,6.7175144212722016,0,1,1,-6.7175144212722016,0A6.7175144212722016,6.7175144212722016,0,1,1,6.7175144212722016,0" style="fill: #e45756; stroke-width: 2; opacity: 0.7;"></path><path transform="translate(142.85714285714286,188.88888888888886)" d="M6.7175144212722016,0A6.7175144212722016,6.7175144212722016,0,1,1,-6.7175144212722016,0A6.7175144212722016,6.7175144212722016,0,1,1,6.7175144212722016,0" style="fill: #e45756; stroke-width: 2; opacity: 0.7;"></path><path transform="translate(142.85714285714286,177.77777777777777)" d="M6.7175144212722016,0A6.7175144212722016,6.7175144212722016,0,1,1,-6.7175144212722016,0A6.7175144212722016,6.7175144212722016,0,1,1,6.7175144212722016,0" style="fill: #e45756; stroke-width: 2; opacity: 0.7;"></path><path transform="translate(199.99999999999997,211.11111111111114)" d="M8.227241335952167,0A8.227241335952167,8.227241335952167,0,1,1,-8.227241335952167,0A8.227241335952167,8.227241335952167,0,1,1,8.227241335952167,0" style="fill: #e45756; stroke-width: 2; opacity: 0.7;"></path><path transform="translate(199.99999999999997,211.11111111111114)" d="M8.227241335952167,0A8.227241335952167,8.227241335952167,0,1,1,-8.227241335952167,0A8.227241335952167,8.227241335952167,0,1,1,8.227241335952167,0" style="fill: #e45756; stroke-width: 2; opacity: 0.7;"></path><path transform="translate(257.14285714285717,211.11111111111114)" d="M8.227241335952167,0A8.227241335952167,8.227241335952167,0,1,1,-8.227241335952167,0A8.227241335952167,8.227241335952167,0,1,1,8.227241335952167,0" style="fill: #e45756; stroke-width: 2; opacity: 0.7;"></path></g><g class="mark-group role-legend"><g transform="translate(518,0)"><path class="background" d="M0,0h78v105h-78Z" style="pointer-events: none; fill: none;"></path><g><g class="mark-group role-legend-entry"><g transform="translate(0,16)"><path class="background" d="M0,0h0v0h0Z" style="pointer-events: none; fill: none;"></path><g><g class="mark-group role-scope"><g transform="translate(0,0)"><path class="background" d="M0,0h77.91666793823242v11h-77.91666793823242Z" style="pointer-events: none; fill: none; opacity: 1;"></path><g><g class="mark-symbol role-legend-symbol" style="pointer-events: none;"><path transform="translate(6,6)" d="M5,0A5,5,0,1,1,-5,0A5,5,0,1,1,5,0" style="fill: #4c78a8; stroke-width: 1.5; opacity: 0.7;"></path></g><g class="mark-text role-legend-label" style="pointer-events: none;"><text text-anchor="start" transform="translate(16,9)" style="font-family: sans-serif; font-size: 10px; fill: #000; opacity: 1;">Compact</text></g></g></g><g transform="translate(0,13)"><path class="background" d="M0,0h77.91666793823242v11h-77.91666793823242Z" style="pointer-events: none; fill: none; opacity: 1;"></path><g><g class="mark-symbol role-legend-symbol" style="pointer-events: none;"><path transform="translate(6,6)" d="M5,0A5,5,0,1,1,-5,0A5,5,0,1,1,5,0" style="fill: #f58518; stroke-width: 1.5; opacity: 0.7;"></path></g><g class="mark-text role-legend-label" style="pointer-events: none;"><text text-anchor="start" transform="translate(16,9)" style="font-family: sans-serif; font-size: 10px; fill: #000; opacity: 1;">MPV</text></g></g></g><g transform="translate(0,26)"><path class="background" d="M0,0h77.91666793823242v11h-77.91666793823242Z" style="pointer-events: none; fill: none; opacity: 1;"></path><g><g class="mark-symbol role-legend-symbol" style="pointer-events: none;"><path transform="translate(6,6)" d="M5,0A5,5,0,1,1,-5,0A5,5,0,1,1,5,0" style="fill: #e45756; stroke-width: 1.5; opacity: 0.7;"></path></g><g class="mark-text role-legend-label" style="pointer-events: none;"><text text-anchor="start" transform="translate(16,9)" style="font-family: sans-serif; font-size: 10px; fill: #000; opacity: 1;">Middenklasse</text></g></g></g><g transform="translate(0,39)"><path class="background" d="M0,0h77.91666793823242v11h-77.91666793823242Z" style="pointer-events: none; fill: none; opacity: 1;"></path><g><g class="mark-symbol role-legend-symbol" style="pointer-events: none;"><path transform="translate(6,6)" d="M5,0A5,5,0,1,1,-5,0A5,5,0,1,1,5,0" style="fill: #72b7b2; stroke-width: 1.5; opacity: 0.7;"></path></g><g class="mark-text role-legend-label" style="pointer-events: none;"><text text-anchor="start" transform="translate(16,9)" style="font-family: sans-serif; font-size: 10px; fill: #000; opacity: 1;">Pickup</text></g></g></g><g transform="translate(0,52)"><path class="background" d="M0,0h77.91666793823242v11h-77.91666793823242Z" style="pointer-events: none; fill: none; opacity: 1;"></path><g><g class="mark-symbol role-legend-symbol" style="pointer-events: none;"><path transform="translate(6,6)" d="M5,0A5,5,0,1,1,-5,0A5,5,0,1,1,5,0" style="fill: #54a24b; stroke-width: 1.5; opacity: 0.7;"></path></g><g class="mark-text role-legend-label" style="pointer-events: none;"><text text-anchor="start" transform="translate(16,9)" style="font-family: sans-serif; font-size: 10px; fill: #000; opacity: 1;">SUV</text></g></g></g><g transform="translate(0,65)"><path class="background" d="M0,0h77.91666793823242v11h-77.91666793823242Z" style="pointer-events: none; fill: none; opacity: 1;"></path><g><g class="mark-symbol role-legend-symbol" style="pointer-events: none;"><path transform="translate(6,6)" d="M5,0A5,5,0,1,1,-5,0A5,5,0,1,1,5,0" style="fill: #eeca3b; stroke-width: 1.5; opacity: 0.7;"></path></g><g class="mark-text role-legend-label" style="pointer-events: none;"><text text-anchor="start" transform="translate(16,9)" style="font-family: sans-serif; font-size: 10px; fill: #000; opacity: 1;">Subcompact</text></g></g></g><g transform="translate(0,78)"><path class="background" d="M0,0h77.91666793823242v11h-77.91666793823242Z" style="pointer-events: none; fill: none; opacity: 1;"></path><g><g class="mark-symbol role-legend-symbol" style="pointer-events: none;"><path transform="translate(6,6)" d="M5,0A5,5,0,1,1,-5,0A5,5,0,1,1,5,0" style="fill: #b279a2; stroke-width: 1.5; opacity: 0.7;"></path></g><g class="mark-text role-legend-label" style="pointer-events: none;"><text text-anchor="start" transform="translate(16,9)" style="font-family: sans-serif; font-size: 10px; fill: #000; opacity: 1;">Tweezitter</text></g></g></g></g></g></g></g><g class="mark-text role-legend-title" style="pointer-events: none;"><text text-anchor="start" transform="translate(0,9)" style="font-family: sans-serif; font-size: 11px; font-weight: bold; fill: #000; opacity: 1;">Soort</text></g></g></g></g><g class="mark-group role-legend"><g transform="translate(518,113)"><path class="background" d="M0,0h83v94h-83Z" style="pointer-events: none; fill: none;"></path><g><g class="mark-group role-legend-entry"><g transform="translate(0,16)"><path class="background" d="M0,0h0v0h0Z" style="pointer-events: none; fill: none;"></path><g><g class="mark-group role-scope"><g transform="translate(0,0)"><path class="background" d="M0,0h31v11.75h-31Z" style="pointer-events: none; fill: none; opacity: 1;"></path><g><g class="mark-symbol role-legend-symbol" style="pointer-events: none;"><path transform="translate(10.5,5.5)" d="M4.75,0A4.75,4.75,0,1,1,-4.75,0A4.75,4.75,0,1,1,4.75,0" style="fill: black; fill-opacity: 0.7; stroke: none; stroke-width: 1.5; opacity: 0.7;"></path></g><g class="mark-text role-legend-label" style="pointer-events: none;"><text text-anchor="start" transform="translate(25,8.5)" style="font-family: sans-serif; font-size: 10px; fill: #000; opacity: 1;">2</text></g></g></g><g transform="translate(0,15)"><path class="background" d="M0,0h31v15.717514421272202h-31Z" style="pointer-events: none; fill: none; opacity: 1;"></path><g><g class="mark-symbol role-legend-symbol" style="pointer-events: none;"><path transform="translate(10.5,7.5)" d="M6.7175144212722016,0A6.7175144212722016,6.7175144212722016,0,1,1,-6.7175144212722016,0A6.7175144212722016,6.7175144212722016,0,1,1,6.7175144212722016,0" style="fill: black; fill-opacity: 0.7; stroke: none; stroke-width: 1.5; opacity: 0.7;"></path></g><g class="mark-text role-legend-label" style="pointer-events: none;"><text text-anchor="start" transform="translate(25,10.5)" style="font-family: sans-serif; font-size: 10px; fill: #000; opacity: 1;">4</text></g></g></g><g transform="translate(0,34)"><path class="background" d="M0,0h31v18.727241335952165h-31Z" style="pointer-events: none; fill: none; opacity: 1;"></path><g><g class="mark-symbol role-legend-symbol" style="pointer-events: none;"><path transform="translate(10.5,9)" d="M8.227241335952167,0A8.227241335952167,8.227241335952167,0,1,1,-8.227241335952167,0A8.227241335952167,8.227241335952167,0,1,1,8.227241335952167,0" style="fill: black; fill-opacity: 0.7; stroke: none; stroke-width: 1.5; opacity: 0.7;"></path></g><g class="mark-text role-legend-label" style="pointer-events: none;"><text text-anchor="start" transform="translate(25,12)" style="font-family: sans-serif; font-size: 10px; fill: #000; opacity: 1;">6</text></g></g></g><g transform="translate(0,56)"><path class="background" d="M0,0h31v21.5h-31Z" style="pointer-events: none; fill: none; opacity: 1;"></path><g><g class="mark-symbol role-legend-symbol" style="pointer-events: none;"><path transform="translate(10.5,10.5)" d="M9.5,0A9.5,9.5,0,1,1,-9.5,0A9.5,9.5,0,1,1,9.5,0" style="fill: black; fill-opacity: 0.7; stroke: none; stroke-width: 1.5; opacity: 0.7;"></path></g><g class="mark-text role-legend-label" style="pointer-events: none;"><text text-anchor="start" transform="translate(25,13.5)" style="font-family: sans-serif; font-size: 10px; fill: #000; opacity: 1;">8</text></g></g></g></g></g></g></g><g class="mark-text role-legend-title" style="pointer-events: none;"><text text-anchor="start" transform="translate(0,9)" style="font-family: sans-serif; font-size: 11px; font-weight: bold; fill: #000; opacity: 1;">Aantal Cilinders</text></g></g></g></g><g class="mark-text role-title" style="pointer-events: none;"><text text-anchor="middle" transform="translate(250,-12)" style="font-family: sans-serif; font-size: 13px; font-weight: bold; fill: #000; opacity: 1;">Automodellen met elk jaar een nieuwe versie tussen 1999 en 2008, bron: ggplot2, mpg</text></g><g class="mark-group role-axis"><g transform="translate(0.5,500.5)"><path class="background" d="M0,0h0v0h0Z" style="pointer-events: none; fill: none;"></path><g><g class="mark-rule role-axis-tick" style="pointer-events: none;"><line transform="translate(0,0)" x2="0" y2="5" style="fill: none; stroke: #888; stroke-width: 1; opacity: 1;"></line><line transform="translate(36,0)" x2="0" y2="5" style="fill: none; stroke: #888; stroke-width: 1; opacity: 1;"></line><line transform="translate(71,0)" x2="0" y2="5" style="fill: none; stroke: #888; stroke-width: 1; opacity: 1;"></line><line transform="translate(107,0)" x2="0" y2="5" style="fill: none; stroke: #888; stroke-width: 1; opacity: 1;"></line><line transform="translate(143,0)" x2="0" y2="5" style="fill: none; stroke: #888; stroke-width: 1; opacity: 1;"></line><line transform="translate(179,0)" x2="0" y2="5" style="fill: none; stroke: #888; stroke-width: 1; opacity: 1;"></line><line transform="translate(214,0)" x2="0" y2="5" style="fill: none; stroke: #888; stroke-width: 1; opacity: 1;"></line><line transform="translate(250,0)" x2="0" y2="5" style="fill: none; stroke: #888; stroke-width: 1; opacity: 1;"></line><line transform="translate(286,0)" x2="0" y2="5" style="fill: none; stroke: #888; stroke-width: 1; opacity: 1;"></line><line transform="translate(321,0)" x2="0" y2="5" style="fill: none; stroke: #888; stroke-width: 1; opacity: 1;"></line><line transform="translate(357,0)" x2="0" y2="5" style="fill: none; stroke: #888; stroke-width: 1; opacity: 1;"></line><line transform="translate(393,0)" x2="0" y2="5" style="fill: none; stroke: #888; stroke-width: 1; opacity: 1;"></line><line transform="translate(429,0)" x2="0" y2="5" style="fill: none; stroke: #888; stroke-width: 1; opacity: 1;"></line><line transform="translate(464,0)" x2="0" y2="5" style="fill: none; stroke: #888; stroke-width: 1; opacity: 1;"></line><line transform="translate(500,0)" x2="0" y2="5" style="fill: none; stroke: #888; stroke-width: 1; opacity: 1;"></line></g><g class="mark-text role-axis-label" style="pointer-events: none;"><text text-anchor="start" transform="translate(0,15)" style="font-family: sans-serif; font-size: 10px; fill: #000; opacity: 1;">0.0</text><text text-anchor="middle" transform="translate(35.714285714285715,15)" style="font-family: sans-serif; font-size: 10px; fill: #000; opacity: 1;">0.5</text><text text-anchor="middle" transform="translate(71.42857142857143,15)" style="font-family: sans-serif; font-size: 10px; fill: #000; opacity: 1;">1.0</text><text text-anchor="middle" transform="translate(107.14285714285714,15)" style="font-family: sans-serif; font-size: 10px; fill: #000; opacity: 1;">1.5</text><text text-anchor="middle" transform="translate(142.85714285714286,15)" style="font-family: sans-serif; font-size: 10px; fill: #000; opacity: 1;">2.0</text><text text-anchor="middle" transform="translate(178.57142857142858,15)" style="font-family: sans-serif; font-size: 10px; fill: #000; opacity: 1;">2.5</text><text text-anchor="middle" transform="translate(214.28571428571428,15)" style="font-family: sans-serif; font-size: 10px; fill: #000; opacity: 1;">3.0</text><text text-anchor="middle" transform="translate(250,15)" style="font-family: sans-serif; font-size: 10px; fill: #000; opacity: 1;">3.5</text><text text-anchor="middle" transform="translate(285.7142857142857,15)" style="font-family: sans-serif; font-size: 10px; fill: #000; opacity: 1;">4.0</text><text text-anchor="middle" transform="translate(321.42857142857144,15)" style="font-family: sans-serif; font-size: 10px; fill: #000; opacity: 1;">4.5</text><text text-anchor="middle" transform="translate(357.14285714285717,15)" style="font-family: sans-serif; font-size: 10px; fill: #000; opacity: 1;">5.0</text><text text-anchor="middle" transform="translate(392.85714285714283,15)" style="font-family: sans-serif; font-size: 10px; fill: #000; opacity: 1;">5.5</text><text text-anchor="middle" transform="translate(428.57142857142856,15)" style="font-family: sans-serif; font-size: 10px; fill: #000; opacity: 1;">6.0</text><text text-anchor="middle" transform="translate(464.2857142857143,15)" style="font-family: sans-serif; font-size: 10px; fill: #000; opacity: 1;">6.5</text><text text-anchor="end" transform="translate(500,15)" style="font-family: sans-serif; font-size: 10px; fill: #000; opacity: 1;">7.0</text></g><g class="mark-rule role-axis-domain" style="pointer-events: none;"><line transform="translate(0,0)" x2="500" y2="0" style="fill: none; stroke: #888; stroke-width: 1; opacity: 1;"></line></g><g class="mark-text role-axis-title" style="pointer-events: none;"><text text-anchor="middle" transform="translate(250,30)" style="font-family: sans-serif; font-size: 11px; font-weight: bold; fill: #000; opacity: 1;">Motorgrootte (ltr.)</text></g></g></g></g><g class="mark-group role-axis"><g transform="translate(0.5,0.5)"><path class="background" d="M0,0h0v0h0Z" style="pointer-events: none; fill: none;"></path><g><g class="mark-rule role-axis-tick" style="pointer-events: none;"><line transform="translate(0,500)" x2="-5" y2="0" style="fill: none; stroke: #888; stroke-width: 1; opacity: 1;"></line><line transform="translate(0,444)" x2="-5" y2="0" style="fill: none; stroke: #888; stroke-width: 1; opacity: 1;"></line><line transform="translate(0,389)" x2="-5" y2="0" style="fill: none; stroke: #888; stroke-width: 1; opacity: 1;"></line><line transform="translate(0,333)" x2="-5" y2="0" style="fill: none; stroke: #888; stroke-width: 1; opacity: 1;"></line><line transform="translate(0,278)" x2="-5" y2="0" style="fill: none; stroke: #888; stroke-width: 1; opacity: 1;"></line><line transform="translate(0,222)" x2="-5" y2="0" style="fill: none; stroke: #888; stroke-width: 1; opacity: 1;"></line><line transform="translate(0,167)" x2="-5" y2="0" style="fill: none; stroke: #888; stroke-width: 1; opacity: 1;"></line><line transform="translate(0,111)" x2="-5" y2="0" style="fill: none; stroke: #888; stroke-width: 1; opacity: 1;"></line><line transform="translate(0,56)" x2="-5" y2="0" style="fill: none; stroke: #888; stroke-width: 1; opacity: 1;"></line><line transform="translate(0,0)" x2="-5" y2="0" style="fill: none; stroke: #888; stroke-width: 1; opacity: 1;"></line></g><g class="mark-text role-axis-label" style="pointer-events: none;"><text text-anchor="end" transform="translate(-7,503)" style="font-family: sans-serif; font-size: 10px; fill: #000; opacity: 1;">0</text><text text-anchor="end" transform="translate(-7,447.44444444444446)" style="font-family: sans-serif; font-size: 10px; fill: #000; opacity: 1;">5</text><text text-anchor="end" transform="translate(-7,391.8888888888889)" style="font-family: sans-serif; font-size: 10px; fill: #000; opacity: 1;">10</text><text text-anchor="end" transform="translate(-7,336.33333333333337)" style="font-family: sans-serif; font-size: 10px; fill: #000; opacity: 1;">15</text><text text-anchor="end" transform="translate(-7,280.7777777777778)" style="font-family: sans-serif; font-size: 10px; fill: #000; opacity: 1;">20</text><text text-anchor="end" transform="translate(-7,225.22222222222223)" style="font-family: sans-serif; font-size: 10px; fill: #000; opacity: 1;">25</text><text text-anchor="end" transform="translate(-7,169.66666666666669)" style="font-family: sans-serif; font-size: 10px; fill: #000; opacity: 1;">30</text><text text-anchor="end" transform="translate(-7,114.11111111111109)" style="font-family: sans-serif; font-size: 10px; fill: #000; opacity: 1;">35</text><text text-anchor="end" transform="translate(-7,58.5555555555556)" style="font-family: sans-serif; font-size: 10px; fill: #000; opacity: 1;">40</text><text text-anchor="end" transform="translate(-7,3)" style="font-family: sans-serif; font-size: 10px; fill: #000; opacity: 1;">45</text></g><g class="mark-rule role-axis-domain" style="pointer-events: none;"><line transform="translate(0,500)" x2="0" y2="-500" style="fill: none; stroke: #888; stroke-width: 1; opacity: 1;"></line></g><g class="mark-text role-axis-title" style="pointer-events: none;"><text text-anchor="middle" transform="translate(-23,250) rotate(-90) translate(0,-2)" style="font-family: sans-serif; font-size: 11px; font-weight: bold; fill: #000; opacity: 1;">MPG (snelweg)</text></g></g></g></g></g></g></g></g></svg>