<svg class="marks" width="526" height="319" viewBox="0 0 526 319" version="1.1" xmlns="http://www.w3.org/2000/svg" xmlns:xlink="http://www.w3.org/1999/xlink"><rect width="526" height="319" style="fill: white;"></rect><g transform="translate(40,81)"><g class="mark-group role-frame root"><g transform="translate(0,0)"><path class="background" d="M0,0h0v0h0Z" style="fill: none;"></path><g><g class="mark-group role-column-title column-title"><g transform="translate(211,-38)"><path class="background" d="M0,0h0v0h0Z" style="fill: none;"></path><g><g class="mark-group role-title"><g transform="translate(0,-21)"><path class="background" d="M0,0h0v0h0Z" style="pointer-events: none; fill: none;"></path><g><g class="mark-text role-title-text" style="pointer-events: none;"><text text-anchor="middle" transform="translate(0,9)" style="font-family: sans-serif; font-size: 11px; font-weight: bold; fill: #000; opacity: 1;">Geslacht</text></g></g><path class="foreground" d="" style="pointer-events: none; display: none; fill: none;"></path></g></g></g><path class="foreground" d="" style="display: none; fill: none;"></path></g></g><g class="mark-group role-row-header row_header"><g transform="translate(-1,0)"><path class="background" d="M0,0h0v200h0Z" style="fill: none;"></path><g><g class="mark-group role-axis"><g transform="translate(0.5,0.5)"><path class="background" d="M0,0h0v0h0Z" style="pointer-events: none; fill: none;"></path><g><g class="mark-rule role-axis-tick" style="pointer-events: none;"><line transform="translate(0,200)" x2="-5" y2="0" style="fill: none; stroke: #888; stroke-width: 1; opacity: 1;"></line><line transform="translate(0,160)" x2="-5" y2="0" style="fill: none; stroke: #888; stroke-width: 1; opacity: 1;"></line><line transform="translate(0,120)" x2="-5" y2="0" style="fill: none; stroke: #888; stroke-width: 1; opacity: 1;"></line><line transform="translate(0,80)" x2="-5" y2="0" style="fill: none; stroke: #888; stroke-width: 1; opacity: 1;"></line><line transform="translate(0,40)" x2="-5" y2="0" style="fill: none; stroke: #888; stroke-width: 1; opacity: 1;"></line><line transform="translate(0,0)" x2="-5" y2="0" style="fill: none; stroke: #888; stroke-width: 1; opacity: 1;"></line></g><g class="mark-text role-axis-label" style="pointer-events: none;"><text text-anchor="end" transform="translate(-7,203)" style="font-family: sans-serif; font-size: 10px; fill: #000; opacity: 1;">0</text><text text-anchor="end" transform="translate(-7,163)" style="font-family: sans-serif; font-size: 10px; fill: #000; opacity: 1;">2</text><text text-anchor="end" transform="translate(-7,123)" style="font-family: sans-serif; font-size: 10px; fill: #000; opacity: 1;">4</text><text text-anchor="end" transform="translate(-7,83)" style="font-family: sans-serif; font-size: 10px; fill: #000; opacity: 1;">6</text><text text-anchor="end" transform="translate(-7,42.99999999999999)" style="font-family: sans-serif; font-size: 10px; fill: #000; opacity: 1;">8</text><text text-anchor="end" transform="translate(-7,3)" style="font-family: sans-serif; font-size: 10px; fill: #000; opacity: 1;">10</text></g><g class="mark-rule role-axis-domain" style="pointer-events: none;"><line transform="translate(0,200)" x2="0" y2="-200" style="fill: none; stroke: #888; stroke-width: 1; opacity: 1;"></line></g><g class="mark-text role-axis-title" style="pointer-events: none;"><text text-anchor="middle" transform="translate(-23,100) rotate(-90) translate(0,-2)" style="font-family: sans-serif; font-size: 11px; font-weight: bold; fill: #000; opacity: 1;">Fooi</text></g></g><path class="foreground" d="" style="pointer-events: none; display: none; fill: none;"></path></g></g></g><path class="foreground" d="" style="display: none; fill: none;"></path></g></g><g class="mark-group role-column-header column_header"><g transform="translate(0,-8)"><path class="background" d="M0,0h200v0h-200Z" style="fill: none;"></path><g><g class="mark-group role-title"><g transform="translate(100,-20)"><path class="background" d="M0,0h0v0h0Z" style="pointer-events: none; fill: none;"></path><g><g class="mark-text role-title-text" style="pointer-events: none;"><text text-anchor="middle" transform="translate(0,8)" style="font-family: sans-serif; font-size: 10px; fill: #000; opacity: 1;">Mannelijk</text></g></g><path class="foreground" d="" style="pointer-events: none; display: none; fill: none;"></path></g></g></g><path class="foreground" d="" style="display: none; fill: none;"></path></g><g transform="translate(222,-8)"><path class="background" d="M0,0h200v0h-200Z" style="fill: none;"></path><g><g class="mark-group role-title"><g transform="translate(100,-20)"><path class="background" d="M0,0h0v0h0Z" style="pointer-events: none; fill: none;"></path><g><g class="mark-text role-title-text" style="pointer-events: none;"><text text-anchor="middle" transform="translate(0,8)" style="font-family: sans-serif; font-size: 10px; fill: #000; opacity: 1;">Vrouwelijk</text></g></g><path class="foreground" d="" style="pointer-events: none; display: none; fill: none;"></path></g></g></g><path class="foreground" d="" style="display: none; fill: none;"></path></g></g><g class="mark-group role-column-footer column_footer"><g transform="translate(0,201)"><path class="background" d="M0,0h200v0h-200Z" style="fill: none;"></path><g><g class="mark-group role-axis"><g transform="translate(0.5,0.5)"><path class="background" d="M0,0h0v0h0Z" style="pointer-events: none; fill: none;"></path><g><g class="mark-rule role-axis-tick" style="pointer-events: none;"><line transform="translate(0,0)" x2="0" y2="5" style="fill: none; stroke: #888; stroke-width: 1; opacity: 1;"></line><line transform="translate(36,0)" x2="0" y2="5" style="fill: none; stroke: #888; stroke-width: 1; opacity: 1;"></line><line transform="translate(73,0)" x2="0" y2="5" style="fill: none; stroke: #888; stroke-width: 1; opacity: 1;"></line><line transform="translate(109,0)" x2="0" y2="5" style="fill: none; stroke: #888; stroke-width: 1; opacity: 1;"></line><line transform="translate(145,0)" x2="0" y2="5" style="fill: none; stroke: #888; stroke-width: 1; opacity: 1;"></line><line transform="translate(182,0)" x2="0" y2="5" style="fill: none; stroke: #888; stroke-width: 1; opacity: 1;"></line></g><g class="mark-text role-axis-label" style="pointer-events: none;"><text text-anchor="start" transform="translate(0,15)" style="font-family: sans-serif; font-size: 10px; fill: #000; opacity: 1;">0</text><text text-anchor="middle" transform="translate(36.36363636363637,15)" style="font-family: sans-serif; font-size: 10px; fill: #000; opacity: 1;">10</text><text text-anchor="middle" transform="translate(72.72727272727273,15)" style="font-family: sans-serif; font-size: 10px; fill: #000; opacity: 1;">20</text><text text-anchor="middle" transform="translate(109.09090909090908,15)" style="font-family: sans-serif; font-size: 10px; fill: #000; opacity: 1;">30</text><text text-anchor="middle" transform="translate(145.45454545454547,15)" style="font-family: sans-serif; font-size: 10px; fill: #000; opacity: 1;">40</text><text text-anchor="middle" transform="translate(181.8181818181818,15)" style="font-family: sans-serif; font-size: 10px; fill: #000; opacity: 1;">50</text></g><g class="mark-rule role-axis-domain" style="pointer-events: none;"><line transform="translate(0,0)" x2="200" y2="0" style="fill: none; stroke: #888; stroke-width: 1; opacity: 1;"></line></g><g class="mark-text role-axis-title" style="pointer-events: none;"><text text-anchor="middle" transform="translate(100,30)" style="font-family: sans-serif; font-size: 11px; font-weight: bold; fill: #000; opacity: 1;">Rekening</text></g></g><path class="foreground" d="" style="pointer-events: none; display: none; fill: none;"></path></g></g></g><path class="foreground" d="" style="display: none; fill: none;"></path></g><g transform="translate(222,201)"><path class="background" d="M0,0h200v0h-200Z" style="fill: none;"></path><g><g class="mark-group role-axis"><g transform="translate(0.5,0.5)"><path class="background" d="M0,0h0v0h0Z" style="pointer-events: none; fill: none;"></path><g><g class="mark-rule role-axis-tick" style="pointer-events: none;"><line transform="translate(0,0)" x2="0" y2="5" style="fill: none; stroke: #888; stroke-width: 1; opacity: 1;"></line><line transform="translate(36,0)" x2="0" y2="5" style="fill: none; stroke: #888; stroke-width: 1; opacity: 1;"></line><line transform="translate(73,0)" x2="0" y2="5" style="fill: none; stroke: #888; stroke-width: 1; opacity: 1;"></line><line transform="translate(109,0)" x2="0" y2="5" style="fill: none; stroke: #888; stroke-width: 1; opacity: 1;"></line><line transform="translate(145,0)" x2="0" y2="5" style="fill: none; stroke: #888; stroke-width: 1; opacity: 1;"></line><line transform="translate(182,0)" x2="0" y2="5" style="fill: none; stroke: #888; stroke-width: 1; opacity: 1;"></line></g><g class="mark-text role-axis-label" style="pointer-events: none;"><text text-anchor="start" transform="translate(0,15)" style="font-family: sans-serif; font-size: 10px; fill: #000; opacity: 1;">0</text><text text-anchor="middle" transform="translate(36.36363636363637,15)" style="font-family: sans-serif; font-size: 10px; fill: #000; opacity: 1;">10</text><text text-anchor="middle" transform="translate(72.72727272727273,15)" style="font-family: sans-serif; font-size: 10px; fill: #000; opacity: 1;">20</text><text text-anchor="middle" transform="translate(109.09090909090908,15)" style="font-family: sans-serif; font-size: 10px; fill: #000; opacity: 1;">30</text><text text-anchor="middle" transform="translate(145.45454545454547,15)" style="font-family: sans-serif; font-size: 10px; fill: #000; opacity: 1;">40</text><text text-anchor="middle" transform="translate(181.8181818181818,15)" style="font-family: sans-serif; font-size: 10px; fill: #000; opacity: 1;">50</text></g><g class="mark-rule role-axis-domain" style="pointer-events: none;"><line transform="translate(0,0)" x2="200" y2="0" style="fill: none; stroke: #888; stroke-width: 1; opacity: 1;"></line></g><g class="mark-text role-axis-title" style="pointer-events: none;"><text text-anchor="middle" transform="translate(100,30)" style="font-family: sans-serif; font-size: 11px; font-weight: bold; fill: #000; opacity: 1;">Rekening</text></g></g><path class="foreground" d="" style="pointer-events: none; display: none; fill: none;"></path></g></g></g><path class="foreground" d="" style="display: none; fill: none;"></path></g></g><g class="mark-group role-scope cell"><g transform="translate(0,0)"><path class="background" d="M0.5,0.5h200v200h-200Z" style="fill: none; stroke: #ddd;"></path><g><g class="mark-group role-axis"><g transform="translate(0.5,200.5)"><path class="background" d="M0,0h0v0h0Z" style="pointer-events: none; fill: none;"></path><g><g class="mark-rule role-axis-grid" style="pointer-events: none;"><line transform="translate(0,-200)" x2="0" y2="200" style="fill: none; stroke: #ddd; stroke-width: 1; opacity: 1;"></line><line transform="translate(36,-200)" x2="0" y2="200" style="fill: none; stroke: #ddd; stroke-width: 1; opacity: 1;"></line><line transform="translate(73,-200)" x2="0" y2="200" style="fill: none; stroke: #ddd; stroke-width: 1; opacity: 1;"></line><line transform="translate(109,-200)" x2="0" y2="200" style="fill: none; stroke: #ddd; stroke-width: 1; opacity: 1;"></line><line transform="translate(145,-200)" x2="0" y2="200" style="fill: none; stroke: #ddd; stroke-width: 1; opacity: 1;"></line><line transform="translate(182,-200)" x2="0" y2="200" style="fill: none; stroke: #ddd; stroke-width: 1; opacity: 1;"></line></g></g><path class="foreground" d="" style="pointer-events: none; display: none; fill: none;"></path></g></g><g class="mark-group role-axis"><g transform="translate(0.5,0.5)"><path class="background" d="M0,0h0v0h0Z" style="pointer-events: none; fill: none;"></path><g><g class="mark-rule role-axis-grid" style="pointer-events: none;"><line transform="translate(0,200)" x2="200" y2="0" style="fill: none; stroke: #ddd; stroke-width: 1; opacity: 1;"></line><line transform="translate(0,160)" x2="200" y2="0" style="fill: none; stroke: #ddd; stroke-width: 1; opacity: 1;"></line><line transform="translate(0,120)" x2="200" y2="0" style="fill: none; stroke: #ddd; stroke-width: 1; opacity: 1;"></line><line transform="translate(0,80)" x2="200" y2="0" style="fill: none; stroke: #ddd; stroke-width: 1; opacity: 1;"></line><line transform="translate(0,40)" x2="200" y2="0" style="fill: none; stroke: #ddd; stroke-width: 1; opacity: 1;"></line><line transform="translate(0,0)" x2="200" y2="0" style="fill: none; stroke: #ddd; stroke-width: 1; opacity: 1;"></line></g></g><path class="foreground" d="" style="pointer-events: none; display: none; fill: none;"></path></g></g><g class="mark-symbol role-mark child_marks"><path transform="translate(37.6,166.8)" d="M6.7175144212722016,0A6.7175144212722016,6.7175144212722016,0,1,1,-6.7175144212722016,0A6.7175144212722016,6.7175144212722016,0,1,1,6.7175144212722016,0" style="fill: #f58518; stroke-width: 2; opacity: 0.7;"></path><path transform="translate(76.4,130)" d="M6.7175144212722016,0A6.7175144212722016,6.7175144212722016,0,1,1,-6.7175144212722016,0A6.7175144212722016,6.7175144212722016,0,1,1,6.7175144212722016,0" style="fill: #f58518; stroke-width: 2; opacity: 0.7;"></path><path transform="translate(86.10909090909091,133.8)" d="M5.484827557301444,0A5.484827557301444,5.484827557301444,0,1,1,-5.484827557301444,0A5.484827557301444,5.484827557301444,0,1,1,5.484827557301444,0" style="fill: #f58518; stroke-width: 2; opacity: 0.7;"></path><path transform="translate(91.96363636363635,105.80000000000001)" d="M7.756717518813397,0A7.756717518813397,7.756717518813397,0,1,1,-7.756717518813397,0A7.756717518813397,7.756717518813397,0,1,1,7.756717518813397,0" style="fill: #f58518; stroke-width: 2; opacity: 0.7;"></path><path transform="translate(31.89090909090909,160)" d="M5.484827557301444,0A5.484827557301444,5.484827557301444,0,1,1,-5.484827557301444,0A5.484827557301444,5.484827557301444,0,1,1,5.484827557301444,0" style="fill: #f58518; stroke-width: 2; opacity: 0.7;"></path><path transform="translate(97.74545454545455,137.6)" d="M7.756717518813397,0A7.756717518813397,7.756717518813397,0,1,1,-7.756717518813397,0A7.756717518813397,7.756717518813397,0,1,1,7.756717518813397,0" style="fill: #f58518; stroke-width: 2; opacity: 0.7;"></path><path transform="translate(54.69090909090909,160.8)" d="M5.484827557301444,0A5.484827557301444,5.484827557301444,0,1,1,-5.484827557301444,0A5.484827557301444,5.484827557301444,0,1,1,5.484827557301444,0" style="fill: #f58518; stroke-width: 2; opacity: 0.7;"></path><path transform="translate(53.74545454545454,135.4)" d="M5.484827557301444,0A5.484827557301444,5.484827557301444,0,1,1,-5.484827557301444,0A5.484827557301444,5.484827557301444,0,1,1,5.484827557301444,0" style="fill: #f58518; stroke-width: 2; opacity: 0.7;"></path><path transform="translate(37.345454545454544,165.79999999999998)" d="M5.484827557301444,0A5.484827557301444,5.484827557301444,0,1,1,-5.484827557301444,0A5.484827557301444,5.484827557301444,0,1,1,5.484827557301444,0" style="fill: #f58518; stroke-width: 2; opacity: 0.7;"></path><path transform="translate(56.07272727272728,168.6)" d="M5.484827557301444,0A5.484827557301444,5.484827557301444,0,1,1,-5.484827557301444,0A5.484827557301444,5.484827557301444,0,1,1,5.484827557301444,0" style="fill: #f58518; stroke-width: 2; opacity: 0.7;"></path><path transform="translate(67.01818181818182,140)" d="M7.756717518813397,0A7.756717518813397,7.756717518813397,0,1,1,-7.756717518813397,0A7.756717518813397,7.756717518813397,0,1,1,7.756717518813397,0" style="fill: #f58518; stroke-width: 2; opacity: 0.7;"></path><path transform="translate(78.47272727272727,121.6)" d="M5.484827557301444,0A5.484827557301444,5.484827557301444,0,1,1,-5.484827557301444,0A5.484827557301444,5.484827557301444,0,1,1,5.484827557301444,0" style="fill: #f58518; stroke-width: 2; opacity: 0.7;"></path><path transform="translate(59.236363636363635,125.8)" d="M6.7175144212722016,0A6.7175144212722016,6.7175144212722016,0,1,1,-6.7175144212722016,0A6.7175144212722016,6.7175144212722016,0,1,1,6.7175144212722016,0" style="fill: #f58518; stroke-width: 2; opacity: 0.7;"></path><path transform="translate(75.09090909090908,133)" d="M6.7175144212722016,0A6.7175144212722016,6.7175144212722016,0,1,1,-6.7175144212722016,0A6.7175144212722016,6.7175144212722016,0,1,1,6.7175144212722016,0" style="fill: #f58518; stroke-width: 2; opacity: 0.7;"></path><path transform="translate(65.16363636363637,118.39999999999999)" d="M5.484827557301444,0A5.484827557301444,5.484827557301444,0,1,1,-5.484827557301444,0A5.484827557301444,5.484827557301444,0,1,1,5.484827557301444,0" style="fill: #f58518; stroke-width: 2; opacity: 0.7;"></path><path transform="translate(143.34545454545454,48.4)" d="M7.756717518813397,0A7.756717518813397,7.756717518813397,0,1,1,-7.756717518813397,0A7.756717518813397,7.756717518813397,0,1,1,7.756717518813397,0" style="fill: #f58518; stroke-width: 2; opacity: 0.7;"></path><path transform="translate(72.07272727272728,136.39999999999998)" d="M5.484827557301444,0A5.484827557301444,5.484827557301444,0,1,1,-5.484827557301444,0A5.484827557301444,5.484827557301444,0,1,1,5.484827557301444,0" style="fill: #f58518; stroke-width: 2; opacity: 0.7;"></path><path transform="translate(64.76363636363635,153.2)" d="M7.756717518813397,0A7.756717518813397,7.756717518813397,0,1,1,-7.756717518813397,0A7.756717518813397,7.756717518813397,0,1,1,7.756717518813397,0" style="fill: #f58518; stroke-width: 2; opacity: 0.7;"></path><path transform="translate(48.61818181818182,160)" d="M5.484827557301444,0A5.484827557301444,5.484827557301444,0,1,1,-5.484827557301444,0A5.484827557301444,5.484827557301444,0,1,1,5.484827557301444,0" style="fill: #f58518; stroke-width: 2; opacity: 0.7;"></path><path transform="translate(46.14545454545455,160)" d="M5.484827557301444,0A5.484827557301444,5.484827557301444,0,1,1,-5.484827557301444,0A5.484827557301444,5.484827557301444,0,1,1,5.484827557301444,0" style="fill: #f58518; stroke-width: 2; opacity: 0.7;"></path><path transform="translate(78.9090909090909,114.00000000000001)" d="M5.484827557301444,0A5.484827557301444,5.484827557301444,0,1,1,-5.484827557301444,0A5.484827557301444,5.484827557301444,0,1,1,5.484827557301444,0" style="fill: #f58518; stroke-width: 2; opacity: 0.7;"></path><path transform="translate(34.72727272727273,171)" d="M5.484827557301444,0A5.484827557301444,5.484827557301444,0,1,1,-5.484827557301444,0A5.484827557301444,5.484827557301444,0,1,1,5.484827557301444,0" style="fill: #f58518; stroke-width: 2; opacity: 0.7;"></path><path transform="translate(66.72727272727273,150)" d="M7.756717518813397,0A7.756717518813397,7.756717518813397,0,1,1,-7.756717518813397,0A7.756717518813397,7.756717518813397,0,1,1,7.756717518813397,0" style="fill: #f58518; stroke-width: 2; opacity: 0.7;"></path><path transform="translate(64.65454545454546,134.60000000000002)" d="M5.484827557301444,0A5.484827557301444,5.484827557301444,0,1,1,-5.484827557301444,0A5.484827557301444,5.484827557301444,0,1,1,5.484827557301444,0" style="fill: #f58518; stroke-width: 2; opacity: 0.7;"></path><path transform="translate(87.49090909090908,128)" d="M6.7175144212722016,0A6.7175144212722016,6.7175144212722016,0,1,1,-6.7175144212722016,0A6.7175144212722016,6.7175144212722016,0,1,1,6.7175144212722016,0" style="fill: #f58518; stroke-width: 2; opacity: 0.7;"></path><path transform="translate(59.3090909090909,160)" d="M6.7175144212722016,0A6.7175144212722016,6.7175144212722016,0,1,1,-6.7175144212722016,0A6.7175144212722016,6.7175144212722016,0,1,1,6.7175144212722016,0" style="fill: #f58518; stroke-width: 2; opacity: 0.7;"></path><path transform="translate(67.96363636363637,153.8)" d="M6.7175144212722016,0A6.7175144212722016,6.7175144212722016,0,1,1,-6.7175144212722016,0A6.7175144212722016,6.7175144212722016,0,1,1,6.7175144212722016,0" style="fill: #f58518; stroke-width: 2; opacity: 0.7;"></path><path transform="translate(113.70909090909092,100)" d="M6.7175144212722016,0A6.7175144212722016,6.7175144212722016,0,1,1,-6.7175144212722016,0A6.7175144212722016,6.7175144212722016,0,1,1,6.7175144212722016,0" style="fill: #f58518; stroke-width: 2; opacity: 0.7;"></path><path transform="translate(58.32727272727273,155.20000000000002)" d="M6.7175144212722016,0A6.7175144212722016,6.7175144212722016,0,1,1,-6.7175144212722016,0A6.7175144212722016,6.7175144212722016,0,1,1,6.7175144212722016,0" style="fill: #f58518; stroke-width: 2; opacity: 0.7;"></path><path transform="translate(63.4909090909091,149.2)" d="M5.484827557301444,0A5.484827557301444,5.484827557301444,0,1,1,-5.484827557301444,0A5.484827557301444,5.484827557301444,0,1,1,5.484827557301444,0" style="fill: #f58518; stroke-width: 2; opacity: 0.7;"></path><path transform="translate(50.69090909090909,138.79999999999998)" d="M5.484827557301444,0A5.484827557301444,5.484827557301444,0,1,1,-5.484827557301444,0A5.484827557301444,5.484827557301444,0,1,1,5.484827557301444,0" style="fill: #f58518; stroke-width: 2; opacity: 0.7;"></path><path transform="translate(35.199999999999996,173.6)" d="M5.484827557301444,0A5.484827557301444,5.484827557301444,0,1,1,-5.484827557301444,0A5.484827557301444,5.484827557301444,0,1,1,5.484827557301444,0" style="fill: #f58518; stroke-width: 2; opacity: 0.7;"></path><path transform="translate(110.54545454545455,88.00000000000001)" d="M7.756717518813397,0A7.756717518813397,7.756717518813397,0,1,1,-7.756717518813397,0A7.756717518813397,7.756717518813397,0,1,1,7.756717518813397,0" style="fill: #f58518; stroke-width: 2; opacity: 0.7;"></path><path transform="translate(66.5090909090909,140)" d="M5.484827557301444,0A5.484827557301444,5.484827557301444,0,1,1,-5.484827557301444,0A5.484827557301444,5.484827557301444,0,1,1,5.484827557301444,0" style="fill: #f58518; stroke-width: 2; opacity: 0.7;"></path><path transform="translate(80.83636363636364,100)" d="M5.484827557301444,0A5.484827557301444,5.484827557301444,0,1,1,-5.484827557301444,0A5.484827557301444,5.484827557301444,0,1,1,5.484827557301444,0" style="fill: #f58518; stroke-width: 2; opacity: 0.7;"></path><path transform="translate(117.81818181818183,80)" d="M7.756717518813397,0A7.756717518813397,7.756717518813397,0,1,1,-7.756717518813397,0A7.756717518813397,7.756717518813397,0,1,1,7.756717518813397,0" style="fill: #f58518; stroke-width: 2; opacity: 0.7;"></path><path transform="translate(103.81818181818183,159)" d="M6.7175144212722016,0A6.7175144212722016,6.7175144212722016,0,1,1,-6.7175144212722016,0A6.7175144212722016,6.7175144212722016,0,1,1,6.7175144212722016,0" style="fill: #f58518; stroke-width: 2; opacity: 0.7;"></path><path transform="translate(65.6,140)" d="M5.484827557301444,0A5.484827557301444,5.484827557301444,0,1,1,-5.484827557301444,0A5.484827557301444,5.484827557301444,0,1,1,5.484827557301444,0" style="fill: #f58518; stroke-width: 2; opacity: 0.7;"></path><path transform="translate(45.599999999999994,150)" d="M5.484827557301444,0A5.484827557301444,5.484827557301444,0,1,1,-5.484827557301444,0A5.484827557301444,5.484827557301444,0,1,1,5.484827557301444,0" style="fill: #f58518; stroke-width: 2; opacity: 0.7;"></path><path transform="translate(36.14545454545454,168.79999999999998)" d="M5.484827557301444,0A5.484827557301444,5.484827557301444,0,1,1,-5.484827557301444,0A5.484827557301444,5.484827557301444,0,1,1,5.484827557301444,0" style="fill: #f58518; stroke-width: 2; opacity: 0.7;"></path><path transform="translate(92.94545454545454,113.20000000000002)" d="M7.756717518813397,0A7.756717518813397,7.756717518813397,0,1,1,-7.756717518813397,0A7.756717518813397,7.756717518813397,0,1,1,7.756717518813397,0" style="fill: #f58518; stroke-width: 2; opacity: 0.7;"></path><path transform="translate(70.87272727272726,129.8)" d="M5.484827557301444,0A5.484827557301444,5.484827557301444,0,1,1,-5.484827557301444,0A5.484827557301444,5.484827557301444,0,1,1,5.484827557301444,0" style="fill: #f58518; stroke-width: 2; opacity: 0.7;"></path><path transform="translate(138.21818181818182,140)" d="M7.756717518813397,0A7.756717518813397,7.756717518813397,0,1,1,-7.756717518813397,0A7.756717518813397,7.756717518813397,0,1,1,7.756717518813397,0" style="fill: #4c78a8; stroke-width: 2; opacity: 0.7;"></path><path transform="translate(40.872727272727275,164.8)" d="M5.484827557301444,0A5.484827557301444,5.484827557301444,0,1,1,-5.484827557301444,0A5.484827557301444,5.484827557301444,0,1,1,5.484827557301444,0" style="fill: #4c78a8; stroke-width: 2; opacity: 0.7;"></path><path transform="translate(175.52727272727273,65.39999999999999)" d="M7.756717518813397,0A7.756717518813397,7.756717518813397,0,1,1,-7.756717518813397,0A7.756717518813397,7.756717518813397,0,1,1,7.756717518813397,0" style="fill: #f58518; stroke-width: 2; opacity: 0.7;"></path><path transform="translate(73.78181818181818,135.8)" d="M5.484827557301444,0A5.484827557301444,5.484827557301444,0,1,1,-5.484827557301444,0A5.484827557301444,5.484827557301444,0,1,1,5.484827557301444,0" style="fill: #4c78a8; stroke-width: 2; opacity: 0.7;"></path><path transform="translate(50.21818181818182,160)" d="M5.484827557301444,0A5.484827557301444,5.484827557301444,0,1,1,-5.484827557301444,0A5.484827557301444,5.484827557301444,0,1,1,5.484827557301444,0" style="fill: #4c78a8; stroke-width: 2; opacity: 0.7;"></path><path transform="translate(40.07272727272727,160.4)" d="M5.484827557301444,0A5.484827557301444,5.484827557301444,0,1,1,-5.484827557301444,0A5.484827557301444,5.484827557301444,0,1,1,5.484827557301444,0" style="fill: #4c78a8; stroke-width: 2; opacity: 0.7;"></path><path transform="translate(66.5090909090909,124.8)" d="M7.756717518813397,0A7.756717518813397,7.756717518813397,0,1,1,-7.756717518813397,0A7.756717518813397,7.756717518813397,0,1,1,7.756717518813397,0" style="fill: #4c78a8; stroke-width: 2; opacity: 0.7;"></path><path transform="translate(63.96363636363637,147.2)" d="M6.7175144212722016,0A6.7175144212722016,6.7175144212722016,0,1,1,-6.7175144212722016,0A6.7175144212722016,6.7175144212722016,0,1,1,6.7175144212722016,0" style="fill: #f58518; stroke-width: 2; opacity: 0.7;"></path><path transform="translate(73.01818181818182,137)" d="M6.7175144212722016,0A6.7175144212722016,6.7175144212722016,0,1,1,-6.7175144212722016,0A6.7175144212722016,6.7175144212722016,0,1,1,6.7175144212722016,0" style="fill: #f58518; stroke-width: 2; opacity: 0.7;"></path><path transform="translate(73.56363636363636,159.8)" d="M5.484827557301444,0A5.484827557301444,5.484827557301444,0,1,1,-5.484827557301444,0A5.484827557301444,5.484827557301444,0,1,1,5.484827557301444,0" style="fill: #f58518; stroke-width: 2; opacity: 0.7;"></path><path transform="translate(54.58181818181818,158.20000000000002)" d="M5.484827557301444,0A5.484827557301444,5.484827557301444,0,1,1,-5.484827557301444,0A5.484827557301444,5.484827557301444,0,1,1,5.484827557301444,0" style="fill: #4c78a8; stroke-width: 2; opacity: 0.7;"></path><path transform="translate(43.70909090909091,160.6)" d="M5.484827557301444,0A5.484827557301444,5.484827557301444,0,1,1,-5.484827557301444,0A5.484827557301444,5.484827557301444,0,1,1,5.484827557301444,0" style="fill: #f58518; stroke-width: 2; opacity: 0.7;"></path><path transform="translate(38.21818181818182,175)" d="M5.484827557301444,0A5.484827557301444,5.484827557301444,0,1,1,-5.484827557301444,0A5.484827557301444,5.484827557301444,0,1,1,5.484827557301444,0" style="fill: #f58518; stroke-width: 2; opacity: 0.7;"></path><path transform="translate(65.16363636363637,138.39999999999998)" d="M5.484827557301444,0A5.484827557301444,5.484827557301444,0,1,1,-5.484827557301444,0A5.484827557301444,5.484827557301444,0,1,1,5.484827557301444,0" style="fill: #4c78a8; stroke-width: 2; opacity: 0.7;"></path><path transform="translate(98.9090909090909,120)" d="M7.756717518813397,0A7.756717518813397,7.756717518813397,0,1,1,-7.756717518813397,0A7.756717518813397,7.756717518813397,0,1,1,7.756717518813397,0" style="fill: #f58518; stroke-width: 2; opacity: 0.7;"></path><path transform="translate(82.76363636363638,140)" d="M5.484827557301444,0A5.484827557301444,5.484827557301444,0,1,1,-5.484827557301444,0A5.484827557301444,5.484827557301444,0,1,1,5.484827557301444,0" style="fill: #f58518; stroke-width: 2; opacity: 0.7;"></path><path transform="translate(62.87272727272727,145.79999999999998)" d="M5.484827557301444,0A5.484827557301444,5.484827557301444,0,1,1,-5.484827557301444,0A5.484827557301444,5.484827557301444,0,1,1,5.484827557301444,0" style="fill: #f58518; stroke-width: 2; opacity: 0.7;"></path><path transform="translate(70.69090909090909,140)" d="M5.484827557301444,0A5.484827557301444,5.484827557301444,0,1,1,-5.484827557301444,0A5.484827557301444,5.484827557301444,0,1,1,5.484827557301444,0" style="fill: #4c78a8; stroke-width: 2; opacity: 0.7;"></path><path transform="translate(60.58181818181818,132)" d="M5.484827557301444,0A5.484827557301444,5.484827557301444,0,1,1,-5.484827557301444,0A5.484827557301444,5.484827557301444,0,1,1,5.484827557301444,0" style="fill: #f58518; stroke-width: 2; opacity: 0.7;"></path><path transform="translate(118.83636363636363,100)" d="M5.484827557301444,0A5.484827557301444,5.484827557301444,0,1,1,-5.484827557301444,0A5.484827557301444,5.484827557301444,0,1,1,5.484827557301444,0" style="fill: #4c78a8; stroke-width: 2; opacity: 0.7;"></path><path transform="translate(58.10909090909091,159.4)" d="M5.484827557301444,0A5.484827557301444,5.484827557301444,0,1,1,-5.484827557301444,0A5.484827557301444,5.484827557301444,0,1,1,5.484827557301444,0" style="fill: #f58518; stroke-width: 2; opacity: 0.7;"></path><path transform="translate(47.38181818181818,160)" d="M5.484827557301444,0A5.484827557301444,5.484827557301444,0,1,1,-5.484827557301444,0A5.484827557301444,5.484827557301444,0,1,1,5.484827557301444,0" style="fill: #f58518; stroke-width: 2; opacity: 0.7;"></path><path transform="translate(66.47272727272727,120)" d="M5.484827557301444,0A5.484827557301444,5.484827557301444,0,1,1,-5.484827557301444,0A5.484827557301444,5.484827557301444,0,1,1,5.484827557301444,0" style="fill: #f58518; stroke-width: 2; opacity: 0.7;"></path><path transform="translate(89.85454545454546,83)" d="M5.484827557301444,0A5.484827557301444,5.484827557301444,0,1,1,-5.484827557301444,0A5.484827557301444,5.484827557301444,0,1,1,5.484827557301444,0" style="fill: #f58518; stroke-width: 2; opacity: 0.7;"></path><path transform="translate(76.94545454545455,140)" d="M5.484827557301444,0A5.484827557301444,5.484827557301444,0,1,1,-5.484827557301444,0A5.484827557301444,5.484827557301444,0,1,1,5.484827557301444,0" style="fill: #f58518; stroke-width: 2; opacity: 0.7;"></path><path transform="translate(105.34545454545454,140)" d="M5.484827557301444,0A5.484827557301444,5.484827557301444,0,1,1,-5.484827557301444,0A5.484827557301444,5.484827557301444,0,1,1,5.484827557301444,0" style="fill: #4c78a8; stroke-width: 2; opacity: 0.7;"></path><path transform="translate(81.78181818181818,130)" d="M5.484827557301444,0A5.484827557301444,5.484827557301444,0,1,1,-5.484827557301444,0A5.484827557301444,5.484827557301444,0,1,1,5.484827557301444,0" style="fill: #f58518; stroke-width: 2; opacity: 0.7;"></path><path transform="translate(146.0727272727273,105.39999999999998)" d="M7.756717518813397,0A7.756717518813397,7.756717518813397,0,1,1,-7.756717518813397,0A7.756717518813397,7.756717518813397,0,1,1,7.756717518813397,0" style="fill: #4c78a8; stroke-width: 2; opacity: 0.7;"></path><path transform="translate(99.2,120)" d="M5.484827557301444,0A5.484827557301444,5.484827557301444,0,1,1,-5.484827557301444,0A5.484827557301444,5.484827557301444,0,1,1,5.484827557301444,0" style="fill: #4c78a8; stroke-width: 2; opacity: 0.7;"></path><path transform="translate(43.74545454545454,170)" d="M5.484827557301444,0A5.484827557301444,5.484827557301444,0,1,1,-5.484827557301444,0A5.484827557301444,5.484827557301444,0,1,1,5.484827557301444,0" style="fill: #4c78a8; stroke-width: 2; opacity: 0.7;"></path><path transform="translate(76.4,140)" d="M5.484827557301444,0A5.484827557301444,5.484827557301444,0,1,1,-5.484827557301444,0A5.484827557301444,5.484827557301444,0,1,1,5.484827557301444,0" style="fill: #4c78a8; stroke-width: 2; opacity: 0.7;"></path><path transform="translate(45.30909090909091,170)" d="M5.484827557301444,0A5.484827557301444,5.484827557301444,0,1,1,-5.484827557301444,0A5.484827557301444,5.484827557301444,0,1,1,5.484827557301444,0" style="fill: #f58518; stroke-width: 2; opacity: 0.7;"></path><path transform="translate(55.85454545454546,167.20000000000002)" d="M5.484827557301444,0A5.484827557301444,5.484827557301444,0,1,1,-5.484827557301444,0A5.484827557301444,5.484827557301444,0,1,1,5.484827557301444,0" style="fill: #4c78a8; stroke-width: 2; opacity: 0.7;"></path><path transform="translate(74.5090909090909,118.80000000000001)" d="M5.484827557301444,0A5.484827557301444,5.484827557301444,0,1,1,-5.484827557301444,0A5.484827557301444,5.484827557301444,0,1,1,5.484827557301444,0" style="fill: #4c78a8; stroke-width: 2; opacity: 0.7;"></path><path transform="translate(91.67272727272727,114.19999999999999)" d="M5.484827557301444,0A5.484827557301444,5.484827557301444,0,1,1,-5.484827557301444,0A5.484827557301444,5.484827557301444,0,1,1,5.484827557301444,0" style="fill: #4c78a8; stroke-width: 2; opacity: 0.7;"></path><path transform="translate(66.32727272727273,124.8)" d="M5.484827557301444,0A5.484827557301444,5.484827557301444,0,1,1,-5.484827557301444,0A5.484827557301444,5.484827557301444,0,1,1,5.484827557301444,0" style="fill: #f58518; stroke-width: 2; opacity: 0.7;"></path><path transform="translate(50.90909090909091,140)" d="M5.484827557301444,0A5.484827557301444,5.484827557301444,0,1,1,-5.484827557301444,0A5.484827557301444,5.484827557301444,0,1,1,5.484827557301444,0" style="fill: #f58518; stroke-width: 2; opacity: 0.7;"></path><path transform="translate(138.43636363636364,120)" d="M6.7175144212722016,0A6.7175144212722016,6.7175144212722016,0,1,1,-6.7175144212722016,0A6.7175144212722016,6.7175144212722016,0,1,1,6.7175144212722016,0" style="fill: #f58518; stroke-width: 2; opacity: 0.7;"></path><path transform="translate(87.09090909090908,149)" d="M5.484827557301444,0A5.484827557301444,5.484827557301444,0,1,1,-5.484827557301444,0A5.484827557301444,5.484827557301444,0,1,1,5.484827557301444,0" style="fill: #f58518; stroke-width: 2; opacity: 0.7;"></path><path transform="translate(108.83636363636364,98.6)" d="M7.756717518813397,0A7.756717518813397,7.756717518813397,0,1,1,-7.756717518813397,0A7.756717518813397,7.756717518813397,0,1,1,7.756717518813397,0" style="fill: #f58518; stroke-width: 2; opacity: 0.7;"></path><path transform="translate(42.50909090909091,153.8)" d="M5.484827557301444,0A5.484827557301444,5.484827557301444,0,1,1,-5.484827557301444,0A5.484827557301444,5.484827557301444,0,1,1,5.484827557301444,0" style="fill: #f58518; stroke-width: 2; opacity: 0.7;"></path><path transform="translate(51.85454545454545,150)" d="M5.484827557301444,0A5.484827557301444,5.484827557301444,0,1,1,-5.484827557301444,0A5.484827557301444,5.484827557301444,0,1,1,5.484827557301444,0" style="fill: #f58518; stroke-width: 2; opacity: 0.7;"></path><path transform="translate(57.99999999999999,160)" d="M5.484827557301444,0A5.484827557301444,5.484827557301444,0,1,1,-5.484827557301444,0A5.484827557301444,5.484827557301444,0,1,1,5.484827557301444,0" style="fill: #f58518; stroke-width: 2; opacity: 0.7;"></path><path transform="translate(30.981818181818184,170.4)" d="M5.484827557301444,0A5.484827557301444,5.484827557301444,0,1,1,-5.484827557301444,0A5.484827557301444,5.484827557301444,0,1,1,5.484827557301444,0" style="fill: #f58518; stroke-width: 2; opacity: 0.7;"></path><path transform="translate(82.98181818181818,156.4)" d="M6.7175144212722016,0A6.7175144212722016,6.7175144212722016,0,1,1,-6.7175144212722016,0A6.7175144212722016,6.7175144212722016,0,1,1,6.7175144212722016,0" style="fill: #f58518; stroke-width: 2; opacity: 0.7;"></path><path transform="translate(69.38181818181818,170)" d="M5.484827557301444,0A5.484827557301444,5.484827557301444,0,1,1,-5.484827557301444,0A5.484827557301444,5.484827557301444,0,1,1,5.484827557301444,0" style="fill: #f58518; stroke-width: 2; opacity: 0.7;"></path><path transform="translate(58.18181818181818,160)" d="M5.484827557301444,0A5.484827557301444,5.484827557301444,0,1,1,-5.484827557301444,0A5.484827557301444,5.484827557301444,0,1,1,5.484827557301444,0" style="fill: #4c78a8; stroke-width: 2; opacity: 0.7;"></path><path transform="translate(124.7272727272727,65.99999999999999)" d="M9.5,0A9.5,9.5,0,1,1,-9.5,0A9.5,9.5,0,1,1,9.5,0" style="fill: #f58518; stroke-width: 2; opacity: 0.7;"></path><path transform="translate(149.78181818181818,100)" d="M8.67227382716513,0A8.67227382716513,8.67227382716513,0,1,1,-8.67227382716513,0A8.67227382716513,8.67227382716513,0,1,1,8.67227382716513,0" style="fill: #f58518; stroke-width: 2; opacity: 0.7;"></path><path transform="translate(35.56363636363636,165.39999999999998)" d="M5.484827557301444,0A5.484827557301444,5.484827557301444,0,1,1,-5.484827557301444,0A5.484827557301444,5.484827557301444,0,1,1,5.484827557301444,0" style="fill: #f58518; stroke-width: 2; opacity: 0.7;"></path><path transform="translate(27.309090909090912,160)" d="M5.484827557301444,0A5.484827557301444,5.484827557301444,0,1,1,-5.484827557301444,0A5.484827557301444,5.484827557301444,0,1,1,5.484827557301444,0" style="fill: #f58518; stroke-width: 2; opacity: 0.7;"></path><path transform="translate(51.163636363636364,150)" d="M5.484827557301444,0A5.484827557301444,5.484827557301444,0,1,1,-5.484827557301444,0A5.484827557301444,5.484827557301444,0,1,1,5.484827557301444,0" style="fill: #f58518; stroke-width: 2; opacity: 0.7;"></path><path transform="translate(47.74545454545455,160)" d="M5.484827557301444,0A5.484827557301444,5.484827557301444,0,1,1,-5.484827557301444,0A5.484827557301444,5.484827557301444,0,1,1,5.484827557301444,0" style="fill: #f58518; stroke-width: 2; opacity: 0.7;"></path><path transform="translate(62.763636363636365,145.2)" d="M6.7175144212722016,0A6.7175144212722016,6.7175144212722016,0,1,1,-6.7175144212722016,0A6.7175144212722016,6.7175144212722016,0,1,1,6.7175144212722016,0" style="fill: #f58518; stroke-width: 2; opacity: 0.7;"></path><path transform="translate(89.27272727272727,160)" d="M7.756717518813397,0A7.756717518813397,7.756717518813397,0,1,1,-7.756717518813397,0A7.756717518813397,7.756717518813397,0,1,1,7.756717518813397,0" style="fill: #f58518; stroke-width: 2; opacity: 0.7;"></path><path transform="translate(71.89090909090909,160)" d="M7.756717518813397,0A7.756717518813397,7.756717518813397,0,1,1,-7.756717518813397,0A7.756717518813397,7.756717518813397,0,1,1,7.756717518813397,0" style="fill: #f58518; stroke-width: 2; opacity: 0.7;"></path><path transform="translate(175.16363636363636,100)" d="M9.5,0A9.5,9.5,0,1,1,-9.5,0A9.5,9.5,0,1,1,9.5,0" style="fill: #f58518; stroke-width: 2; opacity: 0.7;"></path><path transform="translate(59.96363636363636,160)" d="M7.756717518813397,0A7.756717518813397,7.756717518813397,0,1,1,-7.756717518813397,0A7.756717518813397,7.756717518813397,0,1,1,7.756717518813397,0" style="fill: #f58518; stroke-width: 2; opacity: 0.7;"></path><path transform="translate(78.18181818181819,130)" d="M7.756717518813397,0A7.756717518813397,7.756717518813397,0,1,1,-7.756717518813397,0A7.756717518813397,7.756717518813397,0,1,1,7.756717518813397,0" style="fill: #f58518; stroke-width: 2; opacity: 0.7;"></path><path transform="translate(46.03636363636364,150)" d="M5.484827557301444,0A5.484827557301444,5.484827557301444,0,1,1,-5.484827557301444,0A5.484827557301444,5.484827557301444,0,1,1,5.484827557301444,0" style="fill: #f58518; stroke-width: 2; opacity: 0.7;"></path><path transform="translate(50.21818181818182,160)" d="M5.484827557301444,0A5.484827557301444,5.484827557301444,0,1,1,-5.484827557301444,0A5.484827557301444,5.484827557301444,0,1,1,5.484827557301444,0" style="fill: #f58518; stroke-width: 2; opacity: 0.7;"></path><path transform="translate(89.16363636363637,130.4)" d="M6.7175144212722016,0A6.7175144212722016,6.7175144212722016,0,1,1,-6.7175144212722016,0A6.7175144212722016,6.7175144212722016,0,1,1,6.7175144212722016,0" style="fill: #f58518; stroke-width: 2; opacity: 0.7;"></path><path transform="translate(75.4909090909091,155.20000000000002)" d="M5.484827557301444,0A5.484827557301444,5.484827557301444,0,1,1,-5.484827557301444,0A5.484827557301444,5.484827557301444,0,1,1,5.484827557301444,0" style="fill: #f58518; stroke-width: 2; opacity: 0.7;"></path><path transform="translate(115.30909090909091,110.00000000000001)" d="M7.756717518813397,0A7.756717518813397,7.756717518813397,0,1,1,-7.756717518813397,0A7.756717518813397,7.756717518813397,0,1,1,7.756717518813397,0" style="fill: #f58518; stroke-width: 2; opacity: 0.7;"></path><path transform="translate(184.76363636363638,0)" d="M6.7175144212722016,0A6.7175144212722016,6.7175144212722016,0,1,1,-6.7175144212722016,0A6.7175144212722016,6.7175144212722016,0,1,1,6.7175144212722016,0" style="fill: #4c78a8; stroke-width: 2; opacity: 0.7;"></path><path transform="translate(57.49090909090909,136.79999999999998)" d="M5.484827557301444,0A5.484827557301444,5.484827557301444,0,1,1,-5.484827557301444,0A5.484827557301444,5.484827557301444,0,1,1,5.484827557301444,0" style="fill: #4c78a8; stroke-width: 2; opacity: 0.7;"></path><path transform="translate(26.36363636363636,97)" d="M5.484827557301444,0A5.484827557301444,5.484827557301444,0,1,1,-5.484827557301444,0A5.484827557301444,5.484827557301444,0,1,1,5.484827557301444,0" style="fill: #4c78a8; stroke-width: 2; opacity: 0.7;"></path><path transform="translate(115.81818181818181,136.39999999999998)" d="M5.484827557301444,0A5.484827557301444,5.484827557301444,0,1,1,-5.484827557301444,0A5.484827557301444,5.484827557301444,0,1,1,5.484827557301444,0" style="fill: #4c78a8; stroke-width: 2; opacity: 0.7;"></path><path transform="translate(61.163636363636364,120)" d="M5.484827557301444,0A5.484827557301444,5.484827557301444,0,1,1,-5.484827557301444,0A5.484827557301444,5.484827557301444,0,1,1,5.484827557301444,0" style="fill: #4c78a8; stroke-width: 2; opacity: 0.7;"></path><path transform="translate(119.63636363636363,137.8)" d="M5.484827557301444,0A5.484827557301444,5.484827557301444,0,1,1,-5.484827557301444,0A5.484827557301444,5.484827557301444,0,1,1,5.484827557301444,0" style="fill: #4c78a8; stroke-width: 2; opacity: 0.7;"></path><path transform="translate(65.05454545454545,160)" d="M5.484827557301444,0A5.484827557301444,5.484827557301444,0,1,1,-5.484827557301444,0A5.484827557301444,5.484827557301444,0,1,1,5.484827557301444,0" style="fill: #4c78a8; stroke-width: 2; opacity: 0.7;"></path><path transform="translate(52.654545454545456,160)" d="M5.484827557301444,0A5.484827557301444,5.484827557301444,0,1,1,-5.484827557301444,0A5.484827557301444,5.484827557301444,0,1,1,5.484827557301444,0" style="fill: #4c78a8; stroke-width: 2; opacity: 0.7;"></path><path transform="translate(125.92727272727274,129)" d="M5.484827557301444,0A5.484827557301444,5.484827557301444,0,1,1,-5.484827557301444,0A5.484827557301444,5.484827557301444,0,1,1,5.484827557301444,0" style="fill: #4c78a8; stroke-width: 2; opacity: 0.7;"></path><path transform="translate(126,126.4)" d="M7.756717518813397,0A7.756717518813397,7.756717518813397,0,1,1,-7.756717518813397,0A7.756717518813397,7.756717518813397,0,1,1,7.756717518813397,0" style="fill: #4c78a8; stroke-width: 2; opacity: 0.7;"></path><path transform="translate(84.83636363636363,86.99999999999999)" d="M5.484827557301444,0A5.484827557301444,5.484827557301444,0,1,1,-5.484827557301444,0A5.484827557301444,5.484827557301444,0,1,1,5.484827557301444,0" style="fill: #4c78a8; stroke-width: 2; opacity: 0.7;"></path><path transform="translate(164.9090909090909,130)" d="M6.7175144212722016,0A6.7175144212722016,6.7175144212722016,0,1,1,-6.7175144212722016,0A6.7175144212722016,6.7175144212722016,0,1,1,6.7175144212722016,0" style="fill: #4c78a8; stroke-width: 2; opacity: 0.7;"></path><path transform="translate(84.25454545454546,70)" d="M7.756717518813397,0A7.756717518813397,7.756717518813397,0,1,1,-7.756717518813397,0A7.756717518813397,7.756717518813397,0,1,1,7.756717518813397,0" style="fill: #4c78a8; stroke-width: 2; opacity: 0.7;"></path><path transform="translate(147.45454545454544,140)" d="M5.484827557301444,0A5.484827557301444,5.484827557301444,0,1,1,-5.484827557301444,0A5.484827557301444,5.484827557301444,0,1,1,5.484827557301444,0" style="fill: #4c78a8; stroke-width: 2; opacity: 0.7;"></path><path transform="translate(75.23636363636365,100)" d="M8.67227382716513,0A8.67227382716513,8.67227382716513,0,1,1,-8.67227382716513,0A8.67227382716513,8.67227382716513,0,1,1,8.67227382716513,0" style="fill: #f58518; stroke-width: 2; opacity: 0.7;"></path><path transform="translate(110.76363636363638,160)" d="M8.67227382716513,0A8.67227382716513,8.67227382716513,0,1,1,-8.67227382716513,0A8.67227382716513,8.67227382716513,0,1,1,8.67227382716513,0" style="fill: #4c78a8; stroke-width: 2; opacity: 0.7;"></path><path transform="translate(84.00000000000001,120)" d="M6.7175144212722016,0A6.7175144212722016,6.7175144212722016,0,1,1,-6.7175144212722016,0A6.7175144212722016,6.7175144212722016,0,1,1,6.7175144212722016,0" style="fill: #4c78a8; stroke-width: 2; opacity: 0.7;"></path><path transform="translate(57.054545454545455,170)" d="M5.484827557301444,0A5.484827557301444,5.484827557301444,0,1,1,-5.484827557301444,0A5.484827557301444,5.484827557301444,0,1,1,5.484827557301444,0" style="fill: #4c78a8; stroke-width: 2; opacity: 0.7;"></path><path transform="translate(103.41818181818184,148.8)" d="M5.484827557301444,0A5.484827557301444,5.484827557301444,0,1,1,-5.484827557301444,0A5.484827557301444,5.484827557301444,0,1,1,5.484827557301444,0" style="fill: #4c78a8; stroke-width: 2; opacity: 0.7;"></path><path transform="translate(56.29090909090909,159.60000000000002)" d="M5.484827557301444,0A5.484827557301444,5.484827557301444,0,1,1,-5.484827557301444,0A5.484827557301444,5.484827557301444,0,1,1,5.484827557301444,0" style="fill: #4c78a8; stroke-width: 2; opacity: 0.7;"></path><path transform="translate(60.29090909090908,120)" d="M5.484827557301444,0A5.484827557301444,5.484827557301444,0,1,1,-5.484827557301444,0A5.484827557301444,5.484827557301444,0,1,1,5.484827557301444,0" style="fill: #4c78a8; stroke-width: 2; opacity: 0.7;"></path><path transform="translate(27.49090909090909,171.2)" d="M5.484827557301444,0A5.484827557301444,5.484827557301444,0,1,1,-5.484827557301444,0A5.484827557301444,5.484827557301444,0,1,1,5.484827557301444,0" style="fill: #f58518; stroke-width: 2; opacity: 0.7;"></path><path transform="translate(37.6,160)" d="M5.484827557301444,0A5.484827557301444,5.484827557301444,0,1,1,-5.484827557301444,0A5.484827557301444,5.484827557301444,0,1,1,5.484827557301444,0" style="fill: #4c78a8; stroke-width: 2; opacity: 0.7;"></path><path transform="translate(49.127272727272725,160)" d="M5.484827557301444,0A5.484827557301444,5.484827557301444,0,1,1,-5.484827557301444,0A5.484827557301444,5.484827557301444,0,1,1,5.484827557301444,0" style="fill: #4c78a8; stroke-width: 2; opacity: 0.7;"></path><path transform="translate(68.03636363636365,120)" d="M6.7175144212722016,0A6.7175144212722016,6.7175144212722016,0,1,1,-6.7175144212722016,0A6.7175144212722016,6.7175144212722016,0,1,1,6.7175144212722016,0" style="fill: #4c78a8; stroke-width: 2; opacity: 0.7;"></path><path transform="translate(74.65454545454546,120)" d="M7.756717518813397,0A7.756717518813397,7.756717518813397,0,1,1,-7.756717518813397,0A7.756717518813397,7.756717518813397,0,1,1,7.756717518813397,0" style="fill: #4c78a8; stroke-width: 2; opacity: 0.7;"></path><path transform="translate(96.69090909090909,131.8)" d="M6.7175144212722016,0A6.7175144212722016,6.7175144212722016,0,1,1,-6.7175144212722016,0A6.7175144212722016,6.7175144212722016,0,1,1,6.7175144212722016,0" style="fill: #4c78a8; stroke-width: 2; opacity: 0.7;"></path><path transform="translate(140.83636363636361,140)" d="M7.756717518813397,0A7.756717518813397,7.756717518813397,0,1,1,-7.756717518813397,0A7.756717518813397,7.756717518813397,0,1,1,7.756717518813397,0" style="fill: #4c78a8; stroke-width: 2; opacity: 0.7;"></path><path transform="translate(88.25454545454545,159.4)" d="M5.484827557301444,0A5.484827557301444,5.484827557301444,0,1,1,-5.484827557301444,0A5.484827557301444,5.484827557301444,0,1,1,5.484827557301444,0" style="fill: #4c78a8; stroke-width: 2; opacity: 0.7;"></path><path transform="translate(109.30909090909091,160)" d="M6.7175144212722016,0A6.7175144212722016,6.7175144212722016,0,1,1,-6.7175144212722016,0A6.7175144212722016,6.7175144212722016,0,1,1,6.7175144212722016,0" style="fill: #4c78a8; stroke-width: 2; opacity: 0.7;"></path><path transform="translate(94.14545454545454,96.8)" d="M7.756717518813397,0A7.756717518813397,7.756717518813397,0,1,1,-7.756717518813397,0A7.756717518813397,7.756717518813397,0,1,1,7.756717518813397,0" style="fill: #4c78a8; stroke-width: 2; opacity: 0.7;"></path><path transform="translate(175.74545454545455,19.999999999999996)" d="M7.756717518813397,0A7.756717518813397,7.756717518813397,0,1,1,-7.756717518813397,0A7.756717518813397,7.756717518813397,0,1,1,7.756717518813397,0" style="fill: #f58518; stroke-width: 2; opacity: 0.7;"></path><path transform="translate(102.36363636363637,140)" d="M8.67227382716513,0A8.67227382716513,8.67227382716513,0,1,1,-8.67227382716513,0A8.67227382716513,8.67227382716513,0,1,1,8.67227382716513,0" style="fill: #4c78a8; stroke-width: 2; opacity: 0.7;"></path><path transform="translate(42.14545454545455,170)" d="M5.484827557301444,0A5.484827557301444,5.484827557301444,0,1,1,-5.484827557301444,0A5.484827557301444,5.484827557301444,0,1,1,5.484827557301444,0" style="fill: #4c78a8; stroke-width: 2; opacity: 0.7;"></path><path transform="translate(28.145454545454545,171.2)" d="M5.484827557301444,0A5.484827557301444,5.484827557301444,0,1,1,-5.484827557301444,0A5.484827557301444,5.484827557301444,0,1,1,5.484827557301444,0" style="fill: #4c78a8; stroke-width: 2; opacity: 0.7;"></path><path transform="translate(44.21818181818182,156)" d="M5.484827557301444,0A5.484827557301444,5.484827557301444,0,1,1,-5.484827557301444,0A5.484827557301444,5.484827557301444,0,1,1,5.484827557301444,0" style="fill: #4c78a8; stroke-width: 2; opacity: 0.7;"></path><path transform="translate(31.2,161.60000000000002)" d="M3.8783587594066984,0A3.8783587594066984,3.8783587594066984,0,1,1,-3.8783587594066984,0A3.8783587594066984,3.8783587594066984,0,1,1,3.8783587594066984,0" style="fill: #4c78a8; stroke-width: 2; opacity: 0.7;"></path><path transform="translate(48.8,168.4)" d="M5.484827557301444,0A5.484827557301444,5.484827557301444,0,1,1,-5.484827557301444,0A5.484827557301444,5.484827557301444,0,1,1,5.484827557301444,0" style="fill: #4c78a8; stroke-width: 2; opacity: 0.7;"></path><path transform="translate(74.36363636363636,140)" d="M7.756717518813397,0A7.756717518813397,7.756717518813397,0,1,1,-7.756717518813397,0A7.756717518813397,7.756717518813397,0,1,1,7.756717518813397,0" style="fill: #f58518; stroke-width: 2; opacity: 0.7;"></path><path transform="translate(48.29090909090909,145.6)" d="M5.484827557301444,0A5.484827557301444,5.484827557301444,0,1,1,-5.484827557301444,0A5.484827557301444,5.484827557301444,0,1,1,5.484827557301444,0" style="fill: #f58518; stroke-width: 2; opacity: 0.7;"></path><path transform="translate(87.30909090909091,160)" d="M7.756717518813397,0A7.756717518813397,7.756717518813397,0,1,1,-7.756717518813397,0A7.756717518813397,7.756717518813397,0,1,1,7.756717518813397,0" style="fill: #4c78a8; stroke-width: 2; opacity: 0.7;"></path><path transform="translate(57.054545454545455,140)" d="M6.7175144212722016,0A6.7175144212722016,6.7175144212722016,0,1,1,-6.7175144212722016,0A6.7175144212722016,6.7175144212722016,0,1,1,6.7175144212722016,0" style="fill: #4c78a8; stroke-width: 2; opacity: 0.7;"></path><path transform="translate(42.21818181818182,132.20000000000002)" d="M5.484827557301444,0A5.484827557301444,5.484827557301444,0,1,1,-5.484827557301444,0A5.484827557301444,5.484827557301444,0,1,1,5.484827557301444,0" style="fill: #f58518; stroke-width: 2; opacity: 0.7;"></path><path transform="translate(39.163636363636364,170.6)" d="M5.484827557301444,0A5.484827557301444,5.484827557301444,0,1,1,-5.484827557301444,0A5.484827557301444,5.484827557301444,0,1,1,5.484827557301444,0" style="fill: #f58518; stroke-width: 2; opacity: 0.7;"></path><path transform="translate(56.472727272727276,140)" d="M5.484827557301444,0A5.484827557301444,5.484827557301444,0,1,1,-5.484827557301444,0A5.484827557301444,5.484827557301444,0,1,1,5.484827557301444,0" style="fill: #4c78a8; stroke-width: 2; opacity: 0.7;"></path><path transform="translate(36.618181818181824,175)" d="M5.484827557301444,0A5.484827557301444,5.484827557301444,0,1,1,-5.484827557301444,0A5.484827557301444,5.484827557301444,0,1,1,5.484827557301444,0" style="fill: #f58518; stroke-width: 2; opacity: 0.7;"></path><path transform="translate(45.81818181818182,180)" d="M5.484827557301444,0A5.484827557301444,5.484827557301444,0,1,1,-5.484827557301444,0A5.484827557301444,5.484827557301444,0,1,1,5.484827557301444,0" style="fill: #4c78a8; stroke-width: 2; opacity: 0.7;"></path><path transform="translate(119.38181818181816,176.6)" d="M5.484827557301444,0A5.484827557301444,5.484827557301444,0,1,1,-5.484827557301444,0A5.484827557301444,5.484827557301444,0,1,1,5.484827557301444,0" style="fill: #4c78a8; stroke-width: 2; opacity: 0.7;"></path><path transform="translate(105.56363636363638,81.60000000000001)" d="M6.7175144212722016,0A6.7175144212722016,6.7175144212722016,0,1,1,-6.7175144212722016,0A6.7175144212722016,6.7175144212722016,0,1,1,6.7175144212722016,0" style="fill: #f58518; stroke-width: 2; opacity: 0.7;"></path><path transform="translate(82.43636363636364,160)" d="M5.484827557301444,0A5.484827557301444,5.484827557301444,0,1,1,-5.484827557301444,0A5.484827557301444,5.484827557301444,0,1,1,5.484827557301444,0" style="fill: #4c78a8; stroke-width: 2; opacity: 0.7;"></path><path transform="translate(64.8,165)" d="M5.484827557301444,0A5.484827557301444,5.484827557301444,0,1,1,-5.484827557301444,0A5.484827557301444,5.484827557301444,0,1,1,5.484827557301444,0" style="fill: #f58518; stroke-width: 2; opacity: 0.7;"></path></g></g><path class="foreground" d="" style="display: none; fill: none;"></path></g><g transform="translate(222,0)"><path class="background" d="M0.5,0.5h200v200h-200Z" style="fill: none; stroke: #ddd;"></path><g><g class="mark-group role-axis"><g transform="translate(0.5,200.5)"><path class="background" d="M0,0h0v0h0Z" style="pointer-events: none; fill: none;"></path><g><g class="mark-rule role-axis-grid" style="pointer-events: none;"><line transform="translate(0,-200)" x2="0" y2="200" style="fill: none; stroke: #ddd; stroke-width: 1; opacity: 1;"></line><line transform="translate(36,-200)" x2="0" y2="200" style="fill: none; stroke: #ddd; stroke-width: 1; opacity: 1;"></line><line transform="translate(73,-200)" x2="0" y2="200" style="fill: none; stroke: #ddd; stroke-width: 1; opacity: 1;"></line><line transform="translate(109,-200)" x2="0" y2="200" style="fill: none; stroke: #ddd; stroke-width: 1; opacity: 1;"></line><line transform="translate(145,-200)" x2="0" y2="200" style="fill: none; stroke: #ddd; stroke-width: 1; opacity: 1;"></line><line transform="translate(182,-200)" x2="0" y2="200" style="fill: none; stroke: #ddd; stroke-width: 1; opacity: 1;"></line></g></g><path class="foreground" d="" style="pointer-events: none; display: none; fill: none;"></path></g></g><g class="mark-group role-axis"><g transform="translate(0.5,0.5)"><path class="background" d="M0,0h0v0h0Z" style="pointer-events: none; fill: none;"></path><g><g class="mark-rule role-axis-grid" style="pointer-events: none;"><line transform="translate(0,200)" x2="200" y2="0" style="fill: none; stroke: #ddd; stroke-width: 1; opacity: 1;"></line><line transform="translate(0,160)" x2="200" y2="0" style="fill: none; stroke: #ddd; stroke-width: 1; opacity: 1;"></line><line transform="translate(0,120)" x2="200" y2="0" style="fill: none; stroke: #ddd; stroke-width: 1; opacity: 1;"></line><line transform="translate(0,80)" x2="200" y2="0" style="fill: none; stroke: #ddd; stroke-width: 1; opacity: 1;"></line><line transform="translate(0,40)" x2="200" y2="0" style="fill: none; stroke: #ddd; stroke-width: 1; opacity: 1;"></line><line transform="translate(0,0)" x2="200" y2="0" style="fill: none; stroke: #ddd; stroke-width: 1; opacity: 1;"></line></g></g><path class="foreground" d="" style="pointer-events: none; display: none; fill: none;"></path></g></g><g class="mark-symbol role-mark child_marks"><path transform="translate(61.781818181818174,179.8)" d="M5.484827557301444,0A5.484827557301444,5.484827557301444,0,1,1,-5.484827557301444,0A5.484827557301444,5.484827557301444,0,1,1,5.484827557301444,0" style="fill: #f58518; stroke-width: 2; opacity: 0.7;"></path><path transform="translate(89.41818181818182,127.8)" d="M7.756717518813397,0A7.756717518813397,7.756717518813397,0,1,1,-7.756717518813397,0A7.756717518813397,7.756717518813397,0,1,1,7.756717518813397,0" style="fill: #f58518; stroke-width: 2; opacity: 0.7;"></path><path transform="translate(128.21818181818182,100)" d="M7.756717518813397,0A7.756717518813397,7.756717518813397,0,1,1,-7.756717518813397,0A7.756717518813397,7.756717518813397,0,1,1,7.756717518813397,0" style="fill: #f58518; stroke-width: 2; opacity: 0.7;"></path><path transform="translate(53.92727272727272,139.6)" d="M5.484827557301444,0A5.484827557301444,5.484827557301444,0,1,1,-5.484827557301444,0A5.484827557301444,5.484827557301444,0,1,1,5.484827557301444,0" style="fill: #f58518; stroke-width: 2; opacity: 0.7;"></path><path transform="translate(37.56363636363636,166.6)" d="M6.7175144212722016,0A6.7175144212722016,6.7175144212722016,0,1,1,-6.7175144212722016,0A6.7175144212722016,6.7175144212722016,0,1,1,6.7175144212722016,0" style="fill: #f58518; stroke-width: 2; opacity: 0.7;"></path><path transform="translate(61.709090909090904,130)" d="M6.7175144212722016,0A6.7175144212722016,6.7175144212722016,0,1,1,-6.7175144212722016,0A6.7175144212722016,6.7175144212722016,0,1,1,6.7175144212722016,0" style="fill: #f58518; stroke-width: 2; opacity: 0.7;"></path><path transform="translate(73.78181818181818,145)" d="M5.484827557301444,0A5.484827557301444,5.484827557301444,0,1,1,-5.484827557301444,0A5.484827557301444,5.484827557301444,0,1,1,5.484827557301444,0" style="fill: #f58518; stroke-width: 2; opacity: 0.7;"></path><path transform="translate(57.345454545454544,155.4)" d="M5.484827557301444,0A5.484827557301444,5.484827557301444,0,1,1,-5.484827557301444,0A5.484827557301444,5.484827557301444,0,1,1,5.484827557301444,0" style="fill: #f58518; stroke-width: 2; opacity: 0.7;"></path><path transform="translate(71.45454545454545,140)" d="M5.484827557301444,0A5.484827557301444,5.484827557301444,0,1,1,-5.484827557301444,0A5.484827557301444,5.484827557301444,0,1,1,5.484827557301444,0" style="fill: #f58518; stroke-width: 2; opacity: 0.7;"></path><path transform="translate(54.76363636363637,140)" d="M5.484827557301444,0A5.484827557301444,5.484827557301444,0,1,1,-5.484827557301444,0A5.484827557301444,5.484827557301444,0,1,1,5.484827557301444,0" style="fill: #f58518; stroke-width: 2; opacity: 0.7;"></path><path transform="translate(75.23636363636365,151)" d="M7.756717518813397,0A7.756717518813397,7.756717518813397,0,1,1,-7.756717518813397,0A7.756717518813397,7.756717518813397,0,1,1,7.756717518813397,0" style="fill: #f58518; stroke-width: 2; opacity: 0.7;"></path><path transform="translate(61.56363636363636,138.60000000000002)" d="M6.7175144212722016,0A6.7175144212722016,6.7175144212722016,0,1,1,-6.7175144212722016,0A6.7175144212722016,6.7175144212722016,0,1,1,6.7175144212722016,0" style="fill: #f58518; stroke-width: 2; opacity: 0.7;"></path><path transform="translate(37.418181818181814,148)" d="M5.484827557301444,0A5.484827557301444,5.484827557301444,0,1,1,-5.484827557301444,0A5.484827557301444,5.484827557301444,0,1,1,5.484827557301444,0" style="fill: #f58518; stroke-width: 2; opacity: 0.7;"></path><path transform="translate(126.58181818181819,96)" d="M7.756717518813397,0A7.756717518813397,7.756717518813397,0,1,1,-7.756717518813397,0A7.756717518813397,7.756717518813397,0,1,1,7.756717518813397,0" style="fill: #f58518; stroke-width: 2; opacity: 0.7;"></path><path transform="translate(96.03636363636365,170)" d="M5.484827557301444,0A5.484827557301444,5.484827557301444,0,1,1,-5.484827557301444,0A5.484827557301444,5.484827557301444,0,1,1,5.484827557301444,0" style="fill: #f58518; stroke-width: 2; opacity: 0.7;"></path><path transform="translate(59.81818181818181,150.6)" d="M5.484827557301444,0A5.484827557301444,5.484827557301444,0,1,1,-5.484827557301444,0A5.484827557301444,5.484827557301444,0,1,1,5.484827557301444,0" style="fill: #f58518; stroke-width: 2; opacity: 0.7;"></path><path transform="translate(11.163636363636362,180)" d="M3.8783587594066984,0A3.8783587594066984,3.8783587594066984,0,1,1,-3.8783587594066984,0A3.8783587594066984,3.8783587594066984,0,1,1,3.8783587594066984,0" style="fill: #4c78a8; stroke-width: 2; opacity: 0.7;"></path><path transform="translate(62.07272727272727,140)" d="M6.7175144212722016,0A6.7175144212722016,6.7175144212722016,0,1,1,-6.7175144212722016,0A6.7175144212722016,6.7175144212722016,0,1,1,6.7175144212722016,0" style="fill: #f58518; stroke-width: 2; opacity: 0.7;"></path><path transform="translate(97.67272727272727,137.2)" d="M5.484827557301444,0A5.484827557301444,5.484827557301444,0,1,1,-5.484827557301444,0A5.484827557301444,5.484827557301444,0,1,1,5.484827557301444,0" style="fill: #4c78a8; stroke-width: 2; opacity: 0.7;"></path><path transform="translate(91.92727272727274,100)" d="M5.484827557301444,0A5.484827557301444,5.484827557301444,0,1,1,-5.484827557301444,0A5.484827557301444,5.484827557301444,0,1,1,5.484827557301444,0" style="fill: #4c78a8; stroke-width: 2; opacity: 0.7;"></path><path transform="translate(53.56363636363637,156)" d="M5.484827557301444,0A5.484827557301444,5.484827557301444,0,1,1,-5.484827557301444,0A5.484827557301444,5.484827557301444,0,1,1,5.484827557301444,0" style="fill: #f58518; stroke-width: 2; opacity: 0.7;"></path><path transform="translate(36.618181818181824,163.39999999999998)" d="M3.8783587594066984,0A3.8783587594066984,3.8783587594066984,0,1,1,-3.8783587594066984,0A3.8783587594066984,3.8783587594066984,0,1,1,3.8783587594066984,0" style="fill: #f58518; stroke-width: 2; opacity: 0.7;"></path><path transform="translate(126.65454545454544,96.6)" d="M7.756717518813397,0A7.756717518813397,7.756717518813397,0,1,1,-7.756717518813397,0A7.756717518813397,7.756717518813397,0,1,1,7.756717518813397,0" style="fill: #f58518; stroke-width: 2; opacity: 0.7;"></path><path transform="translate(20.909090909090907,180)" d="M5.484827557301444,0A5.484827557301444,5.484827557301444,0,1,1,-5.484827557301444,0A5.484827557301444,5.484827557301444,0,1,1,5.484827557301444,0" style="fill: #4c78a8; stroke-width: 2; opacity: 0.7;"></path><path transform="translate(59.345454545454544,114.00000000000001)" d="M5.484827557301444,0A5.484827557301444,5.484827557301444,0,1,1,-5.484827557301444,0A5.484827557301444,5.484827557301444,0,1,1,5.484827557301444,0" style="fill: #4c78a8; stroke-width: 2; opacity: 0.7;"></path><path transform="translate(82.72727272727273,135)" d="M5.484827557301444,0A5.484827557301444,5.484827557301444,0,1,1,-5.484827557301444,0A5.484827557301444,5.484827557301444,0,1,1,5.484827557301444,0" style="fill: #f58518; stroke-width: 2; opacity: 0.7;"></path><path transform="translate(41.27272727272727,150)" d="M5.484827557301444,0A5.484827557301444,5.484827557301444,0,1,1,-5.484827557301444,0A5.484827557301444,5.484827557301444,0,1,1,5.484827557301444,0" style="fill: #4c78a8; stroke-width: 2; opacity: 0.7;"></path><path transform="translate(55.92727272727272,140)" d="M5.484827557301444,0A5.484827557301444,5.484827557301444,0,1,1,-5.484827557301444,0A5.484827557301444,5.484827557301444,0,1,1,5.484827557301444,0" style="fill: #4c78a8; stroke-width: 2; opacity: 0.7;"></path><path transform="translate(161.0909090909091,150)" d="M6.7175144212722016,0A6.7175144212722016,6.7175144212722016,0,1,1,-6.7175144212722016,0A6.7175144212722016,6.7175144212722016,0,1,1,6.7175144212722016,0" style="fill: #4c78a8; stroke-width: 2; opacity: 0.7;"></path><path transform="translate(81.52727272727273,130.4)" d="M5.484827557301444,0A5.484827557301444,5.484827557301444,0,1,1,-5.484827557301444,0A5.484827557301444,5.484827557301444,0,1,1,5.484827557301444,0" style="fill: #4c78a8; stroke-width: 2; opacity: 0.7;"></path><path transform="translate(76.07272727272728,118.39999999999999)" d="M5.484827557301444,0A5.484827557301444,5.484827557301444,0,1,1,-5.484827557301444,0A5.484827557301444,5.484827557301444,0,1,1,5.484827557301444,0" style="fill: #f58518; stroke-width: 2; opacity: 0.7;"></path><path transform="translate(52.03636363636364,120)" d="M5.484827557301444,0A5.484827557301444,5.484827557301444,0,1,1,-5.484827557301444,0A5.484827557301444,5.484827557301444,0,1,1,5.484827557301444,0" style="fill: #4c78a8; stroke-width: 2; opacity: 0.7;"></path><path transform="translate(26.36363636363636,180)" d="M3.8783587594066984,0A3.8783587594066984,3.8783587594066984,0,1,1,-3.8783587594066984,0A3.8783587594066984,3.8783587594066984,0,1,1,3.8783587594066984,0" style="fill: #f58518; stroke-width: 2; opacity: 0.7;"></path><path transform="translate(93.49090909090908,120)" d="M6.7175144212722016,0A6.7175144212722016,6.7175144212722016,0,1,1,-6.7175144212722016,0A6.7175144212722016,6.7175144212722016,0,1,1,6.7175144212722016,0" style="fill: #f58518; stroke-width: 2; opacity: 0.7;"></path><path transform="translate(62.94545454545454,130)" d="M5.484827557301444,0A5.484827557301444,5.484827557301444,0,1,1,-5.484827557301444,0A5.484827557301444,5.484827557301444,0,1,1,5.484827557301444,0" style="fill: #f58518; stroke-width: 2; opacity: 0.7;"></path><path transform="translate(38.72727272727273,170)" d="M5.484827557301444,0A5.484827557301444,5.484827557301444,0,1,1,-5.484827557301444,0A5.484827557301444,5.484827557301444,0,1,1,5.484827557301444,0" style="fill: #f58518; stroke-width: 2; opacity: 0.7;"></path><path transform="translate(45.2,164)" d="M5.484827557301444,0A5.484827557301444,5.484827557301444,0,1,1,-5.484827557301444,0A5.484827557301444,5.484827557301444,0,1,1,5.484827557301444,0" style="fill: #f58518; stroke-width: 2; opacity: 0.7;"></path><path transform="translate(87.56363636363635,141.6)" d="M7.756717518813397,0A7.756717518813397,7.756717518813397,0,1,1,-7.756717518813397,0A7.756717518813397,7.756717518813397,0,1,1,7.756717518813397,0" style="fill: #f58518; stroke-width: 2; opacity: 0.7;"></path><path transform="translate(48.8,166.4)" d="M5.484827557301444,0A5.484827557301444,5.484827557301444,0,1,1,-5.484827557301444,0A5.484827557301444,5.484827557301444,0,1,1,5.484827557301444,0" style="fill: #f58518; stroke-width: 2; opacity: 0.7;"></path><path transform="translate(45.38181818181818,149.6)" d="M5.484827557301444,0A5.484827557301444,5.484827557301444,0,1,1,-5.484827557301444,0A5.484827557301444,5.484827557301444,0,1,1,5.484827557301444,0" style="fill: #f58518; stroke-width: 2; opacity: 0.7;"></path><path transform="translate(108.36363636363637,115.99999999999999)" d="M9.5,0A9.5,9.5,0,1,1,-9.5,0A9.5,9.5,0,1,1,9.5,0" style="fill: #f58518; stroke-width: 2; opacity: 0.7;"></path><path transform="translate(52.800000000000004,160)" d="M5.484827557301444,0A5.484827557301444,5.484827557301444,0,1,1,-5.484827557301444,0A5.484827557301444,5.484827557301444,0,1,1,5.484827557301444,0" style="fill: #f58518; stroke-width: 2; opacity: 0.7;"></path><path transform="translate(41.38181818181819,160)" d="M5.484827557301444,0A5.484827557301444,5.484827557301444,0,1,1,-5.484827557301444,0A5.484827557301444,5.484827557301444,0,1,1,5.484827557301444,0" style="fill: #f58518; stroke-width: 2; opacity: 0.7;"></path><path transform="translate(73.70909090909092,143.4)" d="M5.484827557301444,0A5.484827557301444,5.484827557301444,0,1,1,-5.484827557301444,0A5.484827557301444,5.484827557301444,0,1,1,5.484827557301444,0" style="fill: #f58518; stroke-width: 2; opacity: 0.7;"></path><path transform="translate(40.61818181818182,170)" d="M5.484827557301444,0A5.484827557301444,5.484827557301444,0,1,1,-5.484827557301444,0A5.484827557301444,5.484827557301444,0,1,1,5.484827557301444,0" style="fill: #f58518; stroke-width: 2; opacity: 0.7;"></path><path transform="translate(44.581818181818186,160)" d="M5.484827557301444,0A5.484827557301444,5.484827557301444,0,1,1,-5.484827557301444,0A5.484827557301444,5.484827557301444,0,1,1,5.484827557301444,0" style="fill: #f58518; stroke-width: 2; opacity: 0.7;"></path><path transform="translate(66.4,135)" d="M5.484827557301444,0A5.484827557301444,5.484827557301444,0,1,1,-5.484827557301444,0A5.484827557301444,5.484827557301444,0,1,1,5.484827557301444,0" style="fill: #f58518; stroke-width: 2; opacity: 0.7;"></path><path transform="translate(30.94545454545454,175)" d="M5.484827557301444,0A5.484827557301444,5.484827557301444,0,1,1,-5.484827557301444,0A5.484827557301444,5.484827557301444,0,1,1,5.484827557301444,0" style="fill: #f58518; stroke-width: 2; opacity: 0.7;"></path><path transform="translate(37.56363636363636,160)" d="M5.484827557301444,0A5.484827557301444,5.484827557301444,0,1,1,-5.484827557301444,0A5.484827557301444,5.484827557301444,0,1,1,5.484827557301444,0" style="fill: #f58518; stroke-width: 2; opacity: 0.7;"></path><path transform="translate(51.45454545454545,160)" d="M5.484827557301444,0A5.484827557301444,5.484827557301444,0,1,1,-5.484827557301444,0A5.484827557301444,5.484827557301444,0,1,1,5.484827557301444,0" style="fill: #f58518; stroke-width: 2; opacity: 0.7;"></path><path transform="translate(47.85454545454545,145)" d="M5.484827557301444,0A5.484827557301444,5.484827557301444,0,1,1,-5.484827557301444,0A5.484827557301444,5.484827557301444,0,1,1,5.484827557301444,0" style="fill: #f58518; stroke-width: 2; opacity: 0.7;"></path><path transform="translate(63.527272727272724,130)" d="M5.484827557301444,0A5.484827557301444,5.484827557301444,0,1,1,-5.484827557301444,0A5.484827557301444,5.484827557301444,0,1,1,5.484827557301444,0" style="fill: #f58518; stroke-width: 2; opacity: 0.7;"></path><path transform="translate(98.36363636363636,100)" d="M9.5,0A9.5,9.5,0,1,1,-9.5,0A9.5,9.5,0,1,1,9.5,0" style="fill: #f58518; stroke-width: 2; opacity: 0.7;"></path><path transform="translate(59.74545454545455,154)" d="M5.484827557301444,0A5.484827557301444,5.484827557301444,0,1,1,-5.484827557301444,0A5.484827557301444,5.484827557301444,0,1,1,5.484827557301444,0" style="fill: #f58518; stroke-width: 2; opacity: 0.7;"></path><path transform="translate(30.363636363636363,170)" d="M5.484827557301444,0A5.484827557301444,5.484827557301444,0,1,1,-5.484827557301444,0A5.484827557301444,5.484827557301444,0,1,1,5.484827557301444,0" style="fill: #f58518; stroke-width: 2; opacity: 0.7;"></path><path transform="translate(67.78181818181818,172.8)" d="M6.7175144212722016,0A6.7175144212722016,6.7175144212722016,0,1,1,-6.7175144212722016,0A6.7175144212722016,6.7175144212722016,0,1,1,6.7175144212722016,0" style="fill: #f58518; stroke-width: 2; opacity: 0.7;"></path><path transform="translate(43.16363636363636,167.4)" d="M5.484827557301444,0A5.484827557301444,5.484827557301444,0,1,1,-5.484827557301444,0A5.484827557301444,5.484827557301444,0,1,1,5.484827557301444,0" style="fill: #f58518; stroke-width: 2; opacity: 0.7;"></path><path transform="translate(108.54545454545455,97.2)" d="M8.67227382716513,0A8.67227382716513,8.67227382716513,0,1,1,-8.67227382716513,0A8.67227382716513,8.67227382716513,0,1,1,8.67227382716513,0" style="fill: #f58518; stroke-width: 2; opacity: 0.7;"></path><path transform="translate(90.9090909090909,125)" d="M7.756717518813397,0A7.756717518813397,7.756717518813397,0,1,1,-7.756717518813397,0A7.756717518813397,7.756717518813397,0,1,1,7.756717518813397,0" style="fill: #f58518; stroke-width: 2; opacity: 0.7;"></path><path transform="translate(48.69090909090909,147.8)" d="M5.484827557301444,0A5.484827557301444,5.484827557301444,0,1,1,-5.484827557301444,0A5.484827557301444,5.484827557301444,0,1,1,5.484827557301444,0" style="fill: #f58518; stroke-width: 2; opacity: 0.7;"></path><path transform="translate(58.945454545454545,160)" d="M6.7175144212722016,0A6.7175144212722016,6.7175144212722016,0,1,1,-6.7175144212722016,0A6.7175144212722016,6.7175144212722016,0,1,1,6.7175144212722016,0" style="fill: #f58518; stroke-width: 2; opacity: 0.7;"></path><path transform="translate(63.67272727272728,140)" d="M5.484827557301444,0A5.484827557301444,5.484827557301444,0,1,1,-5.484827557301444,0A5.484827557301444,5.484827557301444,0,1,1,5.484827557301444,0" style="fill: #4c78a8; stroke-width: 2; opacity: 0.7;"></path><path transform="translate(38.50909090909091,167.79999999999998)" d="M5.484827557301444,0A5.484827557301444,5.484827557301444,0,1,1,-5.484827557301444,0A5.484827557301444,5.484827557301444,0,1,1,5.484827557301444,0" style="fill: #4c78a8; stroke-width: 2; opacity: 0.7;"></path><path transform="translate(38.654545454545456,160)" d="M5.484827557301444,0A5.484827557301444,5.484827557301444,0,1,1,-5.484827557301444,0A5.484827557301444,5.484827557301444,0,1,1,5.484827557301444,0" style="fill: #4c78a8; stroke-width: 2; opacity: 0.7;"></path><path transform="translate(34.90909090909091,120)" d="M5.484827557301444,0A5.484827557301444,5.484827557301444,0,1,1,-5.484827557301444,0A5.484827557301444,5.484827557301444,0,1,1,5.484827557301444,0" style="fill: #4c78a8; stroke-width: 2; opacity: 0.7;"></path><path transform="translate(75.99999999999999,130)" d="M6.7175144212722016,0A6.7175144212722016,6.7175144212722016,0,1,1,-6.7175144212722016,0A6.7175144212722016,6.7175144212722016,0,1,1,6.7175144212722016,0" style="fill: #4c78a8; stroke-width: 2; opacity: 0.7;"></path><path transform="translate(65.99999999999999,130)" d="M6.7175144212722016,0A6.7175144212722016,6.7175144212722016,0,1,1,-6.7175144212722016,0A6.7175144212722016,6.7175144212722016,0,1,1,6.7175144212722016,0" style="fill: #4c78a8; stroke-width: 2; opacity: 0.7;"></path><path transform="translate(72.03636363636363,116.19999999999999)" d="M5.484827557301444,0A5.484827557301444,5.484827557301444,0,1,1,-5.484827557301444,0A5.484827557301444,5.484827557301444,0,1,1,5.484827557301444,0" style="fill: #4c78a8; stroke-width: 2; opacity: 0.7;"></path><path transform="translate(156.76363636363638,100)" d="M7.756717518813397,0A7.756717518813397,7.756717518813397,0,1,1,-7.756717518813397,0A7.756717518813397,7.756717518813397,0,1,1,7.756717518813397,0" style="fill: #4c78a8; stroke-width: 2; opacity: 0.7;"></path><path transform="translate(47.27272727272727,160)" d="M5.484827557301444,0A5.484827557301444,5.484827557301444,0,1,1,-5.484827557301444,0A5.484827557301444,5.484827557301444,0,1,1,5.484827557301444,0" style="fill: #4c78a8; stroke-width: 2; opacity: 0.7;"></path><path transform="translate(46.32727272727273,159.8)" d="M5.484827557301444,0A5.484827557301444,5.484827557301444,0,1,1,-5.484827557301444,0A5.484827557301444,5.484827557301444,0,1,1,5.484827557301444,0" style="fill: #4c78a8; stroke-width: 2; opacity: 0.7;"></path><path transform="translate(47.27272727272727,160)" d="M5.484827557301444,0A5.484827557301444,5.484827557301444,0,1,1,-5.484827557301444,0A5.484827557301444,5.484827557301444,0,1,1,5.484827557301444,0" style="fill: #4c78a8; stroke-width: 2; opacity: 0.7;"></path><path transform="translate(59.63636363636363,150)" d="M5.484827557301444,0A5.484827557301444,5.484827557301444,0,1,1,-5.484827557301444,0A5.484827557301444,5.484827557301444,0,1,1,5.484827557301444,0" style="fill: #4c78a8; stroke-width: 2; opacity: 0.7;"></path><path transform="translate(59.89090909090908,135.4)" d="M6.7175144212722016,0A6.7175144212722016,6.7175144212722016,0,1,1,-6.7175144212722016,0A6.7175144212722016,6.7175144212722016,0,1,1,6.7175144212722016,0" style="fill: #4c78a8; stroke-width: 2; opacity: 0.7;"></path><path transform="translate(46.4,155.4)" d="M5.484827557301444,0A5.484827557301444,5.484827557301444,0,1,1,-5.484827557301444,0A5.484827557301444,5.484827557301444,0,1,1,5.484827557301444,0" style="fill: #4c78a8; stroke-width: 2; opacity: 0.7;"></path><path transform="translate(48.25454545454546,150)" d="M5.484827557301444,0A5.484827557301444,5.484827557301444,0,1,1,-5.484827557301444,0A5.484827557301444,5.484827557301444,0,1,1,5.484827557301444,0" style="fill: #4c78a8; stroke-width: 2; opacity: 0.7;"></path><path transform="translate(102.43636363636364,70)" d="M6.7175144212722016,0A6.7175144212722016,6.7175144212722016,0,1,1,-6.7175144212722016,0A6.7175144212722016,6.7175144212722016,0,1,1,6.7175144212722016,0" style="fill: #4c78a8; stroke-width: 2; opacity: 0.7;"></path><path transform="translate(46.909090909090914,178)" d="M5.484827557301444,0A5.484827557301444,5.484827557301444,0,1,1,-5.484827557301444,0A5.484827557301444,5.484827557301444,0,1,1,5.484827557301444,0" style="fill: #4c78a8; stroke-width: 2; opacity: 0.7;"></path><path transform="translate(109.60000000000001,138.20000000000002)" d="M7.756717518813397,0A7.756717518813397,7.756717518813397,0,1,1,-7.756717518813397,0A7.756717518813397,7.756717518813397,0,1,1,7.756717518813397,0" style="fill: #4c78a8; stroke-width: 2; opacity: 0.7;"></path><path transform="translate(48.8,130.4)" d="M5.484827557301444,0A5.484827557301444,5.484827557301444,0,1,1,-5.484827557301444,0A5.484827557301444,5.484827557301444,0,1,1,5.484827557301444,0" style="fill: #4c78a8; stroke-width: 2; opacity: 0.7;"></path><path transform="translate(58.10909090909091,140)" d="M6.7175144212722016,0A6.7175144212722016,6.7175144212722016,0,1,1,-6.7175144212722016,0A6.7175144212722016,6.7175144212722016,0,1,1,6.7175144212722016,0" style="fill: #f58518; stroke-width: 2; opacity: 0.7;"></path><path transform="translate(59.163636363636364,150)" d="M5.484827557301444,0A5.484827557301444,5.484827557301444,0,1,1,-5.484827557301444,0A5.484827557301444,5.484827557301444,0,1,1,5.484827557301444,0" style="fill: #4c78a8; stroke-width: 2; opacity: 0.7;"></path><path transform="translate(36.69090909090909,160)" d="M5.484827557301444,0A5.484827557301444,5.484827557301444,0,1,1,-5.484827557301444,0A5.484827557301444,5.484827557301444,0,1,1,5.484827557301444,0" style="fill: #4c78a8; stroke-width: 2; opacity: 0.7;"></path><path transform="translate(80.43636363636364,142.4)" d="M5.484827557301444,0A5.484827557301444,5.484827557301444,0,1,1,-5.484827557301444,0A5.484827557301444,5.484827557301444,0,1,1,5.484827557301444,0" style="fill: #4c78a8; stroke-width: 2; opacity: 0.7;"></path><path transform="translate(130.29090909090908,106.60000000000001)" d="M6.7175144212722016,0A6.7175144212722016,6.7175144212722016,0,1,1,-6.7175144212722016,0A6.7175144212722016,6.7175144212722016,0,1,1,6.7175144212722016,0" style="fill: #f58518; stroke-width: 2; opacity: 0.7;"></path><path transform="translate(98.83636363636363,160)" d="M5.484827557301444,0A5.484827557301444,5.484827557301444,0,1,1,-5.484827557301444,0A5.484827557301444,5.484827557301444,0,1,1,5.484827557301444,0" style="fill: #4c78a8; stroke-width: 2; opacity: 0.7;"></path><path transform="translate(68.2909090909091,140)" d="M5.484827557301444,0A5.484827557301444,5.484827557301444,0,1,1,-5.484827557301444,0A5.484827557301444,5.484827557301444,0,1,1,5.484827557301444,0" style="fill: #f58518; stroke-width: 2; opacity: 0.7;"></path></g></g><path class="foreground" d="" style="display: none; fill: none;"></path></g></g><g class="mark-group role-legend"><g transform="translate(441,0)"><path class="background" d="M0,0h35v40h-35Z" style="pointer-events: none; fill: none;"></path><g><g class="mark-group role-legend-entry"><g transform="translate(0,16)"><path class="background" d="M0,0h0v0h0Z" style="pointer-events: none; fill: none;"></path><g><g class="mark-group role-scope"><g transform="translate(0,0)"><path class="background" d="M0,0h34.0625v11h-34.0625Z" style="pointer-events: none; fill: none; opacity: 1;"></path><g><g class="mark-symbol role-legend-symbol" style="pointer-events: none;"><path transform="translate(6,6)" d="M5,0A5,5,0,1,1,-5,0A5,5,0,1,1,5,0" style="fill: #4c78a8; stroke-width: 1.5; opacity: 0.7;"></path></g><g class="mark-text role-legend-label" style="pointer-events: none;"><text text-anchor="start" transform="translate(16,9)" style="font-family: sans-serif; font-size: 10px; fill: #000; opacity: 1;">Ja</text></g></g><path class="foreground" d="" style="pointer-events: none; display: none; fill: none;"></path></g><g transform="translate(0,13)"><path class="background" d="M0,0h34.0625v11h-34.0625Z" style="pointer-events: none; fill: none; opacity: 1;"></path><g><g class="mark-symbol role-legend-symbol" style="pointer-events: none;"><path transform="translate(6,6)" d="M5,0A5,5,0,1,1,-5,0A5,5,0,1,1,5,0" style="fill: #f58518; stroke-width: 1.5; opacity: 0.7;"></path></g><g class="mark-text role-legend-label" style="pointer-events: none;"><text text-anchor="start" transform="translate(16,9)" style="font-family: sans-serif; font-size: 10px; fill: #000; opacity: 1;">Nee</text></g></g><path class="foreground" d="" style="pointer-events: none; display: none; fill: none;"></path></g></g></g><path class="foreground" d="" style="pointer-events: none; display: none; fill: none;"></path></g></g><g class="mark-text role-legend-title" style="pointer-events: none;"><text text-anchor="start" transform="translate(0,9)" style="font-family: sans-serif; font-size: 11px; font-weight: bold; fill: #000; opacity: 1;">Roker</text></g></g><path class="foreground" d="" style="pointer-events: none; display: none; fill: none;"></path></g></g><g class="mark-group role-legend"><g transform="translate(441,48)"><path class="background" d="M0,0h40v133h-40Z" style="pointer-events: none; fill: none;"></path><g><g class="mark-group role-legend-entry"><g transform="translate(0,16)"><path class="background" d="M0,0h0v0h0Z" style="pointer-events: none; fill: none;"></path><g><g class="mark-group role-scope"><g transform="translate(0,0)"><path class="background" d="M0,0h31v10.378358759406698h-31Z" style="pointer-events: none; fill: none; opacity: 1;"></path><g><g class="mark-symbol role-legend-symbol" style="pointer-events: none;"><path transform="translate(10.5,5)" d="M3.8783587594066984,0A3.8783587594066984,3.8783587594066984,0,1,1,-3.8783587594066984,0A3.8783587594066984,3.8783587594066984,0,1,1,3.8783587594066984,0" style="fill: black; fill-opacity: 0.7; stroke: none; stroke-width: 1.5; opacity: 0.7;"></path></g><g class="mark-text role-legend-label" style="pointer-events: none;"><text text-anchor="start" transform="translate(25,8)" style="font-family: sans-serif; font-size: 10px; fill: #000; opacity: 1;">1</text></g></g><path class="foreground" d="" style="pointer-events: none; display: none; fill: none;"></path></g><g transform="translate(0,14)"><path class="background" d="M0,0h31v13.484827557301443h-31Z" style="pointer-events: none; fill: none; opacity: 1;"></path><g><g class="mark-symbol role-legend-symbol" style="pointer-events: none;"><path transform="translate(10.5,6.5)" d="M5.484827557301444,0A5.484827557301444,5.484827557301444,0,1,1,-5.484827557301444,0A5.484827557301444,5.484827557301444,0,1,1,5.484827557301444,0" style="fill: black; fill-opacity: 0.7; stroke: none; stroke-width: 1.5; opacity: 0.7;"></path></g><g class="mark-text role-legend-label" style="pointer-events: none;"><text text-anchor="start" transform="translate(25,9.5)" style="font-family: sans-serif; font-size: 10px; fill: #000; opacity: 1;">2</text></g></g><path class="foreground" d="" style="pointer-events: none; display: none; fill: none;"></path></g><g transform="translate(0,31)"><path class="background" d="M0,0h31v15.717514421272199h-31Z" style="pointer-events: none; fill: none; opacity: 1;"></path><g><g class="mark-symbol role-legend-symbol" style="pointer-events: none;"><path transform="translate(10.5,7.5)" d="M6.7175144212722016,0A6.7175144212722016,6.7175144212722016,0,1,1,-6.7175144212722016,0A6.7175144212722016,6.7175144212722016,0,1,1,6.7175144212722016,0" style="fill: black; fill-opacity: 0.7; stroke: none; stroke-width: 1.5; opacity: 0.7;"></path></g><g class="mark-text role-legend-label" style="pointer-events: none;"><text text-anchor="start" transform="translate(25,10.5)" style="font-family: sans-serif; font-size: 10px; fill: #000; opacity: 1;">3</text></g></g><path class="foreground" d="" style="pointer-events: none; display: none; fill: none;"></path></g><g transform="translate(0,50)"><path class="background" d="M0,0h31v18.25671751881339h-31Z" style="pointer-events: none; fill: none; opacity: 1;"></path><g><g class="mark-symbol role-legend-symbol" style="pointer-events: none;"><path transform="translate(10.5,9)" d="M7.756717518813397,0A7.756717518813397,7.756717518813397,0,1,1,-7.756717518813397,0A7.756717518813397,7.756717518813397,0,1,1,7.756717518813397,0" style="fill: black; fill-opacity: 0.7; stroke: none; stroke-width: 1.5; opacity: 0.7;"></path></g><g class="mark-text role-legend-label" style="pointer-events: none;"><text text-anchor="start" transform="translate(25,12)" style="font-family: sans-serif; font-size: 10px; fill: #000; opacity: 1;">4</text></g></g><path class="foreground" d="" style="pointer-events: none; display: none; fill: none;"></path></g><g transform="translate(0,72)"><path class="background" d="M0,0h31v19.672273827165128h-31Z" style="pointer-events: none; fill: none; opacity: 1;"></path><g><g class="mark-symbol role-legend-symbol" style="pointer-events: none;"><path transform="translate(10.5,9.5)" d="M8.67227382716513,0A8.67227382716513,8.67227382716513,0,1,1,-8.67227382716513,0A8.67227382716513,8.67227382716513,0,1,1,8.67227382716513,0" style="fill: black; fill-opacity: 0.7; stroke: none; stroke-width: 1.5; opacity: 0.7;"></path></g><g class="mark-text role-legend-label" style="pointer-events: none;"><text text-anchor="start" transform="translate(25,12.5)" style="font-family: sans-serif; font-size: 10px; fill: #000; opacity: 1;">5</text></g></g><path class="foreground" d="" style="pointer-events: none; display: none; fill: none;"></path></g><g transform="translate(0,95)"><path class="background" d="M0,0h31v21.5h-31Z" style="pointer-events: none; fill: none; opacity: 1;"></path><g><g class="mark-symbol role-legend-symbol" style="pointer-events: none;"><path transform="translate(10.5,10.5)" d="M9.5,0A9.5,9.5,0,1,1,-9.5,0A9.5,9.5,0,1,1,9.5,0" style="fill: black; fill-opacity: 0.7; stroke: none; stroke-width: 1.5; opacity: 0.7;"></path></g><g class="mark-text role-legend-label" style="pointer-events: none;"><text text-anchor="start" transform="translate(25,13.5)" style="font-family: sans-serif; font-size: 10px; fill: #000; opacity: 1;">6</text></g></g><path class="foreground" d="" style="pointer-events: none; display: none; fill: none;"></path></g></g></g><path class="foreground" d="" style="pointer-events: none; display: none; fill: none;"></path></g></g><g class="mark-text role-legend-title" style="pointer-events: none;"><text text-anchor="start" transform="translate(0,9)" style="font-family: sans-serif; font-size: 11px; font-weight: bold; fill: #000; opacity: 1;">Grootte</text></g></g><path class="foreground" d="" style="pointer-events: none; display: none; fill: none;"></path></g></g><g class="mark-group role-title"><g transform="translate(-35,-76)"><path class="background" d="M0,0h0v0h0Z" style="pointer-events: none; fill: none;"></path><g><g class="mark-text role-title-text" style="pointer-events: none;"><text text-anchor="start" transform="translate(0,10)" style="font-family: sans-serif; font-size: 13px; font-weight: bold; fill: #000; opacity: 1;">Geven van Fooien, r=0.6757 (x &amp; y), n=244 (bron: RDatasets, reshape2, tips)</text></g></g><path class="foreground" d="" style="pointer-events: none; display: none; fill: none;"></path></g></g></g><path class="foreground" d="" style="display: none; fill: none;"></path></g></g></g></svg>