<svg class="marks" width="1283" height="462" viewBox="0 0 1283 462" version="1.1" xmlns="http://www.w3.org/2000/svg" xmlns:xlink="http://www.w3.org/1999/xlink"><rect width="1283" height="462" style="fill: white;"></rect><g transform="translate(61,74)"><g class="mark-group role-frame root"><g transform="translate(0,0)"><path class="background" d="M0,0h0v0h0Z" style="fill: none;"></path><g><g class="mark-group role-column-title column-title"><g transform="translate(547,-31)"><path class="background" d="M0,0h0v0h0Z" style="fill: none;"></path><g><g class="mark-group role-title"><g transform="translate(0,-21)"><path class="background" d="M0,0h0v0h0Z" style="pointer-events: none; fill: none;"></path><g><g class="mark-text role-title-text" style="pointer-events: none;"><text text-anchor="middle" transform="translate(0,9)" style="font-family: sans-serif; font-size: 11px; font-weight: bold; fill: #000; opacity: 1;">Geslacht</text></g></g><path class="foreground" d="" style="pointer-events: none; display: none; fill: none;"></path></g></g></g><path class="foreground" d="" style="display: none; fill: none;"></path></g></g><g class="mark-group role-row-header row_header"><g transform="translate(-1,0)"><path class="background" d="M0,0h0v350h0Z" style="fill: none;"></path><g><g class="mark-group role-axis"><g transform="translate(0.5,0.5)"><path class="background" d="M0,0h0v0h0Z" style="pointer-events: none; fill: none;"></path><g><g class="mark-rule role-axis-tick" style="pointer-events: none;"><line transform="translate(0,350)" x2="-5" y2="0" style="fill: none; stroke: #888; stroke-width: 1; opacity: 1;"></line><line transform="translate(0,315)" x2="-5" y2="0" style="fill: none; stroke: #888; stroke-width: 1; opacity: 1;"></line><line transform="translate(0,280)" x2="-5" y2="0" style="fill: none; stroke: #888; stroke-width: 1; opacity: 1;"></line><line transform="translate(0,245)" x2="-5" y2="0" style="fill: none; stroke: #888; stroke-width: 1; opacity: 1;"></line><line transform="translate(0,210)" x2="-5" y2="0" style="fill: none; stroke: #888; stroke-width: 1; opacity: 1;"></line><line transform="translate(0,175)" x2="-5" y2="0" style="fill: none; stroke: #888; stroke-width: 1; opacity: 1;"></line><line transform="translate(0,140)" x2="-5" y2="0" style="fill: none; stroke: #888; stroke-width: 1; opacity: 1;"></line><line transform="translate(0,105)" x2="-5" y2="0" style="fill: none; stroke: #888; stroke-width: 1; opacity: 1;"></line><line transform="translate(0,70)" x2="-5" y2="0" style="fill: none; stroke: #888; stroke-width: 1; opacity: 1;"></line><line transform="translate(0,35)" x2="-5" y2="0" style="fill: none; stroke: #888; stroke-width: 1; opacity: 1;"></line><line transform="translate(0,0)" x2="-5" y2="0" style="fill: none; stroke: #888; stroke-width: 1; opacity: 1;"></line></g><g class="mark-text role-axis-label" style="pointer-events: none;"><text text-anchor="end" transform="translate(-7,353)" style="font-family: sans-serif; font-size: 10px; fill: #000; opacity: 1;">0</text><text text-anchor="end" transform="translate(-7,318)" style="font-family: sans-serif; font-size: 10px; fill: #000; opacity: 1;">2,000</text><text text-anchor="end" transform="translate(-7,283)" style="font-family: sans-serif; font-size: 10px; fill: #000; opacity: 1;">4,000</text><text text-anchor="end" transform="translate(-7,247.99999999999997)" style="font-family: sans-serif; font-size: 10px; fill: #000; opacity: 1;">6,000</text><text text-anchor="end" transform="translate(-7,213)" style="font-family: sans-serif; font-size: 10px; fill: #000; opacity: 1;">8,000</text><text text-anchor="end" transform="translate(-7,178)" style="font-family: sans-serif; font-size: 10px; fill: #000; opacity: 1;">10,000</text><text text-anchor="end" transform="translate(-7,143)" style="font-family: sans-serif; font-size: 10px; fill: #000; opacity: 1;">12,000</text><text text-anchor="end" transform="translate(-7,108.00000000000001)" style="font-family: sans-serif; font-size: 10px; fill: #000; opacity: 1;">14,000</text><text text-anchor="end" transform="translate(-7,72.99999999999999)" style="font-family: sans-serif; font-size: 10px; fill: #000; opacity: 1;">16,000</text><text text-anchor="end" transform="translate(-7,37.99999999999999)" style="font-family: sans-serif; font-size: 10px; fill: #000; opacity: 1;">18,000</text><text text-anchor="end" transform="translate(-7,3)" style="font-family: sans-serif; font-size: 10px; fill: #000; opacity: 1;">20,000</text></g><g class="mark-rule role-axis-domain" style="pointer-events: none;"><line transform="translate(0,350)" x2="0" y2="-350" style="fill: none; stroke: #888; stroke-width: 1; opacity: 1;"></line></g><g class="mark-text role-axis-title" style="pointer-events: none;"><text text-anchor="middle" transform="translate(-43.72916793823242,175) rotate(-90) translate(0,-2)" style="font-family: sans-serif; font-size: 11px; font-weight: bold; fill: #000; opacity: 1;">Frequentie</text></g></g><path class="foreground" d="" style="pointer-events: none; display: none; fill: none;"></path></g></g></g><path class="foreground" d="" style="display: none; fill: none;"></path></g></g><g class="mark-group role-column-header column_header"><g transform="translate(0,-1)"><path class="background" d="M0,0h350v0h-350Z" style="fill: none;"></path><g><g class="mark-group role-title"><g transform="translate(175,-20)"><path class="background" d="M0,0h0v0h0Z" style="pointer-events: none; fill: none;"></path><g><g class="mark-text role-title-text" style="pointer-events: none;"><text text-anchor="middle" transform="translate(0,8)" style="font-family: sans-serif; font-size: 10px; fill: #000; opacity: 1;">null</text></g></g><path class="foreground" d="" style="pointer-events: none; display: none; fill: none;"></path></g></g></g><path class="foreground" d="" style="display: none; fill: none;"></path></g><g transform="translate(372,-1)"><path class="background" d="M0,0h350v0h-350Z" style="fill: none;"></path><g><g class="mark-group role-title"><g transform="translate(175,-20)"><path class="background" d="M0,0h0v0h0Z" style="pointer-events: none; fill: none;"></path><g><g class="mark-text role-title-text" style="pointer-events: none;"><text text-anchor="middle" transform="translate(0,8)" style="font-family: sans-serif; font-size: 10px; fill: #000; opacity: 1;">man</text></g></g><path class="foreground" d="" style="pointer-events: none; display: none; fill: none;"></path></g></g></g><path class="foreground" d="" style="display: none; fill: none;"></path></g><g transform="translate(744,-1)"><path class="background" d="M0,0h350v0h-350Z" style="fill: none;"></path><g><g class="mark-group role-title"><g transform="translate(175,-20)"><path class="background" d="M0,0h0v0h0Z" style="pointer-events: none; fill: none;"></path><g><g class="mark-text role-title-text" style="pointer-events: none;"><text text-anchor="middle" transform="translate(0,8)" style="font-family: sans-serif; font-size: 10px; fill: #000; opacity: 1;">vrouw</text></g></g><path class="foreground" d="" style="pointer-events: none; display: none; fill: none;"></path></g></g></g><path class="foreground" d="" style="display: none; fill: none;"></path></g></g><g class="mark-group role-column-footer column_footer"><g transform="translate(0,351)"><path class="background" d="M0,0h350v0h-350Z" style="fill: none;"></path><g><g class="mark-group role-axis"><g transform="translate(0.5,0.5)"><path class="background" d="M0,0h0v0h0Z" style="pointer-events: none; fill: none;"></path><g><g class="mark-rule role-axis-tick" style="pointer-events: none;"><line transform="translate(0,0)" x2="0" y2="5" style="fill: none; stroke: #888; stroke-width: 1; opacity: 1;"></line><line transform="translate(58,0)" x2="0" y2="5" style="fill: none; stroke: #888; stroke-width: 1; opacity: 1;"></line><line transform="translate(117,0)" x2="0" y2="5" style="fill: none; stroke: #888; stroke-width: 1; opacity: 1;"></line><line transform="translate(175,0)" x2="0" y2="5" style="fill: none; stroke: #888; stroke-width: 1; opacity: 1;"></line><line transform="translate(233,0)" x2="0" y2="5" style="fill: none; stroke: #888; stroke-width: 1; opacity: 1;"></line><line transform="translate(292,0)" x2="0" y2="5" style="fill: none; stroke: #888; stroke-width: 1; opacity: 1;"></line><line transform="translate(350,0)" x2="0" y2="5" style="fill: none; stroke: #888; stroke-width: 1; opacity: 1;"></line></g><g class="mark-text role-axis-label" style="pointer-events: none;"><text text-anchor="start" transform="translate(0,15)" style="font-family: sans-serif; font-size: 10px; fill: #000; opacity: 1;">0</text><text text-anchor="middle" transform="translate(58.33333333333333,15)" style="font-family: sans-serif; font-size: 10px; fill: #000; opacity: 0;">2,000,000</text><text text-anchor="middle" transform="translate(116.66666666666666,15)" style="font-family: sans-serif; font-size: 10px; fill: #000; opacity: 1;">4,000,000</text><text text-anchor="middle" transform="translate(175,15)" style="font-family: sans-serif; font-size: 10px; fill: #000; opacity: 0;">6,000,000</text><text text-anchor="middle" transform="translate(233.33333333333331,15)" style="font-family: sans-serif; font-size: 10px; fill: #000; opacity: 1;">8,000,000</text><text text-anchor="middle" transform="translate(291.6666666666667,15)" style="font-family: sans-serif; font-size: 10px; fill: #000; opacity: 0;">10,000,000</text><text text-anchor="end" transform="translate(350,15)" style="font-family: sans-serif; font-size: 10px; fill: #000; opacity: 1;">12,000,000</text></g><g class="mark-rule role-axis-domain" style="pointer-events: none;"><line transform="translate(0,0)" x2="350" y2="0" style="fill: none; stroke: #888; stroke-width: 1; opacity: 1;"></line></g><g class="mark-text role-axis-title" style="pointer-events: none;"><text text-anchor="middle" transform="translate(175,30)" style="font-family: sans-serif; font-size: 11px; font-weight: bold; fill: #000; opacity: 1;">Inkomen</text></g></g><path class="foreground" d="" style="pointer-events: none; display: none; fill: none;"></path></g></g></g><path class="foreground" d="" style="display: none; fill: none;"></path></g><g transform="translate(372,351)"><path class="background" d="M0,0h350v0h-350Z" style="fill: none;"></path><g><g class="mark-group role-axis"><g transform="translate(0.5,0.5)"><path class="background" d="M0,0h0v0h0Z" style="pointer-events: none; fill: none;"></path><g><g class="mark-rule role-axis-tick" style="pointer-events: none;"><line transform="translate(0,0)" x2="0" y2="5" style="fill: none; stroke: #888; stroke-width: 1; opacity: 1;"></line><line transform="translate(58,0)" x2="0" y2="5" style="fill: none; stroke: #888; stroke-width: 1; opacity: 1;"></line><line transform="translate(117,0)" x2="0" y2="5" style="fill: none; stroke: #888; stroke-width: 1; opacity: 1;"></line><line transform="translate(175,0)" x2="0" y2="5" style="fill: none; stroke: #888; stroke-width: 1; opacity: 1;"></line><line transform="translate(233,0)" x2="0" y2="5" style="fill: none; stroke: #888; stroke-width: 1; opacity: 1;"></line><line transform="translate(292,0)" x2="0" y2="5" style="fill: none; stroke: #888; stroke-width: 1; opacity: 1;"></line><line transform="translate(350,0)" x2="0" y2="5" style="fill: none; stroke: #888; stroke-width: 1; opacity: 1;"></line></g><g class="mark-text role-axis-label" style="pointer-events: none;"><text text-anchor="start" transform="translate(0,15)" style="font-family: sans-serif; font-size: 10px; fill: #000; opacity: 1;">0</text><text text-anchor="middle" transform="translate(58.33333333333333,15)" style="font-family: sans-serif; font-size: 10px; fill: #000; opacity: 0;">2,000,000</text><text text-anchor="middle" transform="translate(116.66666666666666,15)" style="font-family: sans-serif; font-size: 10px; fill: #000; opacity: 1;">4,000,000</text><text text-anchor="middle" transform="translate(175,15)" style="font-family: sans-serif; font-size: 10px; fill: #000; opacity: 0;">6,000,000</text><text text-anchor="middle" transform="translate(233.33333333333331,15)" style="font-family: sans-serif; font-size: 10px; fill: #000; opacity: 1;">8,000,000</text><text text-anchor="middle" transform="translate(291.6666666666667,15)" style="font-family: sans-serif; font-size: 10px; fill: #000; opacity: 0;">10,000,000</text><text text-anchor="end" transform="translate(350,15)" style="font-family: sans-serif; font-size: 10px; fill: #000; opacity: 1;">12,000,000</text></g><g class="mark-rule role-axis-domain" style="pointer-events: none;"><line transform="translate(0,0)" x2="350" y2="0" style="fill: none; stroke: #888; stroke-width: 1; opacity: 1;"></line></g><g class="mark-text role-axis-title" style="pointer-events: none;"><text text-anchor="middle" transform="translate(175,30)" style="font-family: sans-serif; font-size: 11px; font-weight: bold; fill: #000; opacity: 1;">Inkomen</text></g></g><path class="foreground" d="" style="pointer-events: none; display: none; fill: none;"></path></g></g></g><path class="foreground" d="" style="display: none; fill: none;"></path></g><g transform="translate(744,351)"><path class="background" d="M0,0h350v0h-350Z" style="fill: none;"></path><g><g class="mark-group role-axis"><g transform="translate(0.5,0.5)"><path class="background" d="M0,0h0v0h0Z" style="pointer-events: none; fill: none;"></path><g><g class="mark-rule role-axis-tick" style="pointer-events: none;"><line transform="translate(0,0)" x2="0" y2="5" style="fill: none; stroke: #888; stroke-width: 1; opacity: 1;"></line><line transform="translate(58,0)" x2="0" y2="5" style="fill: none; stroke: #888; stroke-width: 1; opacity: 1;"></line><line transform="translate(117,0)" x2="0" y2="5" style="fill: none; stroke: #888; stroke-width: 1; opacity: 1;"></line><line transform="translate(175,0)" x2="0" y2="5" style="fill: none; stroke: #888; stroke-width: 1; opacity: 1;"></line><line transform="translate(233,0)" x2="0" y2="5" style="fill: none; stroke: #888; stroke-width: 1; opacity: 1;"></line><line transform="translate(292,0)" x2="0" y2="5" style="fill: none; stroke: #888; stroke-width: 1; opacity: 1;"></line><line transform="translate(350,0)" x2="0" y2="5" style="fill: none; stroke: #888; stroke-width: 1; opacity: 1;"></line></g><g class="mark-text role-axis-label" style="pointer-events: none;"><text text-anchor="start" transform="translate(0,15)" style="font-family: sans-serif; font-size: 10px; fill: #000; opacity: 1;">0</text><text text-anchor="middle" transform="translate(58.33333333333333,15)" style="font-family: sans-serif; font-size: 10px; fill: #000; opacity: 0;">2,000,000</text><text text-anchor="middle" transform="translate(116.66666666666666,15)" style="font-family: sans-serif; font-size: 10px; fill: #000; opacity: 1;">4,000,000</text><text text-anchor="middle" transform="translate(175,15)" style="font-family: sans-serif; font-size: 10px; fill: #000; opacity: 0;">6,000,000</text><text text-anchor="middle" transform="translate(233.33333333333331,15)" style="font-family: sans-serif; font-size: 10px; fill: #000; opacity: 1;">8,000,000</text><text text-anchor="middle" transform="translate(291.6666666666667,15)" style="font-family: sans-serif; font-size: 10px; fill: #000; opacity: 0;">10,000,000</text><text text-anchor="end" transform="translate(350,15)" style="font-family: sans-serif; font-size: 10px; fill: #000; opacity: 1;">12,000,000</text></g><g class="mark-rule role-axis-domain" style="pointer-events: none;"><line transform="translate(0,0)" x2="350" y2="0" style="fill: none; stroke: #888; stroke-width: 1; opacity: 1;"></line></g><g class="mark-text role-axis-title" style="pointer-events: none;"><text text-anchor="middle" transform="translate(175,30)" style="font-family: sans-serif; font-size: 11px; font-weight: bold; fill: #000; opacity: 1;">Inkomen</text></g></g><path class="foreground" d="" style="pointer-events: none; display: none; fill: none;"></path></g></g></g><path class="foreground" d="" style="display: none; fill: none;"></path></g></g><g class="mark-group role-scope cell"><g transform="translate(0,0)"><path class="background" d="M0.5,0.5h350v350h-350Z" style="fill: none; stroke: #ddd;"></path><g><g class="mark-group role-axis"><g transform="translate(0.5,0.5)"><path class="background" d="M0,0h0v0h0Z" style="pointer-events: none; fill: none;"></path><g><g class="mark-rule role-axis-grid" style="pointer-events: none;"><line transform="translate(0,350)" x2="350" y2="0" style="fill: none; stroke: #ddd; stroke-width: 1; opacity: 1;"></line><line transform="translate(0,315)" x2="350" y2="0" style="fill: none; stroke: #ddd; stroke-width: 1; opacity: 1;"></line><line transform="translate(0,280)" x2="350" y2="0" style="fill: none; stroke: #ddd; stroke-width: 1; opacity: 1;"></line><line transform="translate(0,245)" x2="350" y2="0" style="fill: none; stroke: #ddd; stroke-width: 1; opacity: 1;"></line><line transform="translate(0,210)" x2="350" y2="0" style="fill: none; stroke: #ddd; stroke-width: 1; opacity: 1;"></line><line transform="translate(0,175)" x2="350" y2="0" style="fill: none; stroke: #ddd; stroke-width: 1; opacity: 1;"></line><line transform="translate(0,140)" x2="350" y2="0" style="fill: none; stroke: #ddd; stroke-width: 1; opacity: 1;"></line><line transform="translate(0,105)" x2="350" y2="0" style="fill: none; stroke: #ddd; stroke-width: 1; opacity: 1;"></line><line transform="translate(0,70)" x2="350" y2="0" style="fill: none; stroke: #ddd; stroke-width: 1; opacity: 1;"></line><line transform="translate(0,35)" x2="350" y2="0" style="fill: none; stroke: #ddd; stroke-width: 1; opacity: 1;"></line><line transform="translate(0,0)" x2="350" y2="0" style="fill: none; stroke: #ddd; stroke-width: 1; opacity: 1;"></line></g></g><path class="foreground" d="" style="pointer-events: none; display: none; fill: none;"></path></g></g><g class="mark-rect role-mark child_marks"><path d="M1,349.9825h57.33333333333333v0.017499999999984084h-57.33333333333333Z" style="fill: rgb(56, 135, 192);"></path></g></g><path class="foreground" d="" style="display: none; fill: none;"></path></g><g transform="translate(372,0)"><path class="background" d="M0.5,0.5h350v350h-350Z" style="fill: none; stroke: #ddd;"></path><g><g class="mark-group role-axis"><g transform="translate(0.5,0.5)"><path class="background" d="M0,0h0v0h0Z" style="pointer-events: none; fill: none;"></path><g><g class="mark-rule role-axis-grid" style="pointer-events: none;"><line transform="translate(0,350)" x2="350" y2="0" style="fill: none; stroke: #ddd; stroke-width: 1; opacity: 1;"></line><line transform="translate(0,315)" x2="350" y2="0" style="fill: none; stroke: #ddd; stroke-width: 1; opacity: 1;"></line><line transform="translate(0,280)" x2="350" y2="0" style="fill: none; stroke: #ddd; stroke-width: 1; opacity: 1;"></line><line transform="translate(0,245)" x2="350" y2="0" style="fill: none; stroke: #ddd; stroke-width: 1; opacity: 1;"></line><line transform="translate(0,210)" x2="350" y2="0" style="fill: none; stroke: #ddd; stroke-width: 1; opacity: 1;"></line><line transform="translate(0,175)" x2="350" y2="0" style="fill: none; stroke: #ddd; stroke-width: 1; opacity: 1;"></line><line transform="translate(0,140)" x2="350" y2="0" style="fill: none; stroke: #ddd; stroke-width: 1; opacity: 1;"></line><line transform="translate(0,105)" x2="350" y2="0" style="fill: none; stroke: #ddd; stroke-width: 1; opacity: 1;"></line><line transform="translate(0,70)" x2="350" y2="0" style="fill: none; stroke: #ddd; stroke-width: 1; opacity: 1;"></line><line transform="translate(0,35)" x2="350" y2="0" style="fill: none; stroke: #ddd; stroke-width: 1; opacity: 1;"></line><line transform="translate(0,0)" x2="350" y2="0" style="fill: none; stroke: #ddd; stroke-width: 1; opacity: 1;"></line></g></g><path class="foreground" d="" style="pointer-events: none; display: none; fill: none;"></path></g></g><g class="mark-rect role-mark child_marks"><path d="M1,51.46750000000001h57.33333333333333v59.3075h-57.33333333333333Z" style="fill: rgb(134, 188, 220);"></path><path d="M59.33333333333333,333.34000000000003h57.33333333333333v1.5224999999999795h-57.33333333333333Z" style="fill: rgb(134, 188, 220);"></path><path d="M1,8.189999999999992h57.33333333333333v43.27750000000002h-57.33333333333333Z" style="fill: rgb(175, 209, 231);"></path><path d="M59.33333333333333,332.3775h57.33333333333333v0.9625000000000341h-57.33333333333333Z" style="fill: rgb(175, 209, 231);"></path><path d="M1,110.775h57.33333333333333v64.5575h-57.33333333333333Z" style="fill: rgb(91, 163, 207);"></path><path d="M59.33333333333333,334.8625h57.33333333333333v2.4499999999999886h-57.33333333333333Z" style="fill: rgb(91, 163, 207);"></path><path d="M59.33333333333333,337.3125h57.33333333333333v9.41500000000002h-57.33333333333333Z" style="fill: rgb(56, 135, 192);"></path><path d="M1,175.3325h57.33333333333333v137.00749999999996h-57.33333333333333Z" style="fill: rgb(56, 135, 192);"></path><path d="M117.66666666666666,348.7925h57.33333333333334v0.052500000000009095h-57.33333333333334Z" style="fill: rgb(175, 209, 231);"></path><path d="M117.66666666666666,349.055h57.33333333333334v0.6825000000000045h-57.33333333333334Z" style="fill: rgb(56, 135, 192);"></path><path d="M117.66666666666666,348.845h57.33333333333334v0.05249999999995225h-57.33333333333334Z" style="fill: rgb(134, 188, 220);"></path><path d="M176,349.8075h57.333333333333314v0.03500000000002501h-57.333333333333314Z" style="fill: rgb(134, 188, 220);"></path><path d="M234.33333333333331,349.9825h57.33333333333337v0.017499999999984084h-57.33333333333337Z" style="fill: rgb(56, 135, 192);"></path><path d="M117.66666666666666,348.8975h57.33333333333334v0.15750000000002728h-57.33333333333334Z" style="fill: rgb(91, 163, 207);"></path><path d="M1,312.34h57.33333333333333v37.660000000000025h-57.33333333333333Z" style="fill: rgb(27, 105, 173);"></path><path d="M59.33333333333333,346.7275h57.33333333333333v3.2724999999999795h-57.33333333333333Z" style="fill: rgb(27, 105, 173);"></path><path d="M176,349.9475h57.333333333333314v0.052500000000009095h-57.333333333333314Z" style="fill: rgb(27, 105, 173);"></path><path d="M117.66666666666666,349.7375h57.33333333333334v0.26249999999998863h-57.33333333333334Z" style="fill: rgb(27, 105, 173);"></path><path d="M176,349.86h57.333333333333314v0.08749999999997726h-57.333333333333314Z" style="fill: rgb(56, 135, 192);"></path><path d="M176,349.84250000000003h57.333333333333314v0.017499999999984084h-57.333333333333314Z" style="fill: rgb(91, 163, 207);"></path><path d="M292.6666666666667,349.9825h57.333333333333314v0.017499999999984084h-57.333333333333314Z" style="fill: rgb(56, 135, 192);"></path><path d="M176,349.7725h57.333333333333314v0.03500000000002501h-57.333333333333314Z" style="fill: rgb(175, 209, 231);"></path><path d="M234.33333333333331,349.96500000000003h57.33333333333337v0.017499999999984084h-57.33333333333337Z" style="fill: rgb(175, 209, 231);"></path></g></g><path class="foreground" d="" style="display: none; fill: none;"></path></g><g transform="translate(744,0)"><path class="background" d="M0.5,0.5h350v350h-350Z" style="fill: none; stroke: #ddd;"></path><g><g class="mark-group role-axis"><g transform="translate(0.5,0.5)"><path class="background" d="M0,0h0v0h0Z" style="pointer-events: none; fill: none;"></path><g><g class="mark-rule role-axis-grid" style="pointer-events: none;"><line transform="translate(0,350)" x2="350" y2="0" style="fill: none; stroke: #ddd; stroke-width: 1; opacity: 1;"></line><line transform="translate(0,315)" x2="350" y2="0" style="fill: none; stroke: #ddd; stroke-width: 1; opacity: 1;"></line><line transform="translate(0,280)" x2="350" y2="0" style="fill: none; stroke: #ddd; stroke-width: 1; opacity: 1;"></line><line transform="translate(0,245)" x2="350" y2="0" style="fill: none; stroke: #ddd; stroke-width: 1; opacity: 1;"></line><line transform="translate(0,210)" x2="350" y2="0" style="fill: none; stroke: #ddd; stroke-width: 1; opacity: 1;"></line><line transform="translate(0,175)" x2="350" y2="0" style="fill: none; stroke: #ddd; stroke-width: 1; opacity: 1;"></line><line transform="translate(0,140)" x2="350" y2="0" style="fill: none; stroke: #ddd; stroke-width: 1; opacity: 1;"></line><line transform="translate(0,105)" x2="350" y2="0" style="fill: none; stroke: #ddd; stroke-width: 1; opacity: 1;"></line><line transform="translate(0,70)" x2="350" y2="0" style="fill: none; stroke: #ddd; stroke-width: 1; opacity: 1;"></line><line transform="translate(0,35)" x2="350" y2="0" style="fill: none; stroke: #ddd; stroke-width: 1; opacity: 1;"></line><line transform="translate(0,0)" x2="350" y2="0" style="fill: none; stroke: #ddd; stroke-width: 1; opacity: 1;"></line></g></g><path class="foreground" d="" style="pointer-events: none; display: none; fill: none;"></path></g></g><g class="mark-rect role-mark child_marks"><path d="M1,298.77750000000003h57.33333333333333v8.714999999999975h-57.33333333333333Z" style="fill: rgb(134, 188, 220);"></path><path d="M1,292.4075h57.33333333333333v6.3700000000000045h-57.33333333333333Z" style="fill: rgb(175, 209, 231);"></path><path d="M1,307.4925h57.33333333333333v9.029999999999973h-57.33333333333333Z" style="fill: rgb(91, 163, 207);"></path><path d="M1,316.5225h57.33333333333333v25.182500000000005h-57.33333333333333Z" style="fill: rgb(56, 135, 192);"></path><path d="M59.33333333333333,349.3875h57.33333333333333v0.4900000000000091h-57.33333333333333Z" style="fill: rgb(56, 135, 192);"></path><path d="M59.33333333333333,349.1775h57.33333333333333v0.10500000000001819h-57.33333333333333Z" style="fill: rgb(134, 188, 220);"></path><path d="M1,341.705h57.33333333333333v8.295000000000016h-57.33333333333333Z" style="fill: rgb(27, 105, 173);"></path><path d="M59.33333333333333,349.8775h57.33333333333333v0.12250000000000227h-57.33333333333333Z" style="fill: rgb(27, 105, 173);"></path><path d="M59.33333333333333,349.2825h57.33333333333333v0.10499999999996135h-57.33333333333333Z" style="fill: rgb(91, 163, 207);"></path><path d="M117.66666666666666,349.96500000000003h57.33333333333334v0.03499999999996817h-57.33333333333334Z" style="fill: rgb(56, 135, 192);"></path><path d="M176,349.9825h57.333333333333314v0.017499999999984084h-57.333333333333314Z" style="fill: rgb(91, 163, 207);"></path><path d="M59.33333333333333,349.09h57.33333333333333v0.0875000000000341h-57.33333333333333Z" style="fill: rgb(175, 209, 231);"></path><path d="M117.66666666666666,349.9475h57.33333333333334v0.017500000000040927h-57.33333333333334Z" style="fill: rgb(134, 188, 220);"></path></g></g><path class="foreground" d="" style="display: none; fill: none;"></path></g></g><g class="mark-group role-legend"><g transform="translate(1113,0)"><path class="background" d="M0,0h104v79h-104Z" style="pointer-events: none; fill: none;"></path><g><g class="mark-group role-legend-entry"><g transform="translate(0,16)"><path class="background" d="M0,0h0v0h0Z" style="pointer-events: none; fill: none;"></path><g><g class="mark-group role-scope"><g transform="translate(0,0)"><path class="background" d="M0,0h22v11h-22Z" style="pointer-events: none; fill: none; opacity: 1;"></path><g><g class="mark-symbol role-legend-symbol" style="pointer-events: none;"><path transform="translate(6,6)" d="M-5,-5h10v10h-10Z" style="fill: rgb(175, 209, 231); stroke-width: 1.5; opacity: 1;"></path></g><g class="mark-text role-legend-label" style="pointer-events: none;"><text text-anchor="start" transform="translate(16,9)" style="font-family: sans-serif; font-size: 10px; fill: #000; opacity: 1;">1</text></g></g><path class="foreground" d="" style="pointer-events: none; display: none; fill: none;"></path></g><g transform="translate(0,13)"><path class="background" d="M0,0h22v11h-22Z" style="pointer-events: none; fill: none; opacity: 1;"></path><g><g class="mark-symbol role-legend-symbol" style="pointer-events: none;"><path transform="translate(6,6)" d="M-5,-5h10v10h-10Z" style="fill: rgb(134, 188, 220); stroke-width: 1.5; opacity: 1;"></path></g><g class="mark-text role-legend-label" style="pointer-events: none;"><text text-anchor="start" transform="translate(16,9)" style="font-family: sans-serif; font-size: 10px; fill: #000; opacity: 1;">2</text></g></g><path class="foreground" d="" style="pointer-events: none; display: none; fill: none;"></path></g><g transform="translate(0,26)"><path class="background" d="M0,0h22v11h-22Z" style="pointer-events: none; fill: none; opacity: 1;"></path><g><g class="mark-symbol role-legend-symbol" style="pointer-events: none;"><path transform="translate(6,6)" d="M-5,-5h10v10h-10Z" style="fill: rgb(91, 163, 207); stroke-width: 1.5; opacity: 1;"></path></g><g class="mark-text role-legend-label" style="pointer-events: none;"><text text-anchor="start" transform="translate(16,9)" style="font-family: sans-serif; font-size: 10px; fill: #000; opacity: 1;">3</text></g></g><path class="foreground" d="" style="pointer-events: none; display: none; fill: none;"></path></g><g transform="translate(0,39)"><path class="background" d="M0,0h22v11h-22Z" style="pointer-events: none; fill: none; opacity: 1;"></path><g><g class="mark-symbol role-legend-symbol" style="pointer-events: none;"><path transform="translate(6,6)" d="M-5,-5h10v10h-10Z" style="fill: rgb(56, 135, 192); stroke-width: 1.5; opacity: 1;"></path></g><g class="mark-text role-legend-label" style="pointer-events: none;"><text text-anchor="start" transform="translate(16,9)" style="font-family: sans-serif; font-size: 10px; fill: #000; opacity: 1;">4</text></g></g><path class="foreground" d="" style="pointer-events: none; display: none; fill: none;"></path></g><g transform="translate(0,52)"><path class="background" d="M0,0h22v11h-22Z" style="pointer-events: none; fill: none; opacity: 1;"></path><g><g class="mark-symbol role-legend-symbol" style="pointer-events: none;"><path transform="translate(6,6)" d="M-5,-5h10v10h-10Z" style="fill: rgb(27, 105, 173); stroke-width: 1.5; opacity: 1;"></path></g><g class="mark-text role-legend-label" style="pointer-events: none;"><text text-anchor="start" transform="translate(16,9)" style="font-family: sans-serif; font-size: 10px; fill: #000; opacity: 1;">5</text></g></g><path class="foreground" d="" style="pointer-events: none; display: none; fill: none;"></path></g></g></g><path class="foreground" d="" style="pointer-events: none; display: none; fill: none;"></path></g></g><g class="mark-text role-legend-title" style="pointer-events: none;"><text text-anchor="start" transform="translate(0,9)" style="font-family: sans-serif; font-size: 11px; font-weight: bold; fill: #000; opacity: 1;">Grootte Woonplaats</text></g></g><path class="foreground" d="" style="pointer-events: none; display: none; fill: none;"></path></g></g><g class="mark-group role-title"><g transform="translate(-55.72916793823242,-69)"><path class="background" d="M0,0h0v0h0Z" style="pointer-events: none; fill: none;"></path><g><g class="mark-text role-title-text" style="pointer-events: none;"><text text-anchor="start" transform="translate(0,10)" style="font-family: sans-serif; font-size: 13px; font-weight: bold; fill: #000; opacity: 1;">Voedselbudget Spaanse Huishoudens (1980), n=23 972 (bron: RDatasets, ecdat, budgetfood)</text></g></g><path class="foreground" d="" style="pointer-events: none; display: none; fill: none;"></path></g></g></g><path class="foreground" d="" style="display: none; fill: none;"></path></g></g></g></svg>